JetBrainsMono-ExtraBold.ufo
<glyph name="exclam" format="2">
  <advance width="600" height="985"/>
  <unicode hex="0021"/>
  <outline>
    <contour>
      <point x="221" y="720" type="line"/>
      <point x="379" y="720" type="line"/>
      <point x="379" y="570" type="line"/>
      <point x="356" y="245" type="line"/>
      <point x="244" y="245" type="line"/>
      <point x="221" y="570" type="line"/>
    </contour>
    <contour>
      <point x="285" y="135" type="curve" smooth="yes"/>
      <point x="315" y="135" type="line" smooth="yes"/>
      <point x="360" y="135"/>
      <point x="390" y="107"/>
      <point x="390" y="64.5" type="curve" smooth="yes"/>
      <point x="390" y="22"/>
      <point x="360" y="-5"/>
      <point x="314" y="-5" type="curve" smooth="yes"/>
      <point x="285" y="-5" type="line" smooth="yes"/>
      <point x="240" y="-5"/>
      <point x="210" y="23"/>
      <point x="210" y="65" type="curve" smooth="yes"/>
      <point x="210" y="107"/>
      <point x="240" y="135"/>
    </contour>
  </outline>
</glyph>
<glyph name="quotedbl" format="2">
  <advance width="600" height="985"/>
  <unicode hex="0022"/>
  <outline>
    <contour>
      <point x="342" y="730" type="line"/>
      <point x="490" y="730" type="line"/>
      <point x="490" y="570" type="line"/>
      <point x="477" y="430" type="line"/>
      <point x="356" y="430" type="line"/>
      <point x="342" y="570" type="line"/>
    </contour>
    <contour>
      <point x="110" y="730" type="line"/>
      <point x="258" y="730" type="line"/>
      <point x="258" y="570" type="line"/>
      <point x="245" y="430" type="line"/>
      <point x="124" y="430" type="line"/>
      <point x="110" y="570" type="line"/>
    </contour>
  </outline>
</glyph>
<glyph name="numbersign" format="2">
  <advance width="600" height="985"/>
  <unicode hex="0023"/>
  <outline>
    <contour>
      <point x="435" y="170" type="line"/>
      <point x="405" y="0" type="line"/>
      <point x="300" y="0" type="line"/>
      <point x="330" y="170" type="line"/>
      <point x="205" y="170" type="line"/>
      <point x="175" y="0" type="line"/>
      <point x="70" y="0" type="line"/>
      <point x="100" y="170" type="line"/>
      <point x="20" y="170" type="line"/>
      <point x="20" y="270" type="line"/>
      <point x="117" y="270" type="line"/>
      <point x="148" y="450" type="line"/>
      <point x="54" y="450" type="line"/>
      <point x="54" y="550" type="line"/>
      <point x="165" y="550" type="line"/>
      <point x="195" y="720" type="line"/>
      <point x="300" y="720" type="line"/>
      <point x="270" y="550" type="line"/>
      <point x="395" y="550" type="line"/>
      <point x="425" y="720" type="line"/>
      <point x="530" y="720" type="line"/>
      <point x="500" y="550" type="line"/>
      <point x="580" y="550" type="line"/>
      <point x="580" y="450" type="line"/>
      <point x="483" y="450" type="line"/>
      <point x="452" y="270" type="line"/>
      <point x="545" y="270" type="line"/>
      <point x="545" y="170" type="line"/>
    </contour>
    <contour>
      <point x="347" y="270" type="line"/>
      <point x="378" y="450" type="line"/>
      <point x="253" y="450" type="line"/>
      <point x="222" y="270" type="line"/>
    </contour>
  </outline>
</glyph>
<glyph name="dollar" format="2">
  <advance width="600" height="985"/>
  <unicode hex="0024"/>
  <outline>
    <contour>
      <point x="260" y="850" type="line"/>
      <point x="325" y="850" type="line"/>
      <point x="325" y="360" type="line"/>
      <point x="260" y="360" type="line"/>
    </contour>
    <contour>
      <point x="325" y="-140" type="line"/>
      <point x="260" y="-140" type="line"/>
      <point x="260" y="350" type="line"/>
      <point x="325" y="350" type="line"/>
    </contour>
    <contour>
      <point x="300" y="-10" type="curve" smooth="yes" name="ab01"/>
      <point x="151" y="-10"/>
      <point x="52" y="70"/>
      <point x="45" y="195" type="curve" name="sv01"/>
      <point x="190" y="195" type="line"/>
      <point x="195" y="142"/>
      <point x="241" y="109"/>
      <point x="308" y="109" type="curve" smooth="yes" name="sv02"/>
      <point x="378" y="109"/>
      <point x="416" y="140"/>
      <point x="416" y="196.129" type="curve" smooth="yes" name="ah01"/>
      <point x="416" y="246"/>
      <point x="386" y="278"/>
      <point x="328" y="291" type="curve" smooth="yes"/>
      <point x="252" y="308" type="line" smooth="yes"/>
      <point x="122" y="337"/>
      <point x="53" y="409"/>
      <point x="53" y="525" type="curve" smooth="yes" name="sh01"/>
      <point x="53" y="651"/>
      <point x="149" y="731"/>
      <point x="300" y="731" type="curve" smooth="yes" name="at01"/>
      <point x="440" y="731"/>
      <point x="534" y="653"/>
      <point x="543" y="531" type="curve" name="sv03"/>
      <point x="398" y="531" type="line"/>
      <point x="392" y="581"/>
      <point x="349" y="612"/>
      <point x="287" y="612" type="curve" smooth="yes" name="sv04"/>
      <point x="228" y="612"/>
      <point x="191" y="581"/>
      <point x="191" y="531.538" type="curve" smooth="yes" name="sh02"/>
      <point x="191" y="487"/>
      <point x="221" y="457"/>
      <point x="277" y="444" type="curve" smooth="yes"/>
      <point x="357" y="426" type="line" smooth="yes"/>
      <point x="488" y="397"/>
      <point x="555" y="322"/>
      <point x="555" y="206" type="curve" smooth="yes" name="sh03"/>
      <point x="555" y="78"/>
      <point x="454" y="-10"/>
    </contour>
  </outline>
</glyph>
<glyph name="percent" format="2">
  <advance width="600" height="985"/>
  <unicode hex="0025"/>
  <outline>
    <contour>
      <point x="570" y="565" type="line"/>
      <point x="570" y="480" type="line"/>
      <point x="30" y="156" type="line"/>
      <point x="30" y="241" type="line"/>
    </contour>
    <contour>
      <point x="180" y="642" type="curve" smooth="yes"/>
      <point x="152" y="642"/>
      <point x="134" y="623"/>
      <point x="134" y="595" type="curve" smooth="yes"/>
      <point x="134" y="535" type="line" smooth="yes"/>
      <point x="134" y="507"/>
      <point x="152" y="488"/>
      <point x="180" y="488" type="curve" smooth="yes"/>
      <point x="208" y="488"/>
      <point x="226" y="507"/>
      <point x="226" y="535" type="curve" smooth="yes"/>
      <point x="226" y="595" type="line" smooth="yes"/>
      <point x="226" y="623"/>
      <point x="208" y="642"/>
    </contour>
    <contour>
      <point x="180" y="405" type="curve" smooth="yes"/>
      <point x="93" y="405"/>
      <point x="35" y="457"/>
      <point x="35" y="535" type="curve" smooth="yes"/>
      <point x="35" y="595" type="line" smooth="yes"/>
      <point x="35" y="673"/>
      <point x="93" y="725"/>
      <point x="180" y="725" type="curve" smooth="yes"/>
      <point x="267" y="725"/>
      <point x="325" y="673"/>
      <point x="325" y="595" type="curve" smooth="yes"/>
      <point x="325" y="535" type="line" smooth="yes"/>
      <point x="325" y="457"/>
      <point x="267" y="405"/>
    </contour>
    <contour>
      <point x="420" y="232" type="curve" smooth="yes"/>
      <point x="392" y="232"/>
      <point x="374" y="213"/>
      <point x="374" y="185" type="curve" smooth="yes"/>
      <point x="374" y="125" type="line" smooth="yes"/>
      <point x="374" y="97"/>
      <point x="392" y="78"/>
      <point x="420" y="78" type="curve" smooth="yes"/>
      <point x="448" y="78"/>
      <point x="466" y="97"/>
      <point x="466" y="125" type="curve" smooth="yes"/>
      <point x="466" y="185" type="line" smooth="yes"/>
      <point x="466" y="213"/>
      <point x="448" y="232"/>
    </contour>
    <contour>
      <point x="420" y="-5" type="curve" smooth="yes"/>
      <point x="333" y="-5"/>
      <point x="275" y="47"/>
      <point x="275" y="125" type="curve" smooth="yes"/>
      <point x="275" y="185" type="line" smooth="yes"/>
      <point x="275" y="263"/>
      <point x="333" y="315"/>
      <point x="420" y="315" type="curve" smooth="yes"/>
      <point x="507" y="315"/>
      <point x="565" y="263"/>
      <point x="565" y="185" type="curve" smooth="yes"/>
      <point x="565" y="125" type="line" smooth="yes"/>
      <point x="565" y="47"/>
      <point x="507" y="-5"/>
    </contour>
  </outline>
</glyph>
<glyph name="parenright" format="2">
  <advance width="600" height="985"/>
  <unicode hex="0029"/>
  <outline>
    <contour>
      <point x="115" y="845" type="line"/>
      <point x="322" y="789"/>
      <point x="445" y="645"/>
      <point x="445" y="455" type="curve" smooth="yes"/>
      <point x="445" y="264" type="line" smooth="yes"/>
      <point x="445" y="71"/>
      <point x="327" y="-68"/>
      <point x="115" y="-125" type="curve"/>
      <point x="115" y="27" type="line"/>
      <point x="227" y="54"/>
      <point x="295" y="144"/>
      <point x="295" y="264" type="curve" smooth="yes"/>
      <point x="295" y="455" type="line" smooth="yes"/>
      <point x="295" y="578"/>
      <point x="228" y="667"/>
      <point x="115" y="695" type="curve"/>
    </contour>
  </outline>
</glyph>
<glyph name="comma" format="2">
  <advance width="600" height="985"/>
  <unicode hex="002C"/>
  <outline>
    <contour>
      <point x="400" y="151" type="line"/>
      <point x="270" y="-160" type="line"/>
      <point x="140" y="-160" type="line"/>
      <point x="220" y="151" type="line"/>
    </contour>
  </outline>
</glyph>
<glyph name="period" format="2">
  <advance width="600" height="985"/>
  <unicode hex="002E"/>
  <outline>
    <contour>
      <point x="285" y="180" type="curve" smooth="yes"/>
      <point x="315" y="180" type="line" smooth="yes"/>
      <point x="369.903" y="180"/>
      <point x="410" y="139.903"/>
      <point x="410" y="85" type="curve" smooth="yes"/>
      <point x="410" y="30.2248"/>
      <point x="369.775" y="-10"/>
      <point x="315" y="-10" type="curve" smooth="yes"/>
      <point x="285" y="-10" type="line" smooth="yes"/>
      <point x="230.225" y="-10"/>
      <point x="190" y="30.2248"/>
      <point x="190" y="85" type="curve" smooth="yes"/>
      <point x="190" y="139.903"/>
      <point x="230.097" y="180"/>
    </contour>
  </outline>
</glyph>
<glyph name="slash" format="2">
  <advance width="600" height="985"/>
  <unicode hex="002F"/>
  <outline>
    <contour>
      <point x="395" y="830" type="line"/>
      <point x="550" y="830" type="line"/>
      <point x="205" y="-110" type="line"/>
      <point x="50" y="-110" type="line"/>
    </contour>
  </outline>
</glyph>
<glyph name="three" format="2">
  <advance width="600" height="985"/>
  <unicode hex="0033"/>
  <outline>
    <contour>
      <point x="300" y="-10" type="curve" smooth="yes" name="ab01"/>
      <point x="453" y="-10"/>
      <point x="555" y="82"/>
      <point x="555" y="220" type="curve" smooth="yes" name="dh02"/>
      <point x="555" y="348"/>
      <point x="473" y="435"/>
      <point x="340" y="446" type="curve"/>
      <point x="340" y="446"/>
      <point x="370" y="460"/>
      <point x="396" y="481" type="curve" smooth="yes"/>
      <point x="525" y="585" type="line"/>
      <point x="525" y="720" type="line" name="at01"/>
      <point x="80" y="720" type="line"/>
      <point x="80" y="595" type="line" name="sv01"/>
      <point x="268" y="595" type="line" smooth="yes"/>
      <point x="330" y="595"/>
      <point x="380" y="608"/>
      <point x="380" y="608" type="curve" name="iv01"/>
      <point x="380" y="598" type="line"/>
      <point x="380" y="598"/>
      <point x="335" y="574"/>
      <point x="301" y="544" type="curve" smooth="yes"/>
      <point x="205" y="460" type="line"/>
      <point x="205" y="325" type="line"/>
      <point x="295" y="325" type="line" smooth="yes"/>
      <point x="361" y="325"/>
      <point x="405" y="283"/>
      <point x="405" y="220" type="curve" smooth="yes" name="dh01"/>
      <point x="405" y="157"/>
      <point x="363" y="115"/>
      <point x="300" y="115" type="curve" smooth="yes" name="sv02"/>
      <point x="244" y="115"/>
      <point x="201" y="143"/>
      <point x="195" y="185" type="curve" name="sv03"/>
      <point x="45" y="185" type="line"/>
      <point x="55" y="65"/>
      <point x="154" y="-10"/>
    </contour>
  </outline>
</glyph>
<glyph name="seven" format="2">
  <advance width="600" height="985"/>
  <unicode hex="0037"/>
  <outline>
    <contour>
      <point x="132" y="0" type="line" name="ih01"/>
      <point x="294" y="0" type="line" name="ab01"/>
      <point x="550" y="570" type="line"/>
      <point x="550" y="720" type="line"/>
      <point x="55" y="720" type="line" name="at01"/>
      <point x="55" y="474" type="line" name="dh01"/>
      <point x="190" y="474" type="line" name="sv02"/>
      <point x="190" y="580" type="line" name="sv01"/>
      <point x="331" y="580" type="line" smooth="yes"/>
      <point x="357" y="580"/>
      <point x="407" y="582"/>
      <point x="407" y="582" type="curve"/>
      <point x="407" y="579" type="line"/>
      <point x="407" y="579"/>
      <point x="384" y="548"/>
      <point x="367" y="512" type="curve" smooth="yes"/>
    </contour>
  </outline>
</glyph>
<glyph name="colon" format="2">
  <advance width="600" height="985"/>
  <unicode hex="003A"/>
  <outline>
    <contour>
      <point x="290" y="-10" type="curve" smooth="yes"/>
      <point x="310" y="-10" type="line" smooth="yes"/>
      <point x="362.075" y="-10"/>
      <point x="400" y="27.9248"/>
      <point x="400" y="80" type="curve" smooth="yes"/>
      <point x="400" y="132.203"/>
      <point x="362.203" y="170"/>
      <point x="310" y="170" type="curve" smooth="yes"/>
      <point x="290" y="170" type="line" smooth="yes"/>
      <point x="237.797" y="170"/>
      <point x="200" y="132.203"/>
      <point x="200" y="80" type="curve" smooth="yes"/>
      <point x="200" y="27.9248"/>
      <point x="237.925" y="-10"/>
    </contour>
    <contour>
      <point x="290" y="380" type="curve" smooth="yes"/>
      <point x="310" y="380" type="line" smooth="yes"/>
      <point x="362.075" y="380"/>
      <point x="400" y="417.925"/>
      <point x="400" y="470" type="curve" smooth="yes"/>
      <point x="400" y="522.203"/>
      <point x="362.203" y="560"/>
      <point x="310" y="560" type="curve" smooth="yes"/>
      <point x="290" y="560" type="line" smooth="yes"/>
      <point x="237.797" y="560"/>
      <point x="200" y="522.203"/>
      <point x="200" y="470" type="curve" smooth="yes"/>
      <point x="200" y="417.925"/>
      <point x="237.925" y="380"/>
    </contour>
  </outline>
</glyph>
<glyph name="semicolon" format="2">
  <advance width="600" height="985"/>
  <unicode hex="003B"/>
  <outline>
    <contour>
      <point x="145" y="-160" type="line"/>
      <point x="275" y="-160" type="line"/>
      <point x="405" y="151" type="line"/>
      <point x="225" y="151" type="line"/>
    </contour>
    <contour>
      <point x="290" y="380" type="curve" smooth="yes"/>
      <point x="310" y="380" type="line" smooth="yes"/>
      <point x="362.075" y="380"/>
      <point x="400" y="417.925"/>
      <point x="400" y="470" type="curve" smooth="yes"/>
      <point x="400" y="522.203"/>
      <point x="362.203" y="560"/>
      <point x="310" y="560" type="curve" smooth="yes"/>
      <point x="290" y="560" type="line" smooth="yes"/>
      <point x="237.797" y="560"/>
      <point x="200" y="522.203"/>
      <point x="200" y="470" type="curve" smooth="yes"/>
      <point x="200" y="417.925"/>
      <point x="237.925" y="380"/>
    </contour>
  </outline>
</glyph>
<glyph name="greater" format="2">
  <advance width="600" height="985"/>
  <unicode hex="003E"/>
  <outline>
    <contour>
      <point x="70" y="59" type="line"/>
      <point x="530" y="258" type="line"/>
      <point x="530" y="401" type="line"/>
      <point x="70" y="599" type="line"/>
      <point x="70" y="462" type="line"/>
      <point x="346" y="350" type="line" smooth="yes"/>
      <point x="384" y="335"/>
      <point x="437" y="332"/>
      <point x="437" y="332" type="curve"/>
      <point x="437" y="322" type="line"/>
      <point x="437" y="322"/>
      <point x="385" y="323"/>
      <point x="346" y="307" type="curve" smooth="yes"/>
      <point x="70" y="195" type="line"/>
    </contour>
  </outline>
</glyph>
<glyph name="A" format="2">
  <advance width="600" height="985"/>
  <unicode hex="0041"/>
  <outline>
    <contour>
      <point x="10" y="0" type="line"/>
      <point x="161" y="0" type="line" name="ab02"/>
      <point x="199" y="165" type="line"/>
      <point x="400" y="165" type="line" name="dv01"/>
      <point x="438" y="0" type="line"/>
      <point x="590" y="0" type="line" name="ab01"/>
      <point x="402" y="720" type="line"/>
      <point x="202" y="720" type="line" name="at01"/>
    </contour>
    <contour>
      <point x="226" y="282" type="line"/>
      <point x="280" y="519" type="line" smooth="yes"/>
      <point x="289" y="559"/>
      <point x="296" y="620"/>
      <point x="296" y="620" type="curve"/>
      <point x="302" y="620" type="line"/>
      <point x="302" y="620"/>
      <point x="308" y="559"/>
      <point x="317" y="519" type="curve" smooth="yes"/>
      <point x="372" y="282" type="line" name="dv02"/>
    </contour>
  </outline>
</glyph>
<glyph name="B" format="2">
  <advance width="600" height="985"/>
  <unicode hex="0042"/>
  <outline>
    <contour>
      <point x="63" y="0" type="line"/>
      <point x="310" y="0" type="line" smooth="yes" name="ab01"/>
      <point x="463" y="0"/>
      <point x="560" y="81"/>
      <point x="560" y="209" type="curve" smooth="yes" name="sh02"/>
      <point x="560" y="302"/>
      <point x="501" y="364"/>
      <point x="406" y="370" type="curve"/>
      <point x="406" y="381" type="line" name="sh01"/>
      <point x="494" y="389"/>
      <point x="547" y="447"/>
      <point x="547" y="536" type="curve" smooth="yes" name="dh03"/>
      <point x="547" y="649"/>
      <point x="453" y="720"/>
      <point x="304" y="720" type="curve" smooth="yes"/>
      <point x="63" y="720" type="line" name="at01"/>
    </contour>
    <contour>
      <point x="208" y="120" type="line" name="sv01"/>
      <point x="208" y="313" type="line" name="sh03"/>
      <point x="304" y="313" type="line" smooth="yes" name="dv01"/>
      <point x="370" y="313"/>
      <point x="409" y="277"/>
      <point x="409" y="216" type="curve" smooth="yes" name="ih01"/>
      <point x="409" y="155"/>
      <point x="370" y="120"/>
      <point x="304" y="120" type="curve" smooth="yes"/>
    </contour>
    <contour>
      <point x="208" y="433" type="line"/>
      <point x="208" y="600" type="line" name="dh01"/>
      <point x="302" y="600" type="line" smooth="yes" name="sv02"/>
      <point x="360" y="600"/>
      <point x="396" y="568"/>
      <point x="396" y="517.349" type="curve" smooth="yes" name="dh02"/>
      <point x="396" y="466"/>
      <point x="359" y="433"/>
      <point x="302" y="433" type="curve" smooth="yes" name="dv02"/>
    </contour>
  </outline>
</glyph>
<glyph name="C" format="2">
  <advance width="600" height="985"/>
  <unicode hex="0043"/>
  <outline>
    <contour>
      <point x="304" y="-10" type="curve" smooth="yes" name="ab01"/>
      <point x="454.6" y="-10"/>
      <point x="555" y="80"/>
      <point x="555" y="215" type="curve" name="sv01"/>
      <point x="405" y="215" type="line" name="ah01"/>
      <point x="405" y="158.47"/>
      <point x="367.439" y="125"/>
      <point x="304" y="125" type="curve" smooth="yes" name="sv02"/>
      <point x="240.178" y="125"/>
      <point x="203" y="158.129"/>
      <point x="203" y="215" type="curve" smooth="yes"/>
      <point x="203" y="505" type="line" smooth="yes" name="sh02"/>
      <point x="203" y="561.575"/>
      <point x="241.2" y="595"/>
      <point x="305" y="595" type="curve" smooth="yes" name="sv03"/>
      <point x="367.853" y="595"/>
      <point x="405" y="561.568"/>
      <point x="405" y="505" type="curve" name="sv04"/>
      <point x="555" y="505" type="line" name="sh03"/>
      <point x="555" y="640"/>
      <point x="455" y="730"/>
      <point x="305" y="730" type="curve" smooth="yes" name="at01"/>
      <point x="153.8" y="730"/>
      <point x="53" y="640"/>
      <point x="53" y="505" type="curve" smooth="yes" name="sh01"/>
      <point x="53" y="215" type="line" smooth="yes"/>
      <point x="53" y="80"/>
      <point x="153.4" y="-10"/>
    </contour>
  </outline>
</glyph>
<glyph name="F" format="2">
  <advance width="600" height="985"/>
  <unicode hex="0046"/>
  <outline>
    <contour>
      <point x="70" y="0" type="line" name="dh01"/>
      <point x="220" y="0" type="line" name="ab01"/>
      <point x="220" y="288" type="line" name="dh02"/>
      <point x="514" y="288" type="line" name="dv01"/>
      <point x="514" y="428" type="line" name="dv02"/>
      <point x="218" y="428" type="line"/>
      <point x="218" y="580" type="line" name="sh01"/>
      <point x="540" y="580" type="line" name="sv01"/>
      <point x="540" y="720" type="line"/>
      <point x="70" y="720" type="line" name="at01"/>
    </contour>
  </outline>
</glyph>
<glyph name="H" format="2">
  <advance width="600" height="750"/>
  <unicode hex="0048"/>
  <outline>
    <contour>
      <point x="65" y="0" type="line" name="ab01"/>
      <point x="215" y="0" type="line" name="sh02"/>
      <point x="215" y="304" type="line" name="dv01"/>
      <point x="385" y="304" type="line" name="sh03"/>
      <point x="385" y="0" type="line" name="ab02"/>
      <point x="535" y="0" type="line"/>
      <point x="535" y="720" type="line" name="sh04"/>
      <point x="385" y="720" type="line" name="at01"/>
      <point x="385" y="444" type="line"/>
      <point x="215" y="444" type="line" name="dv02"/>
      <point x="215" y="720" type="line" name="at02"/>
      <point x="65" y="720" type="line" name="sh01"/>
    </contour>
  </outline>
</glyph>
<glyph name="I" format="2">
  <advance width="600" height="985"/>
  <unicode hex="0049"/>
  <outline>
    <contour>
      <point x="75" y="0" type="line"/>
      <point x="525" y="0" type="line" name="ab01"/>
      <point x="525" y="130" type="line"/>
      <point x="375" y="130" type="line" name="sv02"/>
      <point x="375" y="590" type="line"/>
      <point x="525" y="590" type="line" name="sv01"/>
      <point x="525" y="720" type="line"/>
      <point x="75" y="720" type="line" name="at01"/>
      <point x="75" y="590" type="line" name="sv06"/>
      <point x="225" y="590" type="line" name="sv05"/>
      <point x="225" y="130" type="line" name="sv04"/>
      <point x="75" y="130" type="line" name="sv03"/>
    </contour>
  </outline>
</glyph>
<glyph name="L" format="2">
  <advance width="600" height="985"/>
  <unicode hex="004C"/>
  <outline>
    <contour>
      <point x="95" y="0" type="line" name="dh01"/>
      <point x="540" y="0" type="line" name="ab01"/>
      <point x="540" y="140" type="line"/>
      <point x="245" y="140" type="line" name="sv01"/>
      <point x="245" y="720" type="line" name="at01"/>
      <point x="95" y="720" type="line"/>
    </contour>
  </outline>
</glyph>
<glyph name="M" format="2">
  <advance width="600"/>
  <unicode hex="004D"/>
  <outline>
    <contour>
      <point x="40" y="0" type="line"/>
      <point x="173" y="0" type="line" name="ab02"/>
      <point x="173" y="440" type="line" smooth="yes" name="sh02"/>
      <point x="173" y="513"/>
      <point x="153" y="625"/>
      <point x="153" y="625" type="curve"/>
      <point x="167" y="625" type="line" name="sh03"/>
      <point x="167" y="625"/>
      <point x="188" y="514"/>
      <point x="199" y="475" type="curve" smooth="yes"/>
      <point x="247" y="305" type="line"/>
      <point x="355" y="305" type="line"/>
      <point x="398" y="475" type="line" smooth="yes"/>
      <point x="408" y="515"/>
      <point x="431" y="625"/>
      <point x="431" y="625" type="curve" name="sh01"/>
      <point x="446" y="625" type="line"/>
      <point x="446" y="625"/>
      <point x="427" y="513"/>
      <point x="427" y="440" type="curve" smooth="yes"/>
      <point x="427" y="0" type="line" name="ah01"/>
      <point x="560" y="0" type="line" name="ab01"/>
      <point x="560" y="720" type="line"/>
      <point x="383" y="720" type="line" name="at02"/>
      <point x="323" y="492" type="line" smooth="yes"/>
      <point x="312" y="452"/>
      <point x="307" y="385"/>
      <point x="307" y="385" type="curve"/>
      <point x="299" y="385" type="line"/>
      <point x="299" y="385"/>
      <point x="293" y="452"/>
      <point x="282" y="492" type="curve" smooth="yes"/>
      <point x="217" y="720" type="line"/>
      <point x="40" y="720" type="line" name="at01"/>
    </contour>
  </outline>
</glyph>
<glyph name="P" format="2">
  <advance width="600" height="985"/>
  <unicode hex="0050"/>
  <outline>
    <contour>
      <point x="65" y="0" type="line" name="sh01"/>
      <point x="215" y="0" type="line" name="ab01"/>
      <point x="215" y="270" type="line"/>
      <point x="315" y="270" type="line" smooth="yes" name="dv01"/>
      <point x="471" y="270"/>
      <point x="570" y="358"/>
      <point x="570" y="495" type="curve" smooth="yes" name="sh02"/>
      <point x="570" y="633"/>
      <point x="471" y="720"/>
      <point x="315" y="720" type="curve" smooth="yes"/>
      <point x="65" y="720" type="line" name="at01"/>
    </contour>
    <contour>
      <point x="215" y="395" type="line"/>
      <point x="215" y="595" type="line" name="sh03"/>
      <point x="315" y="595" type="line" smooth="yes" name="sv01"/>
      <point x="381" y="595"/>
      <point x="420" y="555"/>
      <point x="420" y="495" type="curve" smooth="yes" name="ah01"/>
      <point x="420" y="435"/>
      <point x="381" y="395"/>
      <point x="315" y="395" type="curve" smooth="yes" name="dv02"/>
    </contour>
  </outline>
</glyph>
<glyph name="Q" format="2">
  <advance width="600" height="985"/>
  <unicode hex="0051"/>
  <outline>
    <contour>
      <point x="400" y="-165" type="line" name="sh03"/>
      <point x="556" y="-165" type="line" name="av01"/>
      <point x="434" y="20" type="line"/>
      <point x="507" y="57"/>
      <point x="552" y="126"/>
      <point x="552" y="215" type="curve" smooth="yes" name="sh02"/>
      <point x="552" y="506" type="line" smooth="yes"/>
      <point x="552" y="641"/>
      <point x="452" y="730"/>
      <point x="300" y="730" type="curve" smooth="yes" name="at01"/>
      <point x="148" y="730"/>
      <point x="48" y="641"/>
      <point x="48" y="506" type="curve" smooth="yes"/>
      <point x="48" y="215" type="line" smooth="yes" name="sh01"/>
      <point x="48" y="80"/>
      <point x="147" y="-9"/>
      <point x="298" y="-10" type="curve" name="ab02"/>
      <point x="306" y="-10"/>
      <point x="319" y="-9"/>
      <point x="319" y="-9" type="curve" name="ab01"/>
      <point x="288" y="4" type="line" name="iv01"/>
    </contour>
    <contour>
      <point x="300" y="121" type="curve" smooth="yes" name="sv01"/>
      <point x="238" y="121"/>
      <point x="198" y="158"/>
      <point x="198" y="215" type="curve" smooth="yes" name="sh04"/>
      <point x="198" y="506" type="line" smooth="yes"/>
      <point x="198" y="563"/>
      <point x="238" y="600"/>
      <point x="300" y="600" type="curve" smooth="yes" name="sv02"/>
      <point x="362" y="600"/>
      <point x="402" y="563"/>
      <point x="402" y="506" type="curve" smooth="yes"/>
      <point x="402" y="215" type="line" smooth="yes" name="ah01"/>
      <point x="402" y="158"/>
      <point x="362" y="121"/>
    </contour>
  </outline>
  <guideline angle="0" x="0" y="286"/>
</glyph>
<glyph name="R" format="2">
  <advance width="600" height="985"/>
  <unicode hex="0052"/>
  <outline>
    <contour>
      <point x="65" y="0" type="line"/>
      <point x="214" y="0" type="line" name="ab02"/>
      <point x="214" y="280" type="line" name="sh04"/>
      <point x="288" y="280" type="line" name="dv01"/>
      <point x="410" y="0" type="line" name="sh02"/>
      <point x="570" y="0" type="line" name="ab01"/>
      <point x="432" y="304" type="line"/>
      <point x="512" y="338"/>
      <point x="560" y="407"/>
      <point x="560" y="500" type="curve" smooth="yes" name="sh01"/>
      <point x="560" y="635"/>
      <point x="461" y="720"/>
      <point x="305" y="720" type="curve" smooth="yes"/>
      <point x="65" y="720" type="line" name="at01"/>
    </contour>
    <contour>
      <point x="214" y="395" type="line"/>
      <point x="214" y="595" type="line" name="sh03"/>
      <point x="305" y="595" type="line" smooth="yes" name="sv01"/>
      <point x="370.02" y="595"/>
      <point x="410" y="555.995"/>
      <point x="410" y="493" type="curve" smooth="yes" name="ah01"/>
      <point x="410" y="432"/>
      <point x="370" y="395"/>
      <point x="305" y="395" type="curve" smooth="yes" name="dv02"/>
    </contour>
  </outline>
</glyph>
<glyph name="U" format="2">
  <advance width="600" height="985"/>
  <unicode hex="0055"/>
  <outline>
    <contour>
      <point x="300" y="-10" type="curve" smooth="yes" name="ab01"/>
      <point x="448" y="-10"/>
      <point x="540" y="76"/>
      <point x="540" y="214" type="curve" smooth="yes"/>
      <point x="540" y="720" type="line" name="at02"/>
      <point x="390" y="720" type="line" name="ah01"/>
      <point x="390" y="215" type="line" smooth="yes"/>
      <point x="390" y="154"/>
      <point x="356" y="120"/>
      <point x="300" y="120" type="curve" smooth="yes" name="sv01"/>
      <point x="243" y="120"/>
      <point x="210" y="154"/>
      <point x="210" y="215" type="curve" smooth="yes"/>
      <point x="210" y="720" type="line" name="at01"/>
      <point x="60" y="720" type="line" name="sh01"/>
      <point x="60" y="214" type="line" smooth="yes"/>
      <point x="60" y="75"/>
      <point x="152" y="-10"/>
    </contour>
  </outline>
</glyph>
<glyph name="V" format="2">
  <advance width="600" height="985"/>
  <unicode hex="0056"/>
  <outline>
    <contour>
      <point x="198" y="0" type="line"/>
      <point x="398" y="0" type="line" name="ab01"/>
      <point x="590" y="720" type="line"/>
      <point x="439" y="720" type="line" name="at01"/>
      <point x="320" y="201" type="line" smooth="yes"/>
      <point x="311" y="161"/>
      <point x="304" y="100"/>
      <point x="304" y="100" type="curve"/>
      <point x="298" y="100" type="line"/>
      <point x="298" y="100"/>
      <point x="292" y="161"/>
      <point x="283" y="201" type="curve" smooth="yes"/>
      <point x="162" y="720" type="line"/>
      <point x="10" y="720" type="line" name="at02"/>
    </contour>
  </outline>
</glyph>
<glyph name="W" format="2">
  <advance width="600" height="985"/>
  <unicode hex="0057"/>
  <outline>
    <contour>
      <point x="78" y="0" type="line"/>
      <point x="235" y="0" type="line" name="ab02"/>
      <point x="289" y="475" type="line" smooth="yes"/>
      <point x="294" y="522"/>
      <point x="294" y="630"/>
      <point x="294" y="630" type="curve"/>
      <point x="308" y="630" type="line"/>
      <point x="308" y="630"/>
      <point x="307" y="522"/>
      <point x="312" y="475" type="curve" smooth="yes"/>
      <point x="361" y="0" type="line"/>
      <point x="517" y="0" type="line" name="ab01"/>
      <point x="590" y="720" type="line"/>
      <point x="466" y="720" type="line" name="at02"/>
      <point x="432" y="242" type="line" smooth="yes"/>
      <point x="429" y="202"/>
      <point x="431" y="100"/>
      <point x="431" y="100" type="curve"/>
      <point x="418" y="100" type="line"/>
      <point x="418" y="100"/>
      <point x="414" y="202"/>
      <point x="410" y="242" type="curve" smooth="yes"/>
      <point x="358" y="720" type="line" name="at01"/>
      <point x="244" y="720" type="line"/>
      <point x="190" y="242" type="line" smooth="yes"/>
      <point x="185" y="202"/>
      <point x="184" y="100"/>
      <point x="184" y="100" type="curve"/>
      <point x="171" y="100" type="line"/>
      <point x="171" y="100"/>
      <point x="173" y="202"/>
      <point x="170" y="242" type="curve" smooth="yes"/>
      <point x="133" y="720" type="line"/>
      <point x="10" y="720" type="line" name="at03"/>
    </contour>
  </outline>
</glyph>
<glyph name="X" format="2">
  <advance width="600" height="985"/>
  <unicode hex="0058"/>
  <outline>
    <contour>
      <point x="20" y="0" type="line" name="ab01"/>
      <point x="181" y="0" type="line"/>
      <point x="271" y="179" type="line" smooth="yes"/>
      <point x="292" y="220"/>
      <point x="296" y="242"/>
      <point x="296" y="242" type="curve"/>
      <point x="301" y="242" type="line"/>
      <point x="301" y="242"/>
      <point x="305" y="220"/>
      <point x="326" y="178" type="curve" smooth="yes"/>
      <point x="415" y="0" type="line"/>
      <point x="580" y="0" type="line" name="ab02"/>
      <point x="384" y="372" type="line"/>
      <point x="567" y="720" type="line"/>
      <point x="406" y="720" type="line" name="at02"/>
      <point x="326" y="561" type="line" smooth="yes"/>
      <point x="307" y="523"/>
      <point x="304" y="502"/>
      <point x="304" y="502" type="curve"/>
      <point x="299" y="502" type="line"/>
      <point x="299" y="502"/>
      <point x="295" y="523"/>
      <point x="275" y="564" type="curve" smooth="yes"/>
      <point x="198" y="720" type="line"/>
      <point x="33" y="720" type="line" name="at01"/>
      <point x="216" y="372" type="line"/>
    </contour>
  </outline>
</glyph>
<glyph name="Y" format="2">
  <advance width="600" height="985"/>
  <unicode hex="0059"/>
  <outline>
    <contour>
      <point x="225" y="0" type="line" name="dh01"/>
      <point x="375" y="0" type="line" name="ab01"/>
      <point x="375" y="250" type="line"/>
      <point x="585" y="720" type="line"/>
      <point x="429" y="720" type="line" name="at01"/>
      <point x="326" y="465" type="line" smooth="yes"/>
      <point x="307" y="419"/>
      <point x="306" y="375"/>
      <point x="306" y="375" type="curve"/>
      <point x="299" y="375" type="line"/>
      <point x="299" y="375"/>
      <point x="298" y="419"/>
      <point x="279" y="465" type="curve" smooth="yes"/>
      <point x="172" y="720" type="line"/>
      <point x="15" y="720" type="line" name="at02"/>
      <point x="225" y="250" type="line"/>
    </contour>
  </outline>
</glyph>
<glyph name="Z" format="2">
  <advance width="600" height="985"/>
  <unicode hex="005A"/>
  <outline>
    <contour>
      <point x="75" y="0" type="line"/>
      <point x="525" y="0" type="line" name="ab01"/>
      <point x="525" y="139" type="line" name="sv02"/>
      <point x="311" y="139" type="line"/>
      <point x="240" y="134" type="line" name="sv01"/>
      <point x="240" y="136" type="line"/>
      <point x="514" y="579" type="line"/>
      <point x="514" y="720" type="line" name="at01"/>
      <point x="83" y="720" type="line"/>
      <point x="83" y="581" type="line" name="sv04"/>
      <point x="275" y="581" type="line"/>
      <point x="348" y="585" type="line" name="sv03"/>
      <point x="348" y="583" type="line"/>
      <point x="75" y="140" type="line"/>
    </contour>
  </outline>
</glyph>
<glyph name="asciicircum" format="2">
  <advance width="600" height="985"/>
  <unicode hex="005E"/>
  <outline>
    <contour>
      <point x="307" y="616" type="curve"/>
      <point x="295" y="616" type="line"/>
      <point x="295" y="616"/>
      <point x="296" y="581"/>
      <point x="285" y="551" type="curve" smooth="yes"/>
      <point x="201" y="330" type="line"/>
      <point x="60" y="330" type="line"/>
      <point x="228" y="720" type="line"/>
      <point x="374" y="720" type="line"/>
      <point x="540" y="330" type="line"/>
      <point x="398" y="330" type="line"/>
      <point x="317" y="551" type="line" smooth="yes"/>
      <point x="306" y="581"/>
      <point x="307" y="616"/>
    </contour>
  </outline>
</glyph>
<glyph name="a" format="2">
  <advance width="600" height="985"/>
  <unicode hex="0061"/>
  <outline>
    <contour>
      <point x="222" y="-10" type="curve" smooth="yes" name="ab01"/>
      <point x="310.176" y="-10"/>
      <point x="372.748" y="36.3495"/>
      <point x="384" y="110" type="curve" name="sv04"/>
      <point x="393" y="110" type="line" name="sv03"/>
      <point x="393" y="0" type="line" name="ah01"/>
      <point x="536" y="0" type="line" name="sh01"/>
      <point x="536" y="370" type="line" smooth="yes"/>
      <point x="536" y="484"/>
      <point x="439.6" y="560"/>
      <point x="295" y="560" type="curve" smooth="yes" name="at01"/>
      <point x="166.314" y="560"/>
      <point x="70.0564" y="487.406"/>
      <point x="55" y="379" type="curve"/>
      <point x="200" y="379" type="line" name="sv06"/>
      <point x="209.449" y="417.65"/>
      <point x="244.767" y="440"/>
      <point x="296.709" y="440" type="curve" smooth="yes" name="sv05"/>
      <point x="353" y="440"/>
      <point x="386" y="413.75"/>
      <point x="386" y="370" type="curve" smooth="yes"/>
      <point x="386" y="324" type="line" name="dv02"/>
      <point x="267" y="324" type="line" smooth="yes"/>
      <point x="134.465" y="324"/>
      <point x="46" y="253.696"/>
      <point x="46" y="146.872" type="curve" smooth="yes" name="sh02"/>
      <point x="46" y="52.2043"/>
      <point x="115.788" y="-10"/>
    </contour>
    <contour>
      <point x="283" y="100" type="curve" smooth="yes" name="sv02"/>
      <point x="228.018" y="100"/>
      <point x="196" y="125.025"/>
      <point x="196" y="168" type="curve" smooth="yes" name="sh03"/>
      <point x="196" y="213.102"/>
      <point x="224.281" y="239"/>
      <point x="270" y="239" type="curve" smooth="yes"/>
      <point x="386" y="239" type="line" name="dv01"/>
      <point x="386" y="185" type="line" smooth="yes" name="sh04"/>
      <point x="386" y="131.577"/>
      <point x="347.736" y="100"/>
    </contour>
  </outline>
</glyph>
<glyph name="c" format="2">
  <advance width="600" height="985"/>
  <unicode hex="0063"/>
  <outline>
    <contour>
      <point x="305" y="-10" type="curve" smooth="yes" name="ab01"/>
      <point x="438" y="-10"/>
      <point x="538" y="68"/>
      <point x="559" y="191" type="curve" name="sv01"/>
      <point x="409" y="191" type="line"/>
      <point x="399" y="148"/>
      <point x="358" y="120"/>
      <point x="305" y="120" type="curve" smooth="yes" name="sv02"/>
      <point x="241" y="120"/>
      <point x="203" y="151"/>
      <point x="203" y="204" type="curve" smooth="yes"/>
      <point x="203" y="345" type="line" smooth="yes"/>
      <point x="203" y="398"/>
      <point x="241" y="430"/>
      <point x="305" y="430" type="curve" smooth="yes" name="sv03"/>
      <point x="359" y="430"/>
      <point x="400" y="402"/>
      <point x="409" y="360" type="curve" name="sv04"/>
      <point x="559" y="360" type="line"/>
      <point x="538" y="482"/>
      <point x="438" y="560"/>
      <point x="305" y="560" type="curve" smooth="yes" name="at01"/>
      <point x="153" y="560"/>
      <point x="53" y="475"/>
      <point x="53" y="345" type="curve" smooth="yes"/>
      <point x="53" y="204" type="line" smooth="yes"/>
      <point x="53" y="74"/>
      <point x="152" y="-10"/>
    </contour>
  </outline>
</glyph>
<glyph name="g" format="2">
  <advance width="600" height="985"/>
  <unicode hex="0067"/>
  <outline>
    <contour>
      <point x="145" y="-170" type="line" name="ab01"/>
      <point x="300" y="-170" type="line" smooth="yes"/>
      <point x="442" y="-170"/>
      <point x="537" y="-90"/>
      <point x="537" y="29" type="curve" smooth="yes"/>
      <point x="537" y="550" type="line"/>
      <point x="392" y="550" type="line"/>
      <point x="392" y="450" type="line"/>
      <point x="385" y="450" type="line"/>
      <point x="378" y="516"/>
      <point x="322" y="560"/>
      <point x="239" y="560" type="curve" smooth="yes" name="at01"/>
      <point x="123" y="560"/>
      <point x="48" y="474"/>
      <point x="48" y="345" type="curve" smooth="yes"/>
      <point x="48" y="250" type="line" smooth="yes"/>
      <point x="48" y="121"/>
      <point x="123" y="35"/>
      <point x="238" y="35" type="curve" smooth="yes" name="dv01"/>
      <point x="321" y="35"/>
      <point x="377" y="79"/>
      <point x="385" y="145" type="curve"/>
      <point x="392" y="145" type="line"/>
      <point x="387" y="35" type="line"/>
      <point x="387" y="29" type="line" smooth="yes"/>
      <point x="387" y="-18"/>
      <point x="352" y="-50"/>
      <point x="300" y="-50" type="curve" smooth="yes" name="sv01"/>
      <point x="145" y="-50" type="line"/>
    </contour>
    <contour>
      <point x="292" y="165" type="curve" smooth="yes" name="dv02"/>
      <point x="235" y="165"/>
      <point x="198" y="200"/>
      <point x="198" y="255" type="curve" smooth="yes"/>
      <point x="198" y="340" type="line" smooth="yes"/>
      <point x="198" y="395"/>
      <point x="235" y="430"/>
      <point x="292" y="430" type="curve" smooth="yes" name="sv02"/>
      <point x="349" y="430"/>
      <point x="387" y="394"/>
      <point x="387" y="340" type="curve" smooth="yes"/>
      <point x="387" y="255" type="line" smooth="yes"/>
      <point x="387" y="201"/>
      <point x="349" y="165"/>
    </contour>
  </outline>
</glyph>
<glyph name="h" format="2">
  <advance width="600" height="985"/>
  <unicode hex="0068"/>
  <outline>
    <contour>
      <point x="61" y="0" type="line"/>
      <point x="211" y="0" type="line" name="ab02"/>
      <point x="211" y="340" type="line" smooth="yes" name="sh03"/>
      <point x="211" y="395"/>
      <point x="245" y="430"/>
      <point x="298" y="430" type="curve" smooth="yes" name="sv01"/>
      <point x="351" y="430"/>
      <point x="385" y="395"/>
      <point x="385" y="340" type="curve" smooth="yes"/>
      <point x="385" y="0" type="line" name="ah01"/>
      <point x="535" y="0" type="line" name="ab01"/>
      <point x="535" y="355" type="line" smooth="yes"/>
      <point x="535" y="481"/>
      <point x="465" y="560"/>
      <point x="354" y="560" type="curve" smooth="yes" name="at02"/>
      <point x="274" y="560"/>
      <point x="222" y="521"/>
      <point x="213" y="455" type="curve" name="sh02"/>
      <point x="202" y="455" type="line"/>
      <point x="201" y="455"/>
      <point x="211" y="509"/>
      <point x="211" y="550" type="curve" smooth="yes"/>
      <point x="211" y="720" type="line" name="sh01"/>
      <point x="61" y="720" type="line" name="at01"/>
    </contour>
  </outline>
</glyph>
<glyph name="j" format="2">
  <advance width="600" height="985"/>
  <unicode hex="006A"/>
  <outline>
    <contour>
      <point x="80" y="-170" type="line" name="ab01"/>
      <point x="251" y="-170" type="line" smooth="yes"/>
      <point x="385" y="-170"/>
      <point x="475" y="-80"/>
      <point x="475" y="55" type="curve" smooth="yes"/>
      <point x="475" y="550" type="line" name="at01"/>
      <point x="110" y="550" type="line"/>
      <point x="110" y="410" type="line" name="sv02"/>
      <point x="325" y="410" type="line"/>
      <point x="325" y="55" type="line" smooth="yes" name="sh01"/>
      <point x="325" y="4"/>
      <point x="291" y="-30"/>
      <point x="240" y="-30" type="curve" smooth="yes" name="sv01"/>
      <point x="80" y="-30" type="line"/>
    </contour>
    <contour>
      <point x="390" y="625" type="curve" smooth="yes" name="dv01"/>
      <point x="409" y="625" type="line" smooth="yes"/>
      <point x="455" y="625"/>
      <point x="485" y="652"/>
      <point x="485" y="694.5" type="curve" smooth="yes"/>
      <point x="485" y="737"/>
      <point x="455" y="765"/>
      <point x="410" y="765" type="curve" smooth="yes"/>
      <point x="390" y="765" type="line" smooth="yes" name="dv02"/>
      <point x="345" y="765"/>
      <point x="315" y="737"/>
      <point x="315" y="695" type="curve" smooth="yes" name="dh01"/>
      <point x="315" y="653"/>
      <point x="345" y="625"/>
    </contour>
  </outline>
</glyph>
<glyph name="k" format="2">
  <advance width="600" height="985"/>
  <unicode hex="006B"/>
  <outline>
    <contour>
      <point x="70" y="0" type="line" name="dh01"/>
      <point x="220" y="0" type="line" name="ab02"/>
      <point x="220" y="216" type="line"/>
      <point x="293" y="216" type="line" name="dv01"/>
      <point x="409" y="0" type="line"/>
      <point x="579" y="0" type="line" name="ab01"/>
      <point x="423" y="281" type="line"/>
      <point x="576" y="550" type="line" name="iv01"/>
      <point x="409" y="550" type="line"/>
      <point x="294" y="342" type="line" name="dv02"/>
      <point x="220" y="342" type="line"/>
      <point x="220" y="720" type="line" name="at01"/>
      <point x="70" y="720" type="line"/>
    </contour>
  </outline>
</glyph>
<glyph name="l" format="2">
  <advance width="600" height="985"/>
  <unicode hex="006C"/>
  <outline>
    <contour>
      <point x="390" y="0" type="curve" smooth="yes" name="ab01"/>
      <point x="565" y="0" type="line"/>
      <point x="565" y="135" type="line" name="sv02"/>
      <point x="405" y="135" type="line" smooth="yes"/>
      <point x="369" y="135"/>
      <point x="345" y="159"/>
      <point x="345" y="195" type="curve" smooth="yes"/>
      <point x="345" y="720" type="line"/>
      <point x="25" y="720" type="line" name="at01"/>
      <point x="25" y="585" type="line" name="sv01"/>
      <point x="195" y="585" type="line"/>
      <point x="195" y="195" type="line" smooth="yes"/>
      <point x="195" y="78"/>
      <point x="273" y="0"/>
    </contour>
  </outline>
</glyph>
<glyph name="o" format="2">
  <advance width="600" height="985"/>
  <unicode hex="006F"/>
  <outline>
    <contour>
      <point x="300" y="121" type="curve" smooth="yes" name="sv02"/>
      <point x="238" y="121"/>
      <point x="198" y="156"/>
      <point x="198" y="210" type="curve" smooth="yes" name="sh02"/>
      <point x="198" y="341" type="line" smooth="yes"/>
      <point x="198" y="395"/>
      <point x="238" y="430"/>
      <point x="300" y="430" type="curve" smooth="yes" name="sv01"/>
      <point x="362" y="430"/>
      <point x="402" y="395"/>
      <point x="402" y="341" type="curve" smooth="yes" name="ah01"/>
      <point x="402" y="210" type="line" smooth="yes"/>
      <point x="402" y="156"/>
      <point x="362" y="121"/>
    </contour>
    <contour>
      <point x="300" y="-10" type="curve" smooth="yes" name="ab01"/>
      <point x="451" y="-10"/>
      <point x="552" y="81"/>
      <point x="552" y="210" type="curve" smooth="yes"/>
      <point x="552" y="341" type="line" smooth="yes" name="sh03"/>
      <point x="552" y="470"/>
      <point x="451" y="560"/>
      <point x="300" y="560" type="curve" smooth="yes" name="at01"/>
      <point x="149" y="560"/>
      <point x="48" y="470"/>
      <point x="48" y="341" type="curve" smooth="yes"/>
      <point x="48" y="210" type="line" smooth="yes" name="sh01"/>
      <point x="48" y="81"/>
      <point x="149" y="-10"/>
    </contour>
  </outline>
</glyph>
<glyph name="p" format="2">
  <advance width="600" height="985"/>
  <unicode hex="0070"/>
  <outline>
    <contour>
      <point x="63" y="-170" type="line"/>
      <point x="213" y="-170" type="line" name="ab01"/>
      <point x="213" y="0" type="line" smooth="yes" name="sh04"/>
      <point x="213" y="42"/>
      <point x="209" y="85"/>
      <point x="208" y="96" type="curve" name="sh03"/>
      <point x="218" y="96" type="line" name="sh06"/>
      <point x="228" y="30"/>
      <point x="282" y="-10"/>
      <point x="360" y="-10" type="curve" smooth="yes" name="ab02"/>
      <point x="476" y="-10"/>
      <point x="552" y="75"/>
      <point x="552" y="210" type="curve" smooth="yes" name="sh05"/>
      <point x="552" y="345" type="line" smooth="yes"/>
      <point x="552" y="476"/>
      <point x="476" y="560"/>
      <point x="360" y="560" type="curve" smooth="yes" name="at01"/>
      <point x="282" y="560"/>
      <point x="228" y="520"/>
      <point x="218" y="455" type="curve" name="sh09"/>
      <point x="208" y="455" type="line" name="sh02"/>
      <point x="208" y="550" type="line"/>
      <point x="63" y="550" type="line" name="sh01"/>
    </contour>
    <contour>
      <point x="308" y="121" type="curve" smooth="yes" name="sv01"/>
      <point x="249" y="121"/>
      <point x="213" y="158"/>
      <point x="213" y="210" type="curve" smooth="yes" name="sh07"/>
      <point x="213" y="340" type="line" smooth="yes" name="sh08"/>
      <point x="213" y="394"/>
      <point x="251" y="430"/>
      <point x="308" y="430" type="curve" smooth="yes" name="sv02"/>
      <point x="365" y="430"/>
      <point x="402" y="395"/>
      <point x="402" y="340" type="curve" smooth="yes"/>
      <point x="402" y="215" type="line" smooth="yes" name="ah01"/>
      <point x="402" y="159"/>
      <point x="367" y="121"/>
    </contour>
  </outline>
</glyph>
<glyph name="q" format="2">
  <advance width="600" height="985"/>
  <unicode hex="0071"/>
  <outline>
    <contour>
      <point x="387" y="-170" type="line" name="ab01"/>
      <point x="537" y="-170" type="line" name="sh03"/>
      <point x="537" y="550" type="line"/>
      <point x="392" y="550" type="line" name="sh04"/>
      <point x="392" y="455" type="line"/>
      <point x="382" y="455" type="line" name="sh05"/>
      <point x="372" y="520"/>
      <point x="318" y="560"/>
      <point x="240" y="560" type="curve" smooth="yes" name="at01"/>
      <point x="124" y="560"/>
      <point x="48" y="476"/>
      <point x="48" y="345" type="curve" smooth="yes" name="sh06"/>
      <point x="48" y="210" type="line" smooth="yes"/>
      <point x="48" y="75"/>
      <point x="124" y="-10"/>
      <point x="240" y="-10" type="curve" smooth="yes" name="ab02"/>
      <point x="318" y="-10"/>
      <point x="372" y="30"/>
      <point x="382" y="96" type="curve" name="sh01"/>
      <point x="392" y="96" type="line" name="sh02"/>
      <point x="391" y="85"/>
      <point x="387" y="42"/>
      <point x="387" y="0" type="curve" smooth="yes"/>
    </contour>
    <contour>
      <point x="292" y="121" type="curve" smooth="yes" name="sv02"/>
      <point x="233" y="121"/>
      <point x="198" y="159"/>
      <point x="198" y="215" type="curve" smooth="yes"/>
      <point x="198" y="340" type="line" smooth="yes" name="sh08"/>
      <point x="198" y="395"/>
      <point x="235" y="430"/>
      <point x="292" y="430" type="curve" smooth="yes" name="sv01"/>
      <point x="349" y="430"/>
      <point x="387" y="394"/>
      <point x="387" y="340" type="curve" smooth="yes" name="sh07"/>
      <point x="387" y="210" type="line" smooth="yes"/>
      <point x="387" y="158"/>
      <point x="351" y="121"/>
    </contour>
  </outline>
</glyph>
<glyph name="s" format="2">
  <advance width="600" height="985"/>
  <unicode hex="0073"/>
  <outline>
    <contour>
      <point x="274" y="-10" type="curve" smooth="yes" name="ab01"/>
      <point x="324" y="-10" type="line" smooth="yes"/>
      <point x="474" y="-10"/>
      <point x="553" y="52"/>
      <point x="553" y="164" type="curve" smooth="yes" name="sh04"/>
      <point x="553" y="267"/>
      <point x="487.041" y="316.358"/>
      <point x="348" y="332" type="curve" smooth="yes"/>
      <point x="268" y="341" type="line" smooth="yes"/>
      <point x="222.019" y="346.173"/>
      <point x="203" y="362"/>
      <point x="203" y="393.208" type="curve" smooth="yes" name="sh02"/>
      <point x="203" y="426"/>
      <point x="224" y="443"/>
      <point x="274" y="443" type="curve" smooth="yes"/>
      <point x="324" y="443" type="line" smooth="yes" name="sv04"/>
      <point x="366.989" y="443"/>
      <point x="395" y="425.246"/>
      <point x="395" y="398" type="curve"/>
      <point x="545" y="398" type="line" name="sv03"/>
      <point x="545" y="496.145"/>
      <point x="457.89" y="560"/>
      <point x="324" y="560" type="curve" smooth="yes"/>
      <point x="274" y="560" type="line" smooth="yes" name="at01"/>
      <point x="133" y="560"/>
      <point x="58" y="499"/>
      <point x="58" y="392" type="curve" smooth="yes" name="sh01"/>
      <point x="58" y="290"/>
      <point x="117.959" y="243.618"/>
      <point x="255" y="229" type="curve" smooth="yes"/>
      <point x="330" y="221" type="line" smooth="yes"/>
      <point x="383.038" y="215.343"/>
      <point x="408" y="197"/>
      <point x="408" y="163.793" type="curve" smooth="yes" name="ah01"/>
      <point x="408" y="128"/>
      <point x="379" y="107"/>
      <point x="324" y="107" type="curve" smooth="yes"/>
      <point x="274" y="107" type="line" smooth="yes" name="sv02"/>
      <point x="227.8" y="107"/>
      <point x="197" y="128.2"/>
      <point x="197" y="160" type="curve" name="sh03"/>
      <point x="47" y="160" type="line" name="sv01"/>
      <point x="47" y="58"/>
      <point x="137.8" y="-10"/>
    </contour>
  </outline>
</glyph>
<glyph name="t" format="2">
  <advance width="600" height="985"/>
  <unicode hex="0074"/>
  <outline>
    <contour>
      <point x="365" y="0" type="curve" smooth="yes"/>
      <point x="525" y="0" type="line" name="ab01"/>
      <point x="525" y="135" type="line"/>
      <point x="380" y="135" type="line" smooth="yes" name="sv01"/>
      <point x="348.5" y="135"/>
      <point x="330" y="153.5"/>
      <point x="330" y="185" type="curve" smooth="yes" name="dh02"/>
      <point x="330" y="415" type="line" name="sv04"/>
      <point x="535" y="415" type="line" name="sv03"/>
      <point x="535" y="550" type="line"/>
      <point x="330" y="550" type="line" name="at03"/>
      <point x="330" y="720" type="line" name="sh02"/>
      <point x="180" y="720" type="line" name="at01"/>
      <point x="180" y="550" type="line" name="sh01"/>
      <point x="35" y="550" type="line" name="at02"/>
      <point x="35" y="415" type="line"/>
      <point x="180" y="415" type="line" name="sv02"/>
      <point x="180" y="185" type="line" smooth="yes" name="dh01"/>
      <point x="180" y="70.7"/>
      <point x="250.7" y="0"/>
    </contour>
  </outline>
</glyph>
<glyph name="v" format="2">
  <advance width="600" height="985"/>
  <unicode hex="0076"/>
  <outline>
    <contour>
      <point x="211" y="0" type="line"/>
      <point x="391" y="0" type="line" name="ab01"/>
      <point x="580" y="550" type="line"/>
      <point x="427" y="550" type="line" name="at01"/>
      <point x="324" y="218" type="line" smooth="yes"/>
      <point x="309" y="168"/>
      <point x="310" y="116"/>
      <point x="310" y="116" type="curve"/>
      <point x="296" y="116" type="line"/>
      <point x="296" y="116"/>
      <point x="298" y="168"/>
      <point x="282" y="218" type="curve" smooth="yes"/>
      <point x="175" y="550" type="line"/>
      <point x="20" y="550" type="line" name="at02"/>
    </contour>
  </outline>
</glyph>
<glyph name="w" format="2">
  <advance width="600" height="985"/>
  <unicode hex="0077"/>
  <outline>
    <contour>
      <point x="82" y="0" type="line"/>
      <point x="239" y="0" type="line" name="ab02"/>
      <point x="290" y="330" type="line" smooth="yes"/>
      <point x="296" y="367"/>
      <point x="296" y="460"/>
      <point x="296" y="460" type="curve"/>
      <point x="308" y="460" type="line"/>
      <point x="308" y="460"/>
      <point x="308" y="367"/>
      <point x="313" y="330" type="curve" smooth="yes"/>
      <point x="361" y="0" type="line"/>
      <point x="517" y="0" type="line" name="ab01"/>
      <point x="590" y="550" type="line"/>
      <point x="471" y="550" type="line" name="at02"/>
      <point x="433" y="233" type="line" smooth="yes"/>
      <point x="427" y="183"/>
      <point x="424" y="75"/>
      <point x="424" y="75" type="curve"/>
      <point x="410" y="75" type="line"/>
      <point x="410" y="75"/>
      <point x="409" y="183"/>
      <point x="401" y="233" type="curve" smooth="yes"/>
      <point x="350" y="550" type="line" name="at01"/>
      <point x="254" y="550" type="line"/>
      <point x="203" y="233" type="line" smooth="yes"/>
      <point x="195" y="184"/>
      <point x="189" y="75"/>
      <point x="189" y="75" type="curve"/>
      <point x="175" y="75" type="line"/>
      <point x="175" y="75"/>
      <point x="175" y="184"/>
      <point x="169" y="233" type="curve" smooth="yes"/>
      <point x="131" y="550" type="line"/>
      <point x="10" y="550" type="line" name="at03"/>
    </contour>
  </outline>
</glyph>
<glyph name="z" format="2">
  <advance width="600" height="985"/>
  <unicode hex="007A"/>
  <outline>
    <contour>
      <point x="65" y="0" type="line"/>
      <point x="535" y="0" type="line" name="ab01"/>
      <point x="535" y="129" type="line"/>
      <point x="330" y="129" type="line" smooth="yes" name="sv01"/>
      <point x="290" y="129"/>
      <point x="247" y="117"/>
      <point x="247" y="117" type="curve"/>
      <point x="247" y="124" type="line"/>
      <point x="524" y="419" type="line"/>
      <point x="524" y="550" type="line"/>
      <point x="73" y="550" type="line" name="at01"/>
      <point x="73" y="421" type="line"/>
      <point x="257" y="421" type="line" smooth="yes" name="sv02"/>
      <point x="300" y="421"/>
      <point x="342" y="431"/>
      <point x="342" y="431" type="curve"/>
      <point x="342" y="425" type="line"/>
      <point x="65" y="130" type="line"/>
    </contour>
  </outline>
</glyph>
<glyph name="asciitilde" format="2">
  <advance width="600" height="985"/>
  <unicode hex="007E"/>
  <outline>
    <contour>
      <point x="410" y="250" type="curve" smooth="yes"/>
      <point x="280" y="250"/>
      <point x="262" y="350"/>
      <point x="197" y="350" type="curve" smooth="yes"/>
      <point x="175" y="350"/>
      <point x="160" y="335"/>
      <point x="160" y="312" type="curve" smooth="yes"/>
      <point x="160" y="255" type="line"/>
      <point x="50" y="255" type="line"/>
      <point x="50" y="325" type="line" smooth="yes"/>
      <point x="50" y="404"/>
      <point x="104" y="455"/>
      <point x="190" y="455" type="curve" smooth="yes"/>
      <point x="320" y="455"/>
      <point x="338" y="355"/>
      <point x="403" y="355" type="curve" smooth="yes"/>
      <point x="425" y="355"/>
      <point x="440" y="370"/>
      <point x="440" y="393" type="curve" smooth="yes"/>
      <point x="440" y="450" type="line"/>
      <point x="550" y="450" type="line"/>
      <point x="550" y="380" type="line" smooth="yes"/>
      <point x="550" y="301"/>
      <point x="496" y="250"/>
    </contour>
  </outline>
</glyph>
<glyph name="exclamdown" format="2">
  <advance width="600" height="985"/>
  <unicode hex="00A1"/>
  <outline>
    <contour>
      <point x="379" y="-165" type="line"/>
      <point x="221" y="-165" type="line"/>
      <point x="221" y="-15" type="line"/>
      <point x="244" y="310" type="line"/>
      <point x="356" y="310" type="line"/>
      <point x="379" y="-15" type="line"/>
    </contour>
    <contour>
      <point x="315" y="420" type="curve" smooth="yes"/>
      <point x="285" y="420" type="line" smooth="yes"/>
      <point x="240" y="420"/>
      <point x="210" y="448"/>
      <point x="210" y="490.5" type="curve" smooth="yes"/>
      <point x="210" y="533"/>
      <point x="240" y="560"/>
      <point x="286" y="560" type="curve" smooth="yes"/>
      <point x="315" y="560" type="line" smooth="yes"/>
      <point x="360" y="560"/>
      <point x="390" y="532"/>
      <point x="390" y="490" type="curve" smooth="yes"/>
      <point x="390" y="448"/>
      <point x="360" y="420"/>
    </contour>
  </outline>
</glyph>
<glyph name="yen" format="2">
  <advance width="600" height="985"/>
  <unicode hex="00A5"/>
  <outline>
    <contour>
      <point x="429" y="720" type="line" name="at01"/>
      <point x="585" y="720" type="line"/>
      <point x="375" y="250" type="line"/>
      <point x="375" y="0" type="line" name="ab01"/>
      <point x="225" y="0" type="line" name="dh01"/>
      <point x="225" y="250" type="line"/>
      <point x="15" y="720" type="line" name="at02"/>
      <point x="172" y="720" type="line"/>
      <point x="279" y="465" type="line" smooth="yes"/>
      <point x="298" y="419"/>
      <point x="299" y="375"/>
      <point x="299" y="375" type="curve"/>
      <point x="306" y="375" type="line"/>
      <point x="306" y="375"/>
      <point x="307" y="419"/>
      <point x="326" y="465" type="curve" smooth="yes"/>
    </contour>
    <contour>
      <point x="60" y="260" type="line"/>
      <point x="60" y="365" type="line"/>
      <point x="540" y="365" type="line"/>
      <point x="540" y="260" type="line"/>
    </contour>
    <contour>
      <point x="540" y="205" type="line"/>
      <point x="540" y="100" type="line"/>
      <point x="60" y="100" type="line"/>
      <point x="60" y="205" type="line"/>
    </contour>
  </outline>
</glyph>
<glyph name="section" format="2">
  <advance width="600" height="985"/>
  <unicode hex="00A7"/>
  <outline>
    <contour>
      <point x="45" y="-8" type="curve"/>
      <point x="195" y="-8" type="line"/>
      <point x="203" y="-35"/>
      <point x="239" y="-53"/>
      <point x="284" y="-53" type="curve" smooth="yes"/>
      <point x="314" y="-53" type="line" smooth="yes"/>
      <point x="374" y="-53"/>
      <point x="410" y="-26"/>
      <point x="410" y="13" type="curve" smooth="yes"/>
      <point x="410" y="45"/>
      <point x="386" y="66"/>
      <point x="330" y="78" type="curve" smooth="yes"/>
      <point x="237" y="98" type="line" smooth="yes"/>
      <point x="123" y="122"/>
      <point x="55" y="181"/>
      <point x="55" y="261" type="curve" smooth="yes"/>
      <point x="55" y="339"/>
      <point x="105" y="385"/>
      <point x="196" y="393" type="curve"/>
      <point x="196" y="400" type="line"/>
      <point x="196" y="400"/>
      <point x="55" y="431"/>
      <point x="55" y="556" type="curve" smooth="yes"/>
      <point x="55" y="663"/>
      <point x="140" y="730"/>
      <point x="284" y="730" type="curve" smooth="yes"/>
      <point x="314" y="730" type="line" smooth="yes"/>
      <point x="450" y="730"/>
      <point x="534" y="675"/>
      <point x="546" y="578" type="curve"/>
      <point x="396" y="578" type="line"/>
      <point x="391" y="599"/>
      <point x="361" y="618"/>
      <point x="314" y="618" type="curve" smooth="yes"/>
      <point x="284" y="618" type="line" smooth="yes"/>
      <point x="228" y="618"/>
      <point x="200" y="595"/>
      <point x="200" y="560" type="curve" smooth="yes"/>
      <point x="200" y="529"/>
      <point x="221" y="507"/>
      <point x="268" y="497" type="curve" smooth="yes"/>
      <point x="371" y="475" type="line" smooth="yes"/>
      <point x="489" y="450"/>
      <point x="555" y="385"/>
      <point x="555" y="304" type="curve" smooth="yes"/>
      <point x="555" y="227"/>
      <point x="504" y="179"/>
      <point x="413" y="172" type="curve"/>
      <point x="413" y="165" type="line"/>
      <point x="413" y="165"/>
      <point x="555" y="145"/>
      <point x="555" y="9" type="curve" smooth="yes"/>
      <point x="555" y="-98"/>
      <point x="467" y="-165"/>
      <point x="314" y="-165" type="curve" smooth="yes"/>
      <point x="284" y="-165" type="line" smooth="yes"/>
      <point x="144" y="-165"/>
      <point x="58" y="-108"/>
    </contour>
    <contour>
      <point x="199" y="294" type="curve" smooth="yes"/>
      <point x="199" y="249"/>
      <point x="223" y="215"/>
      <point x="259" y="208" type="curve" smooth="yes"/>
      <point x="314" y="197" type="line" smooth="yes"/>
      <point x="372" y="185"/>
      <point x="410" y="218"/>
      <point x="410" y="278" type="curve" smooth="yes"/>
      <point x="410" y="321"/>
      <point x="382" y="356"/>
      <point x="340" y="365" type="curve" smooth="yes"/>
      <point x="285" y="377" type="line" smooth="yes"/>
      <point x="233" y="388"/>
      <point x="199" y="355"/>
    </contour>
  </outline>
</glyph>
<glyph name="dieresis" format="2">
  <advance width="600" height="985"/>
  <unicode hex="00A8"/>
  <outline>
    <contour>
      <point x="103" y="715" type="curve" smooth="yes"/>
      <point x="103" y="760"/>
      <point x="135" y="790"/>
      <point x="183" y="790" type="curve" smooth="yes"/>
      <point x="231" y="790"/>
      <point x="263" y="760"/>
      <point x="263" y="715" type="curve" smooth="yes"/>
      <point x="263" y="670"/>
      <point x="231" y="640"/>
      <point x="183" y="640" type="curve" smooth="yes"/>
      <point x="135" y="640"/>
      <point x="103" y="670"/>
    </contour>
    <contour>
      <point x="337" y="715" type="curve" smooth="yes"/>
      <point x="337" y="760"/>
      <point x="369" y="790"/>
      <point x="417" y="790" type="curve" smooth="yes"/>
      <point x="465" y="790"/>
      <point x="497" y="760"/>
      <point x="497" y="715" type="curve" smooth="yes"/>
      <point x="497" y="670"/>
      <point x="465" y="640"/>
      <point x="417" y="640" type="curve" smooth="yes"/>
      <point x="369" y="640"/>
      <point x="337" y="670"/>
    </contour>
  </outline>
</glyph>
<glyph name="copyright" format="2">
  <advance width="600" height="985"/>
  <unicode hex="00A9"/>
  <outline>
    <contour>
      <point x="255" y="370" type="curve" smooth="yes"/>
      <point x="255" y="480" type="line" smooth="yes"/>
      <point x="255" y="510"/>
      <point x="275" y="530"/>
      <point x="305" y="530" type="curve" smooth="yes"/>
      <point x="330" y="530"/>
      <point x="350" y="514"/>
      <point x="354" y="490" type="curve"/>
      <point x="439" y="490" type="line"/>
      <point x="426" y="559"/>
      <point x="372" y="605"/>
      <point x="305" y="605" type="curve" smooth="yes"/>
      <point x="224" y="605"/>
      <point x="170" y="555"/>
      <point x="170" y="480" type="curve" smooth="yes"/>
      <point x="170" y="370" type="line" smooth="yes"/>
      <point x="170" y="295"/>
      <point x="224" y="245"/>
      <point x="305" y="245" type="curve" smooth="yes"/>
      <point x="369" y="245"/>
      <point x="423" y="291"/>
      <point x="439" y="360" type="curve"/>
      <point x="354" y="360" type="line"/>
      <point x="348" y="342"/>
      <point x="328" y="320"/>
      <point x="305" y="320" type="curve" smooth="yes"/>
      <point x="275" y="320"/>
      <point x="255" y="340"/>
    </contour>
    <contour>
      <point x="100" y="350" type="curve" smooth="yes"/>
      <point x="100" y="500" type="line" smooth="yes"/>
      <point x="100" y="614"/>
      <point x="181" y="690"/>
      <point x="300" y="690" type="curve" smooth="yes"/>
      <point x="420" y="690"/>
      <point x="500" y="614"/>
      <point x="500" y="500" type="curve" smooth="yes"/>
      <point x="500" y="350" type="line" smooth="yes"/>
      <point x="500" y="236"/>
      <point x="420" y="160"/>
      <point x="300" y="160" type="curve" smooth="yes"/>
      <point x="181" y="160"/>
      <point x="100" y="236"/>
    </contour>
    <contour>
      <point x="45" y="350" type="line" smooth="yes"/>
      <point x="45" y="206"/>
      <point x="147" y="110"/>
      <point x="300" y="110" type="curve" smooth="yes"/>
      <point x="453" y="110"/>
      <point x="555" y="206"/>
      <point x="555" y="350" type="curve" smooth="yes"/>
      <point x="555" y="500" type="line" smooth="yes"/>
      <point x="555" y="644"/>
      <point x="453" y="740"/>
      <point x="300" y="740" type="curve" smooth="yes"/>
      <point x="147" y="740"/>
      <point x="45" y="644"/>
      <point x="45" y="500" type="curve" smooth="yes"/>
    </contour>
  </outline>
</glyph>
<glyph name="registered" format="2">
  <advance width="600" height="985"/>
  <unicode hex="00AE"/>
  <outline>
    <contour>
      <point x="260" y="250" type="line"/>
      <point x="180" y="250" type="line"/>
      <point x="180" y="600" type="line"/>
      <point x="304" y="600" type="line" smooth="yes"/>
      <point x="380" y="600"/>
      <point x="431" y="556"/>
      <point x="431" y="490" type="curve" smooth="yes"/>
      <point x="431" y="424"/>
      <point x="380" y="385"/>
      <point x="304" y="385" type="curve" smooth="yes"/>
      <point x="260" y="385" type="line"/>
    </contour>
    <contour>
      <point x="304" y="450" type="line" smooth="yes"/>
      <point x="332" y="450"/>
      <point x="350" y="468"/>
      <point x="350" y="495" type="curve" smooth="yes"/>
      <point x="350" y="522"/>
      <point x="332" y="540"/>
      <point x="304" y="540" type="curve" smooth="yes"/>
      <point x="260" y="540" type="line"/>
      <point x="260" y="450" type="line"/>
    </contour>
    <contour>
      <point x="291" y="408" type="line"/>
      <point x="372" y="408" type="line"/>
      <point x="437" y="250" type="line"/>
      <point x="353" y="250" type="line"/>
    </contour>
    <contour>
      <point x="100" y="350" type="line"/>
      <point x="100" y="236"/>
      <point x="181" y="160"/>
      <point x="300" y="160" type="curve" smooth="yes"/>
      <point x="420" y="160"/>
      <point x="500" y="236"/>
      <point x="500" y="350" type="curve" smooth="yes"/>
      <point x="500" y="500" type="line" smooth="yes"/>
      <point x="500" y="614"/>
      <point x="420" y="690"/>
      <point x="300" y="690" type="curve" smooth="yes"/>
      <point x="181" y="690"/>
      <point x="100" y="614"/>
      <point x="100" y="500" type="curve" smooth="yes"/>
    </contour>
    <contour>
      <point x="45" y="500" type="line" smooth="yes"/>
      <point x="45" y="644"/>
      <point x="147" y="740"/>
      <point x="300" y="740" type="curve" smooth="yes"/>
      <point x="453" y="740"/>
      <point x="555" y="644"/>
      <point x="555" y="500" type="curve" smooth="yes"/>
      <point x="555" y="350" type="line" smooth="yes"/>
      <point x="555" y="206"/>
      <point x="453" y="110"/>
      <point x="300" y="110" type="curve" smooth="yes"/>
      <point x="147" y="110"/>
      <point x="45" y="206"/>
      <point x="45" y="350" type="curve" smooth="yes"/>
    </contour>
  </outline>
</glyph>
<glyph name="degree" format="2">
  <advance width="600" height="985"/>
  <unicode hex="00B0"/>
  <outline>
    <contour>
      <point x="150" y="595" type="curve" smooth="yes"/>
      <point x="150" y="682"/>
      <point x="210" y="740"/>
      <point x="300" y="740" type="curve" smooth="yes"/>
      <point x="390" y="740"/>
      <point x="450" y="682"/>
      <point x="450" y="595" type="curve" smooth="yes"/>
      <point x="450" y="508"/>
      <point x="390" y="450"/>
      <point x="300" y="450" type="curve" smooth="yes"/>
      <point x="210" y="450"/>
      <point x="150" y="508"/>
    </contour>
    <contour>
      <point x="225" y="595" type="curve" smooth="yes"/>
      <point x="225" y="547"/>
      <point x="255" y="515"/>
      <point x="300" y="515" type="curve" smooth="yes"/>
      <point x="345" y="515"/>
      <point x="375" y="547"/>
      <point x="375" y="595" type="curve" smooth="yes"/>
      <point x="375" y="643"/>
      <point x="345" y="675"/>
      <point x="300" y="675" type="curve" smooth="yes"/>
      <point x="255" y="675"/>
      <point x="225" y="643"/>
    </contour>
  </outline>
</glyph>
<glyph name="threesuperior" format="2">
  <advance width="600" height="985"/>
  <unicode hex="00B3"/>
  <outline>
    <contour>
      <point x="305" y="645" type="curve"/>
      <point x="305" y="636" type="line"/>
      <point x="305" y="636"/>
      <point x="345" y="649"/>
      <point x="355" y="656" type="curve"/>
      <point x="405" y="694" type="line"/>
      <point x="405" y="765" type="line"/>
      <point x="170" y="765" type="line"/>
      <point x="170" y="700" type="line"/>
      <point x="255" y="700" type="line" smooth="yes"/>
      <point x="308" y="700"/>
      <point x="340" y="709"/>
      <point x="340" y="709" type="curve"/>
      <point x="340" y="702" type="line"/>
      <point x="255" y="651" type="line"/>
      <point x="255" y="585" type="line"/>
      <point x="285" y="585" type="line" smooth="yes"/>
      <point x="312" y="585"/>
      <point x="330" y="569"/>
      <point x="330" y="545" type="curve" smooth="yes"/>
      <point x="330" y="521"/>
      <point x="312" y="505"/>
      <point x="284" y="505" type="curve" smooth="yes"/>
      <point x="255" y="505"/>
      <point x="235" y="519"/>
      <point x="235" y="540" type="curve"/>
      <point x="145" y="540" type="line"/>
      <point x="145" y="477"/>
      <point x="201" y="435"/>
      <point x="284" y="435" type="curve" smooth="yes"/>
      <point x="366" y="435"/>
      <point x="420" y="479"/>
      <point x="420" y="545" type="curve" smooth="yes"/>
      <point x="420" y="605"/>
      <point x="374" y="645"/>
    </contour>
  </outline>
</glyph>
<glyph name="acute" format="2">
  <advance width="600" height="985"/>
  <unicode hex="00B4"/>
  <outline>
    <contour>
      <point x="450" y="785" type="line"/>
      <point x="300" y="785" type="line"/>
      <point x="180" y="645" type="line"/>
      <point x="320" y="645" type="line"/>
    </contour>
  </outline>
</glyph>
<glyph name="cedilla" format="2">
  <advance width="600" height="985"/>
  <unicode hex="00B8"/>
  <outline>
    <contour>
      <point x="249" y="16" type="line"/>
      <point x="324" y="16" type="line"/>
      <point x="298" y="-35" type="line"/>
      <point x="298" y="-35"/>
      <point x="440" y="-44"/>
      <point x="440" y="-128" type="curve" smooth="yes"/>
      <point x="440" y="-177"/>
      <point x="384" y="-210"/>
      <point x="300" y="-210" type="curve" smooth="yes"/>
      <point x="220" y="-210"/>
      <point x="190" y="-210"/>
      <point x="190" y="-210" type="curve"/>
      <point x="190" y="-140" type="line"/>
      <point x="190" y="-140"/>
      <point x="220" y="-140"/>
      <point x="270" y="-140" type="curve" smooth="yes"/>
      <point x="303" y="-140"/>
      <point x="325" y="-130"/>
      <point x="325" y="-114" type="curve" smooth="yes"/>
      <point x="325" y="-83"/>
      <point x="282" y="-65"/>
      <point x="209" y="-65" type="curve"/>
    </contour>
  </outline>
</glyph>
<glyph name="guillemotright" format="2">
  <advance width="600" height="985"/>
  <unicode hex="00BB"/>
  <outline>
    <contour>
      <point x="335" y="280" type="line"/>
      <point x="170" y="40" type="line"/>
      <point x="15" y="40" type="line"/>
      <point x="156" y="244" type="line" smooth="yes"/>
      <point x="174" y="270"/>
      <point x="192" y="279"/>
      <point x="192" y="279" type="curve"/>
      <point x="192" y="281" type="line"/>
      <point x="192" y="281"/>
      <point x="175" y="289"/>
      <point x="156" y="316" type="curve" smooth="yes"/>
      <point x="15" y="520" type="line"/>
      <point x="170" y="520" type="line"/>
    </contour>
    <contour>
      <point x="585" y="280" type="line"/>
      <point x="420" y="40" type="line"/>
      <point x="265" y="40" type="line"/>
      <point x="406" y="244" type="line" smooth="yes"/>
      <point x="424" y="270"/>
      <point x="442" y="279"/>
      <point x="442" y="279" type="curve"/>
      <point x="442" y="281" type="line"/>
      <point x="442" y="281"/>
      <point x="425" y="289"/>
      <point x="406" y="316" type="curve" smooth="yes"/>
      <point x="265" y="520" type="line"/>
      <point x="420" y="520" type="line"/>
    </contour>
  </outline>
</glyph>
<glyph name="questiondown" format="2">
  <advance width="600" height="985"/>
  <unicode hex="00BF"/>
  <outline>
    <contour>
      <point x="80" y="40" type="curve" smooth="yes"/>
      <point x="80" y="163"/>
      <point x="164" y="245"/>
      <point x="289" y="245" type="curve"/>
      <point x="289" y="325" type="line"/>
      <point x="414" y="325" type="line"/>
      <point x="419" y="110" type="line"/>
      <point x="319" y="110" type="line" smooth="yes"/>
      <point x="264" y="110"/>
      <point x="230" y="84"/>
      <point x="230" y="40" type="curve" smooth="yes"/>
      <point x="230" y="-4"/>
      <point x="264" y="-30"/>
      <point x="320" y="-30" type="curve" smooth="yes"/>
      <point x="485" y="-30" type="line"/>
      <point x="485" y="-170" type="line"/>
      <point x="330" y="-170" type="line" smooth="yes"/>
      <point x="180" y="-170"/>
      <point x="80" y="-86"/>
    </contour>
    <contour>
      <point x="371" y="415" type="curve" smooth="yes"/>
      <point x="341" y="415" type="line" smooth="yes"/>
      <point x="296" y="415"/>
      <point x="266" y="443"/>
      <point x="266" y="485.5" type="curve" smooth="yes"/>
      <point x="266" y="528"/>
      <point x="296" y="555"/>
      <point x="342" y="555" type="curve" smooth="yes"/>
      <point x="371" y="555" type="line" smooth="yes"/>
      <point x="416" y="555"/>
      <point x="446" y="527"/>
      <point x="446" y="485" type="curve" smooth="yes"/>
      <point x="446" y="443"/>
      <point x="416" y="415"/>
    </contour>
  </outline>
</glyph>
<glyph name="multiply" format="2">
  <advance width="600" height="985"/>
  <unicode hex="00D7"/>
  <outline>
    <contour>
      <point x="182" y="546" type="line"/>
      <point x="302" y="426" type="line"/>
      <point x="422" y="546" type="line"/>
      <point x="525" y="443" type="line"/>
      <point x="404" y="323" type="line"/>
      <point x="525" y="203" type="line"/>
      <point x="422" y="100" type="line"/>
      <point x="302" y="221" type="line"/>
      <point x="182" y="100" type="line"/>
      <point x="79" y="203" type="line"/>
      <point x="199" y="323" type="line"/>
      <point x="79" y="443" type="line"/>
    </contour>
  </outline>
</glyph>
<glyph name="Oslash" format="2">
  <advance width="600" height="985"/>
  <unicode hex="00D8"/>
  <outline>
    <component base="O"/>
    <contour>
      <point x="465" y="740" type="line"/>
      <point x="585" y="740" type="line"/>
      <point x="135" y="-30" type="line"/>
      <point x="15" y="-30" type="line"/>
    </contour>
  </outline>
  <guideline angle="90" x="119" y="0"/>
  <guideline angle="90" x="474" y="0"/>
</glyph>
<glyph name="germandbls" format="2">
  <advance width="600" height="985"/>
  <unicode hex="00DF"/>
  <outline>
    <contour>
      <point x="80" y="0" type="line"/>
      <point x="215" y="0" type="line"/>
      <point x="215" y="516" type="line" smooth="yes"/>
      <point x="215" y="574.288"/>
      <point x="252.293" y="605"/>
      <point x="305" y="605" type="curve" smooth="yes" name="sv02"/>
      <point x="361.264" y="605"/>
      <point x="396" y="571.846"/>
      <point x="396" y="517" type="curve" smooth="yes" name="dh02"/>
      <point x="396" y="462.203"/>
      <point x="361.327" y="428"/>
      <point x="305" y="428" type="curve" smooth="yes" name="dv02"/>
      <point x="260" y="428" type="line"/>
      <point x="260" y="318" type="line" name="sh03"/>
      <point x="307" y="318" type="line" smooth="yes" name="dv01"/>
      <point x="370.151" y="318"/>
      <point x="409" y="281.06"/>
      <point x="409" y="221" type="curve" smooth="yes" name="ih01"/>
      <point x="409" y="161.22"/>
      <point x="370.513" y="125"/>
      <point x="307" y="125" type="curve" smooth="yes"/>
      <point x="260" y="125" type="line"/>
      <point x="260" y="0" type="line"/>
      <point x="312" y="0" type="line" smooth="yes" name="ab01"/>
      <point x="460.8" y="0"/>
      <point x="560" y="83.6"/>
      <point x="560" y="209" type="curve" smooth="yes" name="sh02"/>
      <point x="560" y="299.764"/>
      <point x="498.4" y="364.164"/>
      <point x="406" y="370" type="curve"/>
      <point x="406" y="381" type="line" name="sh01"/>
      <point x="490.6" y="388.691"/>
      <point x="547" y="450.691"/>
      <point x="547" y="536" type="curve" smooth="yes" name="dh03"/>
      <point x="547" y="652.4"/>
      <point x="450.6" y="730"/>
      <point x="306" y="730" type="curve" smooth="yes"/>
      <point x="170.4" y="730"/>
      <point x="80" y="644.4"/>
      <point x="80" y="516" type="curve" smooth="yes"/>
    </contour>
  </outline>
</glyph>
<glyph name="divide" format="2">
  <advance width="600" height="985"/>
  <unicode hex="00F7"/>
  <outline>
    <contour>
      <point x="100" y="400" type="line"/>
      <point x="500" y="400" type="line"/>
      <point x="500" y="260" type="line"/>
      <point x="100" y="260" type="line"/>
    </contour>
    <contour>
      <point x="285" y="600" type="curve" smooth="yes"/>
      <point x="315" y="600" type="line" smooth="yes"/>
      <point x="360" y="600"/>
      <point x="390" y="572"/>
      <point x="390" y="529.5" type="curve" smooth="yes"/>
      <point x="390" y="487"/>
      <point x="360" y="460"/>
      <point x="314" y="460" type="curve" smooth="yes"/>
      <point x="285" y="460" type="line" smooth="yes"/>
      <point x="240" y="460"/>
      <point x="210" y="488"/>
      <point x="210" y="530" type="curve" smooth="yes"/>
      <point x="210" y="572"/>
      <point x="240" y="600"/>
    </contour>
    <contour>
      <point x="285" y="200" type="curve" smooth="yes"/>
      <point x="315" y="200" type="line" smooth="yes"/>
      <point x="360" y="200"/>
      <point x="390" y="172"/>
      <point x="390" y="129.5" type="curve" smooth="yes"/>
      <point x="390" y="87"/>
      <point x="360" y="60"/>
      <point x="314" y="60" type="curve" smooth="yes"/>
      <point x="285" y="60" type="line" smooth="yes"/>
      <point x="240" y="60"/>
      <point x="210" y="88"/>
      <point x="210" y="130" type="curve" smooth="yes"/>
      <point x="210" y="172"/>
      <point x="240" y="200"/>
    </contour>
  </outline>
</glyph>
<glyph name="dcroat" format="2">
  <advance width="600" height="985"/>
  <unicode hex="0111"/>
  <outline>
    <contour>
      <point x="240" y="-10" type="curve" smooth="yes"/>
      <point x="318" y="-10"/>
      <point x="372" y="30"/>
      <point x="382" y="96" type="curve"/>
      <point x="392" y="96" type="line"/>
      <point x="392" y="0" type="line"/>
      <point x="537" y="0" type="line"/>
      <point x="537" y="570" type="line"/>
      <point x="597" y="570" type="line"/>
      <point x="597" y="660" type="line"/>
      <point x="537" y="660" type="line"/>
      <point x="537" y="720" type="line"/>
      <point x="387" y="720" type="line"/>
      <point x="387" y="660" type="line"/>
      <point x="277" y="660" type="line"/>
      <point x="277" y="570" type="line"/>
      <point x="387" y="570" type="line"/>
      <point x="387" y="515" type="line" smooth="yes"/>
      <point x="387" y="480"/>
      <point x="392" y="420"/>
      <point x="392" y="420" type="curve"/>
      <point x="382" y="420" type="line"/>
      <point x="372" y="485"/>
      <point x="318" y="525"/>
      <point x="240" y="525" type="curve" smooth="yes"/>
      <point x="124" y="525"/>
      <point x="48" y="441"/>
      <point x="48" y="310" type="curve" smooth="yes"/>
      <point x="48" y="210" type="line" smooth="yes"/>
      <point x="48" y="75"/>
      <point x="124" y="-10"/>
    </contour>
    <contour>
      <point x="292" y="121" type="curve" smooth="yes"/>
      <point x="233" y="121"/>
      <point x="198" y="159"/>
      <point x="198" y="215" type="curve" smooth="yes"/>
      <point x="198" y="305" type="line" smooth="yes"/>
      <point x="198" y="360"/>
      <point x="235" y="395"/>
      <point x="292" y="395" type="curve" smooth="yes"/>
      <point x="349" y="395"/>
      <point x="387" y="359"/>
      <point x="387" y="305" type="curve" smooth="yes"/>
      <point x="387" y="210" type="line" smooth="yes"/>
      <point x="387" y="158"/>
      <point x="351" y="121"/>
    </contour>
  </outline>
</glyph>
<glyph name="hbar" format="2">
  <advance width="600" height="985"/>
  <unicode hex="0127"/>
  <outline>
    <contour>
      <point x="211" y="585" type="line"/>
      <point x="211" y="540" type="line" smooth="yes"/>
      <point x="211" y="499"/>
      <point x="201" y="445"/>
      <point x="202" y="445" type="curve"/>
      <point x="213" y="445" type="line"/>
      <point x="222" y="511"/>
      <point x="274" y="550"/>
      <point x="354" y="550" type="curve" smooth="yes"/>
      <point x="465" y="550"/>
      <point x="535" y="471"/>
      <point x="535" y="345" type="curve" smooth="yes"/>
      <point x="535" y="0" type="line"/>
      <point x="385" y="0" type="line"/>
      <point x="385" y="330" type="line" smooth="yes"/>
      <point x="385" y="385"/>
      <point x="351" y="420"/>
      <point x="298" y="420" type="curve" smooth="yes"/>
      <point x="245" y="420"/>
      <point x="211" y="385"/>
      <point x="211" y="330" type="curve" smooth="yes"/>
      <point x="211" y="0" type="line"/>
      <point x="61" y="0" type="line"/>
      <point x="61" y="585" type="line"/>
      <point x="0" y="585" type="line"/>
      <point x="0" y="670" type="line"/>
      <point x="61" y="670" type="line"/>
      <point x="61" y="720" type="line"/>
      <point x="211" y="720" type="line"/>
      <point x="211" y="670" type="line"/>
      <point x="310" y="670" type="line"/>
      <point x="310" y="585" type="line"/>
    </contour>
  </outline>
  <guideline angle="0" x="0" y="-168"/>
</glyph>
<glyph name="IJ" format="2">
  <advance width="600" height="985"/>
  <unicode hex="0132"/>
  <outline>
    <contour>
      <point x="195" y="720" type="line"/>
      <point x="195" y="0" type="line"/>
      <point x="45" y="0" type="line"/>
      <point x="45" y="720" type="line"/>
    </contour>
    <contour>
      <point x="305" y="130" type="line" smooth="yes"/>
      <point x="369" y="130"/>
      <point x="405" y="164"/>
      <point x="405" y="224" type="curve" smooth="yes"/>
      <point x="405" y="580" type="line"/>
      <point x="265" y="580" type="line"/>
      <point x="265" y="720" type="line"/>
      <point x="555" y="720" type="line"/>
      <point x="555" y="224" type="line" smooth="yes"/>
      <point x="555" y="81"/>
      <point x="465" y="0"/>
      <point x="305" y="0" type="curve" smooth="yes"/>
      <point x="255" y="0" type="line"/>
      <point x="255" y="130" type="line"/>
    </contour>
  </outline>
</glyph>
<glyph name="napostrophe" format="2">
  <advance width="600" height="985"/>
  <unicode hex="0149"/>
  <outline>
    <component base="n"/>
    <contour>
      <point x="225" y="790" type="line"/>
      <point x="121" y="645" type="line"/>
      <point x="-4" y="645" type="line"/>
      <point x="80" y="790" type="line"/>
    </contour>
  </outline>
</glyph>
<glyph name="Eng" format="2">
  <advance width="600" height="985"/>
  <unicode hex="014A"/>
  <outline>
    <contour>
      <point x="397" y="51" type="line"/>
      <point x="397" y="3"/>
      <point x="363" y="-25"/>
      <point x="312" y="-25" type="curve" smooth="yes"/>
      <point x="232" y="-25" type="line"/>
      <point x="232" y="-170" type="line"/>
      <point x="302" y="-170" type="line" smooth="yes"/>
      <point x="443" y="-170"/>
      <point x="542" y="-86"/>
      <point x="542" y="35" type="curve" smooth="yes"/>
      <point x="542" y="720" type="line"/>
      <point x="414" y="720" type="line"/>
      <point x="414" y="379" type="line" smooth="yes"/>
      <point x="414" y="309"/>
      <point x="440" y="182"/>
      <point x="439" y="182" type="curve"/>
      <point x="425" y="182" type="line"/>
      <point x="425" y="182"/>
      <point x="408" y="270"/>
      <point x="394" y="307" type="curve" smooth="yes"/>
      <point x="240" y="720" type="line"/>
      <point x="58" y="720" type="line"/>
      <point x="58" y="0" type="line"/>
      <point x="186" y="0" type="line"/>
      <point x="186" y="412" type="line" smooth="yes"/>
      <point x="186" y="487"/>
      <point x="171" y="590"/>
      <point x="171" y="590" type="curve"/>
      <point x="185" y="590" type="line"/>
      <point x="185" y="590"/>
      <point x="184" y="520"/>
      <point x="203" y="477" type="curve" smooth="yes"/>
    </contour>
  </outline>
</glyph>
<glyph name="OE" format="2">
  <advance width="600" height="985"/>
  <unicode hex="0152"/>
  <outline>
    <contour>
      <point x="284" y="195" type="line" smooth="yes"/>
      <point x="284" y="148"/>
      <point x="263" y="121"/>
      <point x="227" y="121" type="curve" smooth="yes"/>
      <point x="192" y="121"/>
      <point x="170" y="149"/>
      <point x="170" y="195" type="curve" smooth="yes"/>
      <point x="170" y="531" type="line" smooth="yes"/>
      <point x="170" y="577"/>
      <point x="192" y="605"/>
      <point x="227" y="605" type="curve" smooth="yes"/>
      <point x="263" y="605"/>
      <point x="284" y="578"/>
      <point x="284" y="531" type="curve" smooth="yes"/>
    </contour>
    <contour>
      <point x="290" y="0" type="line"/>
      <point x="580" y="0" type="line"/>
      <point x="580" y="126" type="line"/>
      <point x="419" y="126" type="line"/>
      <point x="419" y="306" type="line"/>
      <point x="555" y="306" type="line"/>
      <point x="555" y="432" type="line"/>
      <point x="419" y="432" type="line"/>
      <point x="419" y="595" type="line"/>
      <point x="580" y="595" type="line"/>
      <point x="580" y="720" type="line"/>
      <point x="290" y="720" type="line"/>
      <point x="290" y="640" type="line"/>
      <point x="285" y="640" type="line"/>
      <point x="285" y="640"/>
      <point x="274" y="730"/>
      <point x="175" y="730" type="curve" smooth="yes"/>
      <point x="84" y="730"/>
      <point x="30" y="656"/>
      <point x="30" y="531" type="curve" smooth="yes"/>
      <point x="30" y="195" type="line" smooth="yes"/>
      <point x="30" y="70"/>
      <point x="84" y="-4"/>
      <point x="175" y="-4" type="curve" smooth="yes"/>
      <point x="274" y="-4"/>
      <point x="285" y="86"/>
      <point x="285" y="86" type="curve"/>
      <point x="290" y="86" type="line"/>
    </contour>
  </outline>
</glyph>
<glyph name="tcaron" format="2">
  <advance width="600" height="985"/>
  <unicode hex="0165"/>
  <outline>
    <component base="t"/>
    <contour>
      <point x="580" y="775" type="line"/>
      <point x="490" y="620" type="line"/>
      <point x="380" y="620" type="line"/>
      <point x="460" y="775" type="line"/>
    </contour>
  </outline>
</glyph>
<glyph name="uni018F" format="2">
  <advance width="600"/>
  <unicode hex="018F"/>
  <outline>
    <contour>
      <point x="195" y="305" type="line" name="iv01"/>
      <point x="405" y="305" type="line" name="dv02"/>
      <point x="405" y="214" type="line" smooth="yes" name="sh02"/>
      <point x="405" y="150"/>
      <point x="365" y="110"/>
      <point x="300" y="110" type="curve" smooth="yes" name="sv03"/>
      <point x="235" y="110"/>
      <point x="195" y="150"/>
      <point x="195" y="215" type="curve" smooth="yes" name="ah01"/>
    </contour>
    <contour>
      <point x="300" y="730" type="curve" smooth="yes" name="at01"/>
      <point x="150" y="730"/>
      <point x="50" y="640"/>
      <point x="50" y="505" type="curve" name="sh03"/>
      <point x="195" y="505" type="line" name="sv04"/>
      <point x="195" y="560"/>
      <point x="239" y="600"/>
      <point x="300" y="600" type="curve" smooth="yes" name="sv03"/>
      <point x="363" y="600"/>
      <point x="405" y="559"/>
      <point x="405" y="505" type="curve" smooth="yes"/>
      <point x="405" y="400" type="line" name="dv01"/>
      <point x="50" y="400" type="line"/>
      <point x="50" y="215" type="line" smooth="yes" name="sh03"/>
      <point x="50" y="75"/>
      <point x="145" y="-10"/>
      <point x="300" y="-10" type="curve" smooth="yes" name="at01"/>
      <point x="454" y="-10"/>
      <point x="550" y="76"/>
      <point x="550" y="214" type="curve" smooth="yes" name="sh01"/>
      <point x="550" y="505" type="line" smooth="yes"/>
      <point x="550" y="642"/>
      <point x="451" y="730"/>
    </contour>
  </outline>
</glyph>
<glyph name="Ohorn" format="2">
  <advance width="600"/>
  <unicode hex="01A0"/>
  <outline>
    <contour>
      <point x="300" y="600" type="curve" smooth="yes" name="sv01"/>
      <point x="363.809" y="600"/>
      <point x="402" y="564.804"/>
      <point x="402" y="506" type="curve" smooth="yes" name="ah01"/>
      <point x="402" y="215" type="line" smooth="yes"/>
      <point x="402" y="155.326"/>
      <point x="364.753" y="121"/>
      <point x="300" y="121" type="curve" smooth="yes" name="sv02"/>
      <point x="235.249" y="121"/>
      <point x="198" y="155.328"/>
      <point x="198" y="215" type="curve" smooth="yes" name="sh02"/>
      <point x="198" y="506" type="line" smooth="yes"/>
      <point x="198" y="565.672"/>
      <point x="235.249" y="600"/>
    </contour>
    <contour>
      <point x="300" y="730" type="curve" smooth="yes" name="at01"/>
      <point x="148.8" y="730"/>
      <point x="48" y="640.4"/>
      <point x="48" y="506" type="curve" smooth="yes"/>
      <point x="48" y="215" type="line" smooth="yes" name="sh01"/>
      <point x="48" y="80"/>
      <point x="148.8" y="-10"/>
      <point x="300" y="-10" type="curve" smooth="yes" name="ab01"/>
      <point x="451.2" y="-10"/>
      <point x="552" y="80"/>
      <point x="552" y="215" type="curve" smooth="yes"/>
      <point x="552" y="506" type="line" smooth="yes" name="sh03"/>
      <point x="552" y="640.4"/>
      <point x="451.2" y="730"/>
    </contour>
    <contour>
      <point x="475" y="830" type="line"/>
      <point x="475" y="729" type="line" smooth="yes"/>
      <point x="475" y="705.697"/>
      <point x="460.108" y="690"/>
      <point x="438" y="690" type="curve" smooth="yes"/>
      <point x="410" y="690" type="line"/>
      <point x="410" y="590" type="line"/>
      <point x="445" y="590" type="line" smooth="yes"/>
      <point x="535" y="590"/>
      <point x="595" y="648"/>
      <point x="595" y="735" type="curve" smooth="yes"/>
      <point x="595" y="830" type="line"/>
    </contour>
  </outline>
  <guideline angle="0" x="0" y="286"/>
</glyph>
<glyph name="ohorn" format="2">
  <advance width="600"/>
  <unicode hex="01A1"/>
  <outline>
    <contour>
      <point x="198" y="210" type="curve" smooth="yes" name="sh02"/>
      <point x="198" y="341" type="line" smooth="yes"/>
      <point x="198" y="395"/>
      <point x="238" y="430"/>
      <point x="300" y="430" type="curve" smooth="yes" name="sv01"/>
      <point x="362" y="430"/>
      <point x="402" y="395"/>
      <point x="402" y="341" type="curve" smooth="yes" name="ah01"/>
      <point x="402" y="210" type="line" smooth="yes"/>
      <point x="402" y="156"/>
      <point x="362" y="121"/>
      <point x="300" y="121" type="curve" smooth="yes" name="sv02"/>
      <point x="238" y="121"/>
      <point x="198" y="156"/>
    </contour>
    <contour>
      <point x="48" y="210" type="line" smooth="yes" name="sh01"/>
      <point x="48" y="81"/>
      <point x="149" y="-10"/>
      <point x="300" y="-10" type="curve" smooth="yes" name="ab01"/>
      <point x="451" y="-10"/>
      <point x="552" y="81"/>
      <point x="552" y="210" type="curve" smooth="yes"/>
      <point x="552" y="341" type="line" smooth="yes" name="sh03"/>
      <point x="552" y="470"/>
      <point x="451" y="560"/>
      <point x="300" y="560" type="curve" smooth="yes" name="at01"/>
      <point x="149" y="560"/>
      <point x="48" y="470"/>
      <point x="48" y="341" type="curve" smooth="yes"/>
    </contour>
    <contour>
      <point x="470" y="660" type="line"/>
      <point x="470" y="559" type="line" smooth="yes"/>
      <point x="470" y="535.697"/>
      <point x="455.108" y="520"/>
      <point x="433" y="520" type="curve" smooth="yes"/>
      <point x="400" y="520" type="line"/>
      <point x="400" y="420" type="line"/>
      <point x="440" y="420" type="line" smooth="yes"/>
      <point x="524" y="420"/>
      <point x="580" y="478"/>
      <point x="580" y="565" type="curve" smooth="yes"/>
      <point x="580" y="660" type="line"/>
    </contour>
  </outline>
</glyph>
<glyph name="uni0237" format="2">
  <advance width="600" height="985"/>
  <unicode hex="0237"/>
  <outline>
    <contour>
      <point x="325" y="50" type="line" smooth="yes"/>
      <point x="325" y="5"/>
      <point x="292" y="-25"/>
      <point x="243" y="-25" type="curve" smooth="yes"/>
      <point x="90" y="-25" type="line"/>
      <point x="90" y="-165" type="line"/>
      <point x="243" y="-165" type="line" smooth="yes"/>
      <point x="382" y="-165"/>
      <point x="475" y="-79"/>
      <point x="475" y="50" type="curve" smooth="yes"/>
      <point x="475" y="550" type="line"/>
      <point x="110" y="550" type="line"/>
      <point x="110" y="410" type="line"/>
      <point x="325" y="410" type="line"/>
    </contour>
  </outline>
</glyph>
<glyph name="uni02BC" format="2">
  <advance width="600"/>
  <unicode hex="02BC"/>
  <outline>
    <contour>
      <point x="400" y="776" type="line"/>
      <point x="270" y="465" type="line"/>
      <point x="140" y="465" type="line"/>
      <point x="220" y="776" type="line"/>
    </contour>
  </outline>
</glyph>
<glyph name="circumflex" format="2">
  <advance width="600" height="985"/>
  <unicode hex="02C6"/>
  <outline>
    <contour>
      <point x="230" y="785" type="line"/>
      <point x="370" y="785" type="line"/>
      <point x="505" y="645" type="line"/>
      <point x="370" y="645" type="line"/>
      <point x="303" y="715" type="line"/>
      <point x="294" y="715" type="line"/>
      <point x="231" y="645" type="line"/>
      <point x="95" y="645" type="line"/>
    </contour>
  </outline>
</glyph>
<glyph name="uni02C9" format="2">
  <advance width="600" height="985"/>
  <unicode hex="02C9"/>
  <outline>
    <contour>
      <point x="150" y="805" type="line"/>
      <point x="450" y="805" type="line"/>
      <point x="450" y="935" type="line"/>
      <point x="150" y="935" type="line"/>
    </contour>
  </outline>
</glyph>
<glyph name="breve" format="2">
  <advance width="600" height="985"/>
  <unicode hex="02D8"/>
  <outline>
    <contour>
      <point x="300" y="725" type="curve" smooth="yes"/>
      <point x="343.206" y="725"/>
      <point x="370" y="747.966"/>
      <point x="370" y="785" type="curve"/>
      <point x="485" y="785" type="line"/>
      <point x="485" y="695"/>
      <point x="411" y="635"/>
      <point x="300" y="635" type="curve" smooth="yes"/>
      <point x="189.6" y="635"/>
      <point x="116" y="695"/>
      <point x="116" y="785" type="curve"/>
      <point x="231" y="785" type="line"/>
      <point x="231" y="747.673"/>
      <point x="257.074" y="725"/>
    </contour>
  </outline>
</glyph>
<glyph name="dotaccent" format="2">
  <advance width="600" height="985"/>
  <unicode hex="02D9"/>
  <outline>
    <contour>
      <point x="275" y="775" type="curve" smooth="yes"/>
      <point x="305" y="775" type="line" smooth="yes"/>
      <point x="348.701" y="775"/>
      <point x="380" y="745.579"/>
      <point x="380" y="704.5" type="curve" smooth="yes"/>
      <point x="380" y="663.876"/>
      <point x="347.915" y="635"/>
      <point x="304" y="635" type="curve" smooth="yes"/>
      <point x="275" y="635" type="line" smooth="yes"/>
      <point x="231.4" y="635"/>
      <point x="200" y="664.307"/>
      <point x="200" y="705" type="curve" smooth="yes"/>
      <point x="200" y="745.693"/>
      <point x="231.4" y="775"/>
    </contour>
  </outline>
</glyph>
<glyph name="ogonek" format="2">
  <advance width="600" height="985"/>
  <unicode hex="02DB"/>
  <outline>
    <contour>
      <point x="357" y="11" type="line"/>
      <point x="336" y="-6" type="line"/>
      <point x="303" y="-34"/>
      <point x="289" y="-59"/>
      <point x="289" y="-84" type="curve" smooth="yes"/>
      <point x="289" y="-109"/>
      <point x="307" y="-125"/>
      <point x="335" y="-125" type="curve" smooth="yes"/>
      <point x="404" y="-125" type="line"/>
      <point x="404" y="-210" type="line"/>
      <point x="306" y="-210" type="line" smooth="yes"/>
      <point x="228" y="-210"/>
      <point x="175" y="-170"/>
      <point x="175" y="-111" type="curve" smooth="yes"/>
      <point x="175" y="-70"/>
      <point x="195" y="-35"/>
      <point x="247" y="11" type="curve"/>
    </contour>
  </outline>
</glyph>
<glyph name="tilde" format="2">
  <advance width="600" height="985"/>
  <unicode hex="02DC"/>
  <outline>
    <contour>
      <point x="365" y="720" type="curve" smooth="yes"/>
      <point x="325" y="720"/>
      <point x="315" y="790"/>
      <point x="230" y="790" type="curve" smooth="yes"/>
      <point x="164" y="790"/>
      <point x="120" y="744"/>
      <point x="120" y="675" type="curve" smooth="yes"/>
      <point x="120" y="640" type="line"/>
      <point x="205" y="640" type="line"/>
      <point x="205" y="672" type="line" smooth="yes"/>
      <point x="205" y="691.9"/>
      <point x="216.909" y="705"/>
      <point x="235" y="705" type="curve" smooth="yes"/>
      <point x="275" y="705"/>
      <point x="285" y="635"/>
      <point x="370" y="635" type="curve" smooth="yes"/>
      <point x="436" y="635"/>
      <point x="480" y="681"/>
      <point x="480" y="750" type="curve" smooth="yes"/>
      <point x="480" y="785" type="line"/>
      <point x="395" y="785" type="line"/>
      <point x="395" y="748" type="line" smooth="yes"/>
      <point x="395" y="731"/>
      <point x="383" y="720"/>
    </contour>
  </outline>
</glyph>
<glyph name="hungarumlaut" format="2">
  <advance width="600" height="985"/>
  <unicode hex="02DD"/>
  <outline>
    <contour>
      <point x="330" y="645" type="line"/>
      <point x="460" y="645" type="line"/>
      <point x="575" y="785" type="line"/>
      <point x="435" y="785" type="line"/>
    </contour>
    <contour>
      <point x="125" y="645" type="line"/>
      <point x="255" y="645" type="line"/>
      <point x="370" y="785" type="line"/>
      <point x="230" y="785" type="line"/>
    </contour>
  </outline>
</glyph>
<glyph name="hookabovecomb" format="2">
  <advance width="600"/>
  <unicode hex="0309"/>
  <outline>
    <contour>
      <point x="233" y="641" type="line"/>
      <point x="281.878" y="698.783" type="line" smooth="yes"/>
      <point x="293.215" y="712.186"/>
      <point x="297" y="719.521"/>
      <point x="297" y="728.12" type="curve" smooth="yes"/>
      <point x="297" y="740.665"/>
      <point x="288.944" y="745"/>
      <point x="270" y="745" type="curve" smooth="yes"/>
      <point x="190" y="745" type="line"/>
      <point x="190" y="830" type="line"/>
      <point x="295" y="830" type="line" smooth="yes"/>
      <point x="358.464" y="830"/>
      <point x="400" y="796.058"/>
      <point x="400" y="744.17" type="curve" smooth="yes"/>
      <point x="400" y="721.614"/>
      <point x="392.151" y="699.705"/>
      <point x="377.773" y="682.533" type="curve" smooth="yes"/>
      <point x="343" y="641" type="line"/>
    </contour>
  </outline>
</glyph>
<glyph name="uni031B" format="2">
  <advance width="600"/>
  <unicode hex="031B"/>
  <outline>
    <contour>
      <point x="465" y="660" type="line"/>
      <point x="585" y="660" type="line"/>
      <point x="585" y="585" type="line" smooth="yes"/>
      <point x="585" y="504"/>
      <point x="527" y="450"/>
      <point x="440" y="450" type="curve" smooth="yes"/>
      <point x="400" y="450" type="line"/>
      <point x="400" y="550" type="line"/>
      <point x="430" y="550" type="line" smooth="yes"/>
      <point x="452" y="550"/>
      <point x="465" y="562.562"/>
      <point x="465" y="585" type="curve" smooth="yes"/>
    </contour>
  </outline>
</glyph>
<glyph name="dotbelowcomb" format="2">
  <advance width="600"/>
  <unicode hex="0323"/>
  <outline>
    <contour>
      <point x="275" y="-80" type="curve" smooth="yes"/>
      <point x="305" y="-80" type="line" smooth="yes"/>
      <point x="348.701" y="-80"/>
      <point x="380" y="-109.421"/>
      <point x="380" y="-150.5" type="curve" smooth="yes"/>
      <point x="380" y="-191.124"/>
      <point x="347.915" y="-220"/>
      <point x="304" y="-220" type="curve" smooth="yes"/>
      <point x="275" y="-220" type="line" smooth="yes"/>
      <point x="231.4" y="-220"/>
      <point x="200" y="-190.693"/>
      <point x="200" y="-150" type="curve" smooth="yes"/>
      <point x="200" y="-109.307"/>
      <point x="231.4" y="-80"/>
    </contour>
  </outline>
</glyph>
<glyph name="commaaccent" format="2">
  <advance width="600" height="985"/>
  <unicode hex="0326"/>
  <outline>
    <contour>
      <point x="420" y="-95" type="line"/>
      <point x="305" y="-240" type="line"/>
      <point x="175" y="-240" type="line"/>
      <point x="270" y="-95" type="line"/>
    </contour>
  </outline>
</glyph>
<glyph name="Delta" format="2">
  <advance width="600" height="985"/>
  <unicode hex="0394"/>
  <outline>
    <contour>
      <point x="202" y="720" type="line"/>
      <point x="402" y="720" type="line"/>
      <point x="560" y="117" type="line"/>
      <point x="560" y="0" type="line"/>
      <point x="40" y="0" type="line"/>
      <point x="40" y="117" type="line"/>
    </contour>
    <contour>
      <point x="189" y="117" type="line"/>
      <point x="409" y="117" type="line"/>
      <point x="317" y="519" type="line" smooth="yes"/>
      <point x="308" y="559"/>
      <point x="302" y="620"/>
      <point x="302" y="620" type="curve"/>
      <point x="296" y="620" type="line"/>
      <point x="296" y="620"/>
      <point x="289" y="559"/>
      <point x="280" y="519" type="curve" smooth="yes"/>
    </contour>
  </outline>
</glyph>
<glyph name="lambda" format="2">
  <advance width="600"/>
  <unicode hex="03BB"/>
  <outline>
    <contour>
      <point x="313" y="720" type="line"/>
      <point x="156" y="720" type="line"/>
      <point x="230" y="529" type="line"/>
      <point x="25" y="0" type="line"/>
      <point x="189" y="0" type="line"/>
      <point x="280" y="282" type="line" smooth="yes"/>
      <point x="293" y="322"/>
      <point x="296" y="393"/>
      <point x="296" y="393" type="curve"/>
      <point x="305" y="393" type="line"/>
      <point x="305" y="393"/>
      <point x="310" y="322"/>
      <point x="324" y="282" type="curve" smooth="yes"/>
      <point x="420" y="0" type="line"/>
      <point x="575" y="0" type="line"/>
    </contour>
  </outline>
</glyph>
<glyph name="uni0402" format="2">
  <advance width="600" height="985"/>
  <unicode hex="0402"/>
  <outline>
    <contour>
      <point x="0" y="720" type="line"/>
      <point x="360" y="720" type="line"/>
      <point x="360" y="580" type="line"/>
      <point x="250" y="580" type="line"/>
      <point x="250" y="420" type="line"/>
      <point x="264" y="434" type="line" smooth="yes"/>
      <point x="304" y="474"/>
      <point x="349" y="495"/>
      <point x="395" y="495" type="curve" smooth="yes"/>
      <point x="503" y="495"/>
      <point x="573" y="418"/>
      <point x="574" y="290" type="curve" smooth="yes"/>
      <point x="575" y="35" type="line" smooth="yes"/>
      <point x="575" y="-86"/>
      <point x="476" y="-170"/>
      <point x="335" y="-170" type="curve" smooth="yes"/>
      <point x="285" y="-170" type="line"/>
      <point x="285" y="-25" type="line"/>
      <point x="345" y="-25" type="line" smooth="yes"/>
      <point x="396" y="-25"/>
      <point x="425" y="3"/>
      <point x="425" y="51" type="curve" smooth="yes"/>
      <point x="424" y="285" type="line"/>
      <point x="424" y="338"/>
      <point x="402" y="365"/>
      <point x="360" y="365" type="curve" smooth="yes"/>
      <point x="332" y="365"/>
      <point x="307" y="353"/>
      <point x="283" y="329" type="curve" smooth="yes"/>
      <point x="250" y="296" type="line"/>
      <point x="250" y="0" type="line"/>
      <point x="100" y="0" type="line"/>
      <point x="100" y="580" type="line"/>
      <point x="0" y="580" type="line"/>
    </contour>
  </outline>
</glyph>
<glyph name="uni0409" format="2">
  <advance width="600" height="985"/>
  <unicode hex="0409"/>
  <outline>
    <contour>
      <point x="190" y="205" type="line" smooth="yes"/>
      <point x="188" y="79"/>
      <point x="121" y="-5"/>
      <point x="20" y="-5" type="curve" smooth="yes"/>
      <point x="-10" y="-5" type="line"/>
      <point x="-10" y="110" type="line"/>
      <point x="10" y="110" type="line" smooth="yes"/>
      <point x="46" y="110"/>
      <point x="69" y="148"/>
      <point x="70" y="205" type="curve" smooth="yes"/>
      <point x="77" y="720" type="line"/>
      <point x="395" y="720" type="line"/>
      <point x="395" y="445" type="line"/>
      <point x="400" y="445" type="line" smooth="yes"/>
      <point x="517" y="445"/>
      <point x="590" y="376"/>
      <point x="590" y="259" type="curve" smooth="yes"/>
      <point x="590" y="185" type="line" smooth="yes"/>
      <point x="590" y="69"/>
      <point x="517" y="0"/>
      <point x="400" y="0" type="curve" smooth="yes"/>
      <point x="275" y="0" type="line"/>
      <point x="275" y="610" type="line"/>
      <point x="195" y="610" type="line"/>
    </contour>
    <contour>
      <point x="395" y="335" type="line"/>
      <point x="395" y="110" type="line"/>
      <point x="400" y="110" type="line" smooth="yes"/>
      <point x="444" y="110"/>
      <point x="470" y="137"/>
      <point x="470" y="186" type="curve" smooth="yes"/>
      <point x="470" y="257" type="line" smooth="yes"/>
      <point x="470" y="307"/>
      <point x="444" y="335"/>
      <point x="400" y="335" type="curve" smooth="yes"/>
    </contour>
  </outline>
</glyph>
<glyph name="uni0411" format="2">
  <advance width="600" height="985"/>
  <unicode hex="0411"/>
  <outline>
    <contour>
      <point x="410" y="221" type="curve" smooth="yes"/>
      <point x="410" y="281"/>
      <point x="371" y="319"/>
      <point x="310" y="319" type="curve" smooth="yes"/>
      <point x="210" y="319" type="line"/>
      <point x="210" y="125" type="line"/>
      <point x="310" y="125" type="line" smooth="yes"/>
      <point x="371" y="125"/>
      <point x="410" y="162"/>
    </contour>
    <contour>
      <point x="528" y="720" type="line"/>
      <point x="528" y="580" type="line"/>
      <point x="210" y="580" type="line"/>
      <point x="210" y="444" type="line"/>
      <point x="309" y="444" type="line" smooth="yes"/>
      <point x="460" y="444"/>
      <point x="560" y="356"/>
      <point x="560" y="223" type="curve" smooth="yes"/>
      <point x="560" y="89"/>
      <point x="460" y="0"/>
      <point x="310" y="0" type="curve" smooth="yes"/>
      <point x="65" y="0" type="line"/>
      <point x="65" y="720" type="line"/>
    </contour>
  </outline>
</glyph>
<glyph name="uni0418" format="2">
  <advance width="600" height="985"/>
  <unicode hex="0418"/>
  <outline>
    <contour>
      <point x="58" y="720" type="line"/>
      <point x="190" y="720" type="line"/>
      <point x="190" y="309" type="line" smooth="yes"/>
      <point x="190" y="239"/>
      <point x="172" y="120"/>
      <point x="173" y="120" type="curve"/>
      <point x="187" y="120" type="line"/>
      <point x="187" y="120"/>
      <point x="197" y="194"/>
      <point x="210" y="236" type="curve" smooth="yes"/>
      <point x="357" y="720" type="line"/>
      <point x="542" y="720" type="line"/>
      <point x="542" y="0" type="line"/>
      <point x="410" y="0" type="line"/>
      <point x="410" y="412" type="line" smooth="yes"/>
      <point x="410" y="487"/>
      <point x="425" y="600"/>
      <point x="425" y="600" type="curve"/>
      <point x="411" y="600" type="line"/>
      <point x="411" y="600"/>
      <point x="402" y="534"/>
      <point x="387" y="484" type="curve" smooth="yes"/>
      <point x="243" y="0" type="line"/>
      <point x="58" y="0" type="line"/>
    </contour>
  </outline>
</glyph>
<glyph name="uni041B" format="2">
  <advance width="600" height="985"/>
  <unicode hex="041B"/>
  <outline>
    <contour>
      <point x="106" y="230" type="line" smooth="yes"/>
      <point x="105" y="171"/>
      <point x="80" y="130"/>
      <point x="45" y="130" type="curve" smooth="yes"/>
      <point x="15" y="130" type="line"/>
      <point x="15" y="-5" type="line"/>
      <point x="55" y="-5" type="line" smooth="yes"/>
      <point x="175" y="-5"/>
      <point x="253" y="86"/>
      <point x="255" y="230" type="curve" smooth="yes"/>
      <point x="259" y="580" type="line"/>
      <point x="390" y="580" type="line"/>
      <point x="390" y="0" type="line"/>
      <point x="540" y="0" type="line"/>
      <point x="540" y="720" type="line"/>
      <point x="112" y="720" type="line"/>
    </contour>
  </outline>
</glyph>
<glyph name="uni041F" format="2">
  <advance width="600" height="985"/>
  <unicode hex="041F"/>
  <outline>
    <contour>
      <point x="65" y="720" type="line"/>
      <point x="65" y="0" type="line"/>
      <point x="215" y="0" type="line"/>
      <point x="215" y="580" type="line"/>
      <point x="385" y="580" type="line"/>
      <point x="385" y="0" type="line"/>
      <point x="535" y="0" type="line"/>
      <point x="535" y="720" type="line"/>
    </contour>
  </outline>
</glyph>
<glyph name="uni0423" format="2">
  <advance width="600" height="985"/>
  <unicode hex="0423"/>
  <outline>
    <contour>
      <point x="318" y="0" type="line"/>
      <point x="161" y="0" type="line"/>
      <point x="236" y="185" type="line"/>
      <point x="20" y="720" type="line"/>
      <point x="182" y="720" type="line"/>
      <point x="283" y="433" type="line" smooth="yes"/>
      <point x="297" y="393"/>
      <point x="302" y="322"/>
      <point x="302" y="322" type="curve"/>
      <point x="311" y="322" type="line"/>
      <point x="311" y="322"/>
      <point x="314" y="393"/>
      <point x="327" y="433" type="curve" smooth="yes"/>
      <point x="423" y="720" type="line"/>
      <point x="580" y="720" type="line"/>
    </contour>
  </outline>
</glyph>
<glyph name="uni0426" format="2">
  <advance width="600" height="985"/>
  <unicode hex="0426"/>
  <outline>
    <contour>
      <point x="65" y="0" type="line"/>
      <point x="440" y="0" type="line"/>
      <point x="440" y="-135" type="line"/>
      <point x="580" y="-135" type="line"/>
      <point x="580" y="140" type="line"/>
      <point x="505" y="140" type="line"/>
      <point x="505" y="720" type="line"/>
      <point x="355" y="720" type="line"/>
      <point x="355" y="140" type="line"/>
      <point x="215" y="140" type="line"/>
      <point x="215" y="720" type="line"/>
      <point x="65" y="720" type="line"/>
    </contour>
  </outline>
</glyph>
<glyph name="uni042C" format="2">
  <advance width="600" height="985"/>
  <unicode hex="042C"/>
  <outline>
    <contour>
      <point x="420" y="222" type="curve" smooth="yes"/>
      <point x="420" y="279"/>
      <point x="377" y="315"/>
      <point x="310" y="315" type="curve" smooth="yes"/>
      <point x="215" y="315" type="line"/>
      <point x="215" y="130" type="line"/>
      <point x="310" y="130" type="line" smooth="yes"/>
      <point x="377" y="130"/>
      <point x="420" y="166"/>
    </contour>
    <contour>
      <point x="215" y="720" type="line"/>
      <point x="215" y="445" type="line"/>
      <point x="310" y="445" type="line" smooth="yes"/>
      <point x="468" y="445"/>
      <point x="570" y="358"/>
      <point x="570" y="223" type="curve" smooth="yes"/>
      <point x="570" y="88"/>
      <point x="468" y="0"/>
      <point x="310" y="0" type="curve" smooth="yes"/>
      <point x="65" y="0" type="line"/>
      <point x="65" y="720" type="line"/>
    </contour>
  </outline>
</glyph>
<glyph name="uni042D" format="2">
  <advance width="600" height="985"/>
  <unicode hex="042D"/>
  <outline>
    <contour>
      <point x="45" y="210" type="line"/>
      <point x="52" y="78"/>
      <point x="152" y="-10"/>
      <point x="295" y="-10" type="curve" smooth="yes"/>
      <point x="446" y="-10"/>
      <point x="547" y="81"/>
      <point x="547" y="210" type="curve" smooth="yes"/>
      <point x="547" y="511" type="line" smooth="yes"/>
      <point x="547" y="640"/>
      <point x="446" y="730"/>
      <point x="295" y="730" type="curve" smooth="yes"/>
      <point x="152" y="730"/>
      <point x="52" y="642"/>
      <point x="45" y="510" type="curve"/>
      <point x="195" y="510" type="line"/>
      <point x="195" y="562"/>
      <point x="234" y="595"/>
      <point x="295" y="595" type="curve" smooth="yes"/>
      <point x="357" y="595"/>
      <point x="397" y="562"/>
      <point x="397" y="511" type="curve" smooth="yes"/>
      <point x="397" y="430" type="line"/>
      <point x="196" y="430" type="line"/>
      <point x="196" y="299" type="line"/>
      <point x="397" y="299" type="line"/>
      <point x="397" y="210" type="line" smooth="yes"/>
      <point x="397" y="158"/>
      <point x="357" y="125"/>
      <point x="295" y="125" type="curve" smooth="yes"/>
      <point x="233" y="125"/>
      <point x="195" y="157"/>
      <point x="195" y="210" type="curve"/>
    </contour>
  </outline>
</glyph>
<glyph name="uni0432" format="2">
  <advance width="600" height="985"/>
  <unicode hex="0432"/>
  <outline>
    <contour>
      <point x="65" y="550" type="line"/>
      <point x="314" y="550" type="line" smooth="yes"/>
      <point x="448" y="550"/>
      <point x="534" y="492"/>
      <point x="534" y="400" type="curve" smooth="yes"/>
      <point x="534" y="336"/>
      <point x="484" y="296"/>
      <point x="400" y="293" type="curve"/>
      <point x="400" y="283" type="line"/>
      <point x="495" y="281"/>
      <point x="548" y="237"/>
      <point x="548" y="157" type="curve" smooth="yes"/>
      <point x="548" y="60"/>
      <point x="463" y="0"/>
      <point x="327" y="0" type="curve" smooth="yes"/>
      <point x="65" y="0" type="line"/>
    </contour>
    <contour>
      <point x="402" y="169" type="curve" smooth="yes"/>
      <point x="402" y="209"/>
      <point x="369" y="235"/>
      <point x="320" y="235" type="curve" smooth="yes"/>
      <point x="212" y="235" type="line"/>
      <point x="212" y="106" type="line"/>
      <point x="320" y="106" type="line" smooth="yes"/>
      <point x="369" y="106"/>
      <point x="402" y="131"/>
    </contour>
    <contour>
      <point x="389" y="383" type="curve" smooth="yes"/>
      <point x="389" y="420"/>
      <point x="360" y="445"/>
      <point x="315" y="445" type="curve" smooth="yes"/>
      <point x="212" y="445" type="line"/>
      <point x="212" y="323" type="line"/>
      <point x="315" y="323" type="line" smooth="yes"/>
      <point x="360" y="323"/>
      <point x="389" y="347"/>
    </contour>
  </outline>
</glyph>
<glyph name="uni0434" format="2">
  <advance width="600" height="985"/>
  <unicode hex="0434"/>
  <outline>
    <contour>
      <point x="198" y="139" type="curve"/>
      <point x="198" y="128" type="line"/>
      <point x="378" y="128" type="line"/>
      <point x="378" y="420" type="line"/>
      <point x="247" y="420" type="line"/>
      <point x="244" y="291" type="line" smooth="yes"/>
      <point x="242" y="184"/>
      <point x="198" y="139"/>
    </contour>
    <contour>
      <point x="160" y="0" type="line"/>
      <point x="160" y="-140" type="line"/>
      <point x="20" y="-140" type="line"/>
      <point x="20" y="128" type="line"/>
      <point x="48" y="128" type="line"/>
      <point x="48" y="128"/>
      <point x="101" y="179"/>
      <point x="103" y="290" type="curve" smooth="yes"/>
      <point x="108" y="550" type="line"/>
      <point x="520" y="550" type="line"/>
      <point x="520" y="128" type="line"/>
      <point x="580" y="128" type="line"/>
      <point x="580" y="-140" type="line"/>
      <point x="440" y="-140" type="line"/>
      <point x="440" y="0" type="line"/>
    </contour>
  </outline>
</glyph>
<glyph name="uni0436" format="2">
  <advance width="600" height="985"/>
  <unicode hex="0436"/>
  <outline>
    <contour>
      <point x="3" y="0" type="line"/>
      <point x="108" y="282" type="line"/>
      <point x="11" y="550" type="line"/>
      <point x="141" y="550" type="line"/>
      <point x="222" y="305" type="line"/>
      <point x="249" y="305" type="line"/>
      <point x="249" y="550" type="line"/>
      <point x="351" y="550" type="line"/>
      <point x="351" y="305" type="line"/>
      <point x="378" y="305" type="line"/>
      <point x="467" y="550" type="line"/>
      <point x="589" y="550" type="line"/>
      <point x="492" y="285" type="line"/>
      <point x="597" y="0" type="line"/>
      <point x="471" y="0" type="line"/>
      <point x="379" y="255" type="line"/>
      <point x="351" y="255" type="line"/>
      <point x="351" y="0" type="line"/>
      <point x="249" y="0" type="line"/>
      <point x="249" y="255" type="line"/>
      <point x="220" y="255" type="line"/>
      <point x="136" y="0" type="line"/>
    </contour>
  </outline>
</glyph>
<glyph name="uni0437" format="2">
  <advance width="600" height="985"/>
  <unicode hex="0437"/>
  <outline>
    <contour>
      <point x="47" y="390" type="curve"/>
      <point x="192" y="390" type="line"/>
      <point x="201" y="421"/>
      <point x="231" y="440"/>
      <point x="272" y="440" type="curve" smooth="yes"/>
      <point x="323" y="440" type="line" smooth="yes"/>
      <point x="365" y="440"/>
      <point x="388" y="422"/>
      <point x="388" y="389" type="curve" smooth="yes"/>
      <point x="388" y="357"/>
      <point x="364" y="338"/>
      <point x="323" y="338" type="curve" smooth="yes"/>
      <point x="195" y="338" type="line"/>
      <point x="195" y="224" type="line"/>
      <point x="329" y="224" type="line" smooth="yes"/>
      <point x="373" y="224"/>
      <point x="400" y="203"/>
      <point x="400" y="168" type="curve" smooth="yes"/>
      <point x="400" y="132"/>
      <point x="373" y="110"/>
      <point x="329" y="110" type="curve" smooth="yes"/>
      <point x="267" y="110" type="line" smooth="yes"/>
      <point x="226" y="110"/>
      <point x="194" y="129"/>
      <point x="185" y="160" type="curve"/>
      <point x="40" y="160" type="line"/>
      <point x="57" y="57"/>
      <point x="144" y="-7"/>
      <point x="267" y="-7" type="curve" smooth="yes"/>
      <point x="329" y="-7" type="line" smooth="yes"/>
      <point x="464" y="-7"/>
      <point x="550" y="57"/>
      <point x="550" y="157" type="curve" smooth="yes"/>
      <point x="550" y="234"/>
      <point x="498" y="279"/>
      <point x="406" y="283" type="curve"/>
      <point x="406" y="293" type="line"/>
      <point x="489" y="297"/>
      <point x="537" y="338"/>
      <point x="537" y="407" type="curve" smooth="yes"/>
      <point x="537" y="499"/>
      <point x="454" y="557"/>
      <point x="323" y="557" type="curve" smooth="yes"/>
      <point x="272" y="557" type="line" smooth="yes"/>
      <point x="149" y="557"/>
      <point x="64" y="493"/>
    </contour>
  </outline>
</glyph>
<glyph name="uni043A" format="2">
  <advance width="600" height="985"/>
  <unicode hex="043A"/>
  <outline>
    <contour>
      <point x="220" y="550" type="line"/>
      <point x="220" y="342" type="line"/>
      <point x="294" y="342" type="line"/>
      <point x="411" y="550" type="line"/>
      <point x="576" y="550" type="line"/>
      <point x="427" y="281" type="line"/>
      <point x="579" y="0" type="line"/>
      <point x="410" y="0" type="line"/>
      <point x="294" y="216" type="line"/>
      <point x="220" y="216" type="line"/>
      <point x="220" y="0" type="line"/>
      <point x="70" y="0" type="line"/>
      <point x="70" y="550" type="line"/>
    </contour>
  </outline>
</glyph>
<glyph name="uni043F" format="2">
  <advance width="600" height="985"/>
  <unicode hex="043F"/>
  <outline>
    <contour>
      <point x="65" y="550" type="line"/>
      <point x="65" y="0" type="line"/>
      <point x="215" y="0" type="line"/>
      <point x="215" y="410" type="line"/>
      <point x="385" y="410" type="line"/>
      <point x="385" y="0" type="line"/>
      <point x="535" y="0" type="line"/>
      <point x="535" y="550" type="line"/>
    </contour>
  </outline>
</glyph>
<glyph name="uni0444" format="2">
  <advance width="600" height="985"/>
  <unicode hex="0444"/>
  <outline>
    <contour>
      <point x="239" y="0" type="curve"/>
      <point x="239" y="-170" type="line"/>
      <point x="361" y="-170" type="line"/>
      <point x="361" y="0" type="line"/>
      <point x="491" y="0"/>
      <point x="570" y="79"/>
      <point x="570" y="207" type="curve" smooth="yes"/>
      <point x="570" y="344" type="line" smooth="yes"/>
      <point x="570" y="471"/>
      <point x="490" y="550"/>
      <point x="361" y="550" type="curve"/>
      <point x="361" y="720" type="line"/>
      <point x="239" y="720" type="line"/>
      <point x="239" y="550" type="line"/>
      <point x="108" y="550"/>
      <point x="30" y="477"/>
      <point x="30" y="344" type="curve" smooth="yes"/>
      <point x="30" y="207" type="line" smooth="yes"/>
      <point x="30" y="78"/>
      <point x="109" y="0"/>
    </contour>
    <contour>
      <point x="443" y="344" type="curve" smooth="yes"/>
      <point x="443" y="207" type="line" smooth="yes"/>
      <point x="443" y="152"/>
      <point x="410" y="118"/>
      <point x="357" y="118" type="curve"/>
      <point x="357" y="433" type="line"/>
      <point x="410" y="433"/>
      <point x="443" y="399"/>
    </contour>
    <contour>
      <point x="157" y="344" type="line" smooth="yes"/>
      <point x="157" y="399"/>
      <point x="190" y="433"/>
      <point x="243" y="433" type="curve"/>
      <point x="243" y="118" type="line"/>
      <point x="190" y="118"/>
      <point x="157" y="152"/>
      <point x="157" y="207" type="curve" smooth="yes"/>
    </contour>
  </outline>
</glyph>
<glyph name="uni0447" format="2">
  <advance width="600" height="985"/>
  <unicode hex="0447"/>
  <outline>
    <contour>
      <point x="290" y="300" type="line" smooth="yes"/>
      <point x="228" y="300"/>
      <point x="190" y="330"/>
      <point x="190" y="380" type="curve" smooth="yes"/>
      <point x="190" y="550" type="line"/>
      <point x="40" y="550" type="line"/>
      <point x="40" y="370" type="line" smooth="yes"/>
      <point x="40" y="242"/>
      <point x="129" y="165"/>
      <point x="275" y="165" type="curve" smooth="yes"/>
      <point x="380" y="165" type="line"/>
      <point x="380" y="0" type="line"/>
      <point x="530" y="0" type="line"/>
      <point x="530" y="550" type="line"/>
      <point x="380" y="550" type="line"/>
      <point x="380" y="300" type="line"/>
    </contour>
  </outline>
</glyph>
<glyph name="uni044A" format="2">
  <advance width="600" height="985"/>
  <unicode hex="044A"/>
  <outline>
    <contour>
      <point x="270" y="255" type="line"/>
      <point x="270" y="130" type="line"/>
      <point x="355" y="130" type="line" smooth="yes"/>
      <point x="405" y="130"/>
      <point x="434" y="153"/>
      <point x="434" y="192.5" type="curve" smooth="yes"/>
      <point x="434" y="232"/>
      <point x="405" y="255"/>
      <point x="355" y="255" type="curve" smooth="yes"/>
    </contour>
    <contour>
      <point x="0" y="550" type="line"/>
      <point x="270" y="550" type="line"/>
      <point x="270" y="385" type="line"/>
      <point x="364" y="385" type="line" smooth="yes"/>
      <point x="502" y="385"/>
      <point x="585" y="312"/>
      <point x="585" y="191" type="curve" smooth="yes"/>
      <point x="585" y="73"/>
      <point x="500" y="0"/>
      <point x="365" y="0" type="curve" smooth="yes"/>
      <point x="120" y="0" type="line"/>
      <point x="120" y="410" type="line"/>
      <point x="0" y="410" type="line"/>
    </contour>
  </outline>
</glyph>
<glyph name="uni044C" format="2">
  <advance width="600" height="985"/>
  <unicode hex="044C"/>
  <outline>
    <contour>
      <point x="424" y="192.5" type="curve" smooth="yes"/>
      <point x="424" y="232"/>
      <point x="395" y="255"/>
      <point x="345" y="255" type="curve" smooth="yes"/>
      <point x="220" y="255" type="line"/>
      <point x="220" y="130" type="line"/>
      <point x="345" y="130" type="line" smooth="yes"/>
      <point x="395" y="130"/>
      <point x="424" y="153"/>
    </contour>
    <contour>
      <point x="220" y="550" type="line"/>
      <point x="220" y="385" type="line"/>
      <point x="354" y="385" type="line" smooth="yes"/>
      <point x="492" y="385"/>
      <point x="575" y="312"/>
      <point x="575" y="191" type="curve" smooth="yes"/>
      <point x="575" y="73"/>
      <point x="490" y="0"/>
      <point x="355" y="0" type="curve" smooth="yes"/>
      <point x="70" y="0" type="line"/>
      <point x="70" y="550" type="line"/>
    </contour>
  </outline>
</glyph>
<glyph name="uni044D" format="2">
  <advance width="600" height="985"/>
  <unicode hex="044D"/>
  <outline>
    <contour>
      <point x="41" y="365" type="curve"/>
      <point x="191" y="365" type="line"/>
      <point x="199" y="403"/>
      <point x="242" y="430"/>
      <point x="295" y="430" type="curve" smooth="yes"/>
      <point x="357" y="430"/>
      <point x="397" y="400"/>
      <point x="397" y="345" type="curve" smooth="yes"/>
      <point x="397" y="334" type="line"/>
      <point x="233" y="334" type="line"/>
      <point x="233" y="220" type="line"/>
      <point x="397" y="220" type="line"/>
      <point x="397" y="204" type="line" smooth="yes"/>
      <point x="397" y="149"/>
      <point x="357" y="120"/>
      <point x="295" y="120" type="curve" smooth="yes"/>
      <point x="242" y="120"/>
      <point x="200" y="147"/>
      <point x="191" y="186" type="curve"/>
      <point x="41" y="186" type="line"/>
      <point x="62" y="67"/>
      <point x="162" y="-10"/>
      <point x="295" y="-10" type="curve" smooth="yes"/>
      <point x="446" y="-10"/>
      <point x="547" y="73"/>
      <point x="547" y="204" type="curve" smooth="yes"/>
      <point x="547" y="345" type="line" smooth="yes"/>
      <point x="547" y="476"/>
      <point x="446" y="560"/>
      <point x="295" y="560" type="curve" smooth="yes"/>
      <point x="162" y="560"/>
      <point x="62" y="483"/>
    </contour>
  </outline>
</glyph>
<glyph name="uni044E" format="2">
  <advance width="600" height="985"/>
  <unicode hex="044E"/>
  <outline>
    <contour>
      <point x="30" y="0" type="line"/>
      <point x="153" y="0" type="line"/>
      <point x="153" y="230" type="line"/>
      <point x="228" y="230" type="line"/>
      <point x="228" y="156" type="line" smooth="yes"/>
      <point x="228" y="56"/>
      <point x="287" y="-10"/>
      <point x="392" y="-10" type="curve" smooth="yes"/>
      <point x="497" y="-10"/>
      <point x="570" y="56"/>
      <point x="570" y="156" type="curve" smooth="yes"/>
      <point x="570" y="395" type="line" smooth="yes"/>
      <point x="570" y="495"/>
      <point x="498" y="560"/>
      <point x="392" y="560" type="curve" smooth="yes"/>
      <point x="287" y="560"/>
      <point x="228" y="494"/>
      <point x="228" y="395" type="curve" smooth="yes"/>
      <point x="228" y="325" type="line"/>
      <point x="153" y="325" type="line"/>
      <point x="153" y="550" type="line"/>
      <point x="30" y="550" type="line"/>
    </contour>
    <contour>
      <point x="392" y="450" type="curve" smooth="yes"/>
      <point x="424" y="450"/>
      <point x="447" y="427"/>
      <point x="447" y="395" type="curve" smooth="yes"/>
      <point x="447" y="156" type="line" smooth="yes"/>
      <point x="447" y="123"/>
      <point x="424" y="100"/>
      <point x="392" y="100" type="curve" smooth="yes"/>
      <point x="360" y="100"/>
      <point x="337" y="123"/>
      <point x="337" y="156" type="curve" smooth="yes"/>
      <point x="337" y="395" type="line" smooth="yes"/>
      <point x="337" y="427"/>
      <point x="360" y="450"/>
    </contour>
  </outline>
</glyph>
<glyph name="uni044F" format="2">
  <advance width="600" height="985"/>
  <unicode hex="044F"/>
  <outline>
    <contour>
      <point x="535" y="550" type="line" name="at01"/>
      <point x="275" y="550" type="line" smooth="yes"/>
      <point x="130" y="550"/>
      <point x="45" y="478"/>
      <point x="45" y="355" type="curve" smooth="yes" name="sh01"/>
      <point x="45" y="274"/>
      <point x="86" y="216"/>
      <point x="160" y="188" type="curve" name="iv01"/>
      <point x="35" y="0" type="line" name="ab01"/>
      <point x="207" y="0" type="line"/>
      <point x="308" y="170" type="line" name="dv01"/>
      <point x="385" y="170" type="line"/>
      <point x="385" y="0" type="line" name="ab02"/>
      <point x="535" y="0" type="line" name="sh02"/>
    </contour>
    <contour>
      <point x="195" y="357" type="curve" smooth="yes" name="sh03"/>
      <point x="195" y="403"/>
      <point x="230" y="430"/>
      <point x="285" y="430" type="curve" smooth="yes" name="sv01"/>
      <point x="385" y="430" type="line" name="sh04"/>
      <point x="385" y="285" type="line"/>
      <point x="285" y="285" type="line" smooth="yes" name="dv02"/>
      <point x="230" y="285"/>
      <point x="195" y="311"/>
    </contour>
  </outline>
</glyph>
<glyph name="uni0459" format="2">
  <advance width="600" height="985"/>
  <unicode hex="0459"/>
  <outline>
    <contour>
      <point x="395" y="264" type="line"/>
      <point x="430" y="264" type="line" smooth="yes"/>
      <point x="457" y="264"/>
      <point x="475" y="245"/>
      <point x="475" y="217" type="curve" smooth="yes"/>
      <point x="475" y="151" type="line" smooth="yes"/>
      <point x="475" y="126"/>
      <point x="457" y="110"/>
      <point x="430" y="110" type="curve" smooth="yes"/>
      <point x="395" y="110" type="line"/>
    </contour>
    <contour>
      <point x="197" y="440" type="line"/>
      <point x="275" y="440" type="line"/>
      <point x="275" y="0" type="line"/>
      <point x="431" y="0" type="line" smooth="yes"/>
      <point x="531" y="0"/>
      <point x="595" y="59"/>
      <point x="595" y="150" type="curve" smooth="yes"/>
      <point x="595" y="216" type="line" smooth="yes"/>
      <point x="595" y="313"/>
      <point x="530" y="375"/>
      <point x="430" y="375" type="curve" smooth="yes"/>
      <point x="395" y="375" type="line"/>
      <point x="395" y="550" type="line"/>
      <point x="79" y="550" type="line"/>
      <point x="74" y="205" type="line" smooth="yes"/>
      <point x="73" y="147"/>
      <point x="49" y="110"/>
      <point x="14" y="110" type="curve" smooth="yes"/>
      <point x="-6" y="110" type="line"/>
      <point x="-6" y="-5" type="line"/>
      <point x="24" y="-5" type="line" smooth="yes"/>
      <point x="124" y="-5"/>
      <point x="192" y="78"/>
      <point x="194" y="205" type="curve" smooth="yes"/>
    </contour>
  </outline>
</glyph>
<glyph name="uni0490" format="2">
  <advance width="600" height="985"/>
  <unicode hex="0490"/>
  <outline>
    <contour>
      <point x="395" y="720" type="line"/>
      <point x="395" y="825" type="line"/>
      <point x="540" y="825" type="line"/>
      <point x="540" y="580" type="line"/>
      <point x="245" y="580" type="line"/>
      <point x="245" y="0" type="line"/>
      <point x="95" y="0" type="line"/>
      <point x="95" y="720" type="line"/>
    </contour>
  </outline>
</glyph>
<glyph name="uni0491" format="2">
  <advance width="600" height="985"/>
  <unicode hex="0491"/>
  <outline>
    <contour>
      <point x="395" y="550" type="line"/>
      <point x="395" y="655" type="line"/>
      <point x="540" y="655" type="line"/>
      <point x="540" y="410" type="line"/>
      <point x="245" y="410" type="line"/>
      <point x="245" y="0" type="line"/>
      <point x="95" y="0" type="line"/>
      <point x="95" y="550" type="line"/>
    </contour>
  </outline>
</glyph>
<glyph name="quoteleft" format="2">
  <advance width="600" height="985"/>
  <unicode hex="2018"/>
  <outline>
    <contour>
      <point x="200" y="464" type="line"/>
      <point x="330" y="775" type="line"/>
      <point x="460" y="775" type="line"/>
      <point x="380" y="464" type="line"/>
    </contour>
  </outline>
</glyph>
<glyph name="quotedblleft" format="2">
  <advance width="600" height="985"/>
  <unicode hex="201C"/>
  <outline>
    <contour>
      <point x="25" y="464" type="line"/>
      <point x="155" y="775" type="line"/>
      <point x="285" y="775" type="line"/>
      <point x="205" y="464" type="line"/>
    </contour>
    <contour>
      <point x="300" y="464" type="line"/>
      <point x="430" y="775" type="line"/>
      <point x="560" y="775" type="line"/>
      <point x="480" y="464" type="line"/>
    </contour>
  </outline>
</glyph>
<glyph name="quotedblright" format="2">
  <advance width="600" height="985"/>
  <unicode hex="201D"/>
  <outline>
    <contour>
      <point x="575" y="776" type="line"/>
      <point x="445" y="465" type="line"/>
      <point x="315" y="465" type="line"/>
      <point x="395" y="776" type="line"/>
    </contour>
    <contour>
      <point x="300" y="776" type="line"/>
      <point x="170" y="465" type="line"/>
      <point x="40" y="465" type="line"/>
      <point x="120" y="776" type="line"/>
    </contour>
  </outline>
</glyph>
<glyph name="dagger" format="2">
  <advance width="600" height="985"/>
  <unicode hex="2020"/>
  <outline>
    <contour>
      <point x="375" y="480" type="line"/>
      <point x="375" y="-110" type="line"/>
      <point x="225" y="-110" type="line"/>
      <point x="225" y="480" type="line"/>
      <point x="70" y="480" type="line"/>
      <point x="70" y="620" type="line"/>
      <point x="225" y="620" type="line"/>
      <point x="225" y="830" type="line"/>
      <point x="375" y="830" type="line"/>
      <point x="375" y="620" type="line"/>
      <point x="530" y="620" type="line"/>
      <point x="530" y="480" type="line"/>
    </contour>
  </outline>
</glyph>
<glyph name="bullet" format="2">
  <advance width="600" height="985"/>
  <unicode hex="2022"/>
  <outline>
    <contour>
      <point x="165" y="365" type="curve" smooth="yes"/>
      <point x="165" y="444.65"/>
      <point x="220.35" y="500"/>
      <point x="300" y="500" type="curve" smooth="yes"/>
      <point x="379.65" y="500"/>
      <point x="435" y="444.65"/>
      <point x="435" y="365" type="curve" smooth="yes"/>
      <point x="435" y="285.35"/>
      <point x="379.65" y="230"/>
      <point x="300" y="230" type="curve" smooth="yes"/>
      <point x="220.35" y="230"/>
      <point x="165" y="285.35"/>
    </contour>
  </outline>
</glyph>
<glyph name="perthousand" format="2">
  <advance width="600" height="985"/>
  <unicode hex="2030"/>
  <outline>
    <contour>
      <point x="570" y="505" type="line"/>
      <point x="570" y="424" type="line"/>
      <point x="30" y="264" type="line"/>
      <point x="30" y="345" type="line"/>
    </contour>
    <contour>
      <point x="167" y="105" type="curve" smooth="yes"/>
      <point x="167" y="180" type="line" smooth="yes"/>
      <point x="167" y="250"/>
      <point x="219" y="290"/>
      <point x="284" y="290" type="curve" smooth="yes"/>
      <point x="359" y="290"/>
      <point x="375" y="226"/>
      <point x="375" y="226" type="curve"/>
      <point x="375" y="226"/>
      <point x="392" y="290"/>
      <point x="467" y="290" type="curve" smooth="yes"/>
      <point x="532" y="290"/>
      <point x="584" y="250"/>
      <point x="584" y="180" type="curve" smooth="yes"/>
      <point x="584" y="105" type="line" smooth="yes"/>
      <point x="584" y="35"/>
      <point x="532" y="-5"/>
      <point x="467" y="-5" type="curve" smooth="yes"/>
      <point x="392" y="-5"/>
      <point x="376" y="59"/>
      <point x="376" y="59" type="curve"/>
      <point x="376" y="59"/>
      <point x="359" y="-5"/>
      <point x="284" y="-5" type="curve" smooth="yes"/>
      <point x="219" y="-5"/>
      <point x="167" y="35"/>
    </contour>
    <contour>
      <point x="414" y="180" type="curve" smooth="yes"/>
      <point x="414" y="105" type="line" smooth="yes"/>
      <point x="414" y="79"/>
      <point x="432" y="61"/>
      <point x="460" y="61" type="curve" smooth="yes"/>
      <point x="485" y="61"/>
      <point x="502" y="79"/>
      <point x="502" y="105" type="curve" smooth="yes"/>
      <point x="502" y="180" type="line" smooth="yes"/>
      <point x="502" y="206"/>
      <point x="485" y="224"/>
      <point x="460" y="224" type="curve" smooth="yes"/>
      <point x="432" y="224"/>
      <point x="414" y="206"/>
    </contour>
    <contour>
      <point x="292" y="61" type="curve" smooth="yes"/>
      <point x="320" y="61"/>
      <point x="336" y="79"/>
      <point x="336" y="105" type="curve" smooth="yes"/>
      <point x="336" y="180" type="line" smooth="yes"/>
      <point x="336" y="206"/>
      <point x="320" y="224"/>
      <point x="292" y="224" type="curve" smooth="yes"/>
      <point x="267" y="224"/>
      <point x="249" y="206"/>
      <point x="249" y="180" type="curve" smooth="yes"/>
      <point x="249" y="105" type="line" smooth="yes"/>
      <point x="249" y="79"/>
      <point x="267" y="61"/>
    </contour>
    <contour>
      <point x="160" y="656" type="curve" smooth="yes"/>
      <point x="133" y="656"/>
      <point x="115" y="638"/>
      <point x="115" y="610" type="curve" smooth="yes"/>
      <point x="115" y="545" type="line" smooth="yes"/>
      <point x="115" y="518"/>
      <point x="133" y="500"/>
      <point x="160" y="500" type="curve" smooth="yes"/>
      <point x="187" y="500"/>
      <point x="205" y="518"/>
      <point x="205" y="545" type="curve" smooth="yes"/>
      <point x="205" y="610" type="line" smooth="yes"/>
      <point x="205" y="638"/>
      <point x="187" y="656"/>
    </contour>
    <contour>
      <point x="160" y="430" type="curve" smooth="yes"/>
      <point x="82" y="430"/>
      <point x="30" y="476"/>
      <point x="30" y="545" type="curve" smooth="yes"/>
      <point x="30" y="610" type="line" smooth="yes"/>
      <point x="30" y="679"/>
      <point x="82" y="725"/>
      <point x="160" y="725" type="curve" smooth="yes"/>
      <point x="238" y="725"/>
      <point x="290" y="679"/>
      <point x="290" y="610" type="curve" smooth="yes"/>
      <point x="290" y="545" type="line" smooth="yes"/>
      <point x="290" y="476"/>
      <point x="238" y="430"/>
    </contour>
  </outline>
</glyph>
<glyph name="guilsinglleft" format="2">
  <advance width="600" height="985"/>
  <unicode hex="2039"/>
  <outline>
    <contour>
      <point x="140" y="280" type="line"/>
      <point x="305" y="40" type="line"/>
      <point x="460" y="40" type="line"/>
      <point x="319" y="244" type="line" smooth="yes"/>
      <point x="301" y="270"/>
      <point x="283" y="279"/>
      <point x="283" y="279" type="curve"/>
      <point x="283" y="281" type="line"/>
      <point x="283" y="281"/>
      <point x="300" y="289"/>
      <point x="319" y="316" type="curve" smooth="yes"/>
      <point x="460" y="520" type="line"/>
      <point x="305" y="520" type="line"/>
    </contour>
  </outline>
</glyph>
<glyph name="uni2070" format="2">
  <advance width="600" height="985"/>
  <unicode hex="2070"/>
  <outline>
    <contour>
      <point x="300" y="695" type="curve" smooth="yes"/>
      <point x="264" y="695"/>
      <point x="240" y="671"/>
      <point x="240" y="635" type="curve" smooth="yes"/>
      <point x="240" y="570" type="line" smooth="yes"/>
      <point x="240" y="534"/>
      <point x="264" y="510"/>
      <point x="300" y="510" type="curve" smooth="yes"/>
      <point x="336" y="510"/>
      <point x="360" y="534"/>
      <point x="360" y="570" type="curve" smooth="yes"/>
      <point x="360" y="635" type="line" smooth="yes"/>
      <point x="360" y="671"/>
      <point x="336" y="695"/>
    </contour>
    <contour>
      <point x="300" y="435" type="curve" smooth="yes"/>
      <point x="216" y="435"/>
      <point x="160" y="489"/>
      <point x="160" y="570" type="curve" smooth="yes"/>
      <point x="160" y="635" type="line" smooth="yes"/>
      <point x="160" y="716"/>
      <point x="216" y="770"/>
      <point x="300" y="770" type="curve" smooth="yes"/>
      <point x="384" y="770"/>
      <point x="440" y="716"/>
      <point x="440" y="635" type="curve" smooth="yes"/>
      <point x="440" y="570" type="line" smooth="yes"/>
      <point x="440" y="489"/>
      <point x="384" y="435"/>
    </contour>
  </outline>
</glyph>
<glyph name="dong" format="2">
  <advance width="600"/>
  <unicode hex="20AB"/>
  <outline>
    <contour>
      <point x="392" y="720" type="line"/>
      <point x="537" y="720" type="line"/>
      <point x="537" y="660" type="line"/>
      <point x="597" y="660" type="line"/>
      <point x="597" y="570" type="line"/>
      <point x="537" y="570" type="line"/>
      <point x="537" y="60" type="line"/>
      <point x="397" y="60" type="line"/>
      <point x="397" y="156" type="line"/>
      <point x="387" y="156" type="line"/>
      <point x="377.216" y="91.4281"/>
      <point x="319.764" y="50"/>
      <point x="240" y="50" type="curve" smooth="yes"/>
      <point x="123.398" y="50"/>
      <point x="49" y="135.694"/>
      <point x="49" y="270" type="curve" smooth="yes"/>
      <point x="49" y="305" type="line" smooth="yes"/>
      <point x="49" y="435.789"/>
      <point x="123.81" y="520"/>
      <point x="240" y="520" type="curve" smooth="yes"/>
      <point x="319.5" y="520"/>
      <point x="377.185" y="478.796"/>
      <point x="387" y="415" type="curve"/>
      <point x="397" y="415" type="line"/>
      <point x="397" y="415"/>
      <point x="392" y="475"/>
      <point x="392" y="510" type="curve" smooth="yes"/>
      <point x="392" y="570" type="line"/>
      <point x="267" y="570" type="line"/>
      <point x="267" y="660" type="line"/>
      <point x="392" y="660" type="line"/>
    </contour>
    <contour>
      <point x="292" y="400" type="curve" smooth="yes"/>
      <point x="230.06" y="400"/>
      <point x="194" y="365.044"/>
      <point x="194" y="305" type="curve" smooth="yes"/>
      <point x="194" y="270" type="line" smooth="yes"/>
      <point x="194" y="206.914"/>
      <point x="230.176" y="170"/>
      <point x="292" y="170" type="curve" smooth="yes"/>
      <point x="355.098" y="170"/>
      <point x="392" y="206.902"/>
      <point x="392" y="270" type="curve" smooth="yes"/>
      <point x="392" y="305" type="line" smooth="yes"/>
      <point x="392" y="364.49"/>
      <point x="354.621" y="400"/>
    </contour>
    <contour>
      <point x="60" y="0" type="line"/>
      <point x="540" y="0" type="line"/>
      <point x="540" y="-100" type="line"/>
      <point x="60" y="-100" type="line"/>
    </contour>
  </outline>
</glyph>
<glyph name="Euro" format="2">
  <advance width="600" height="985"/>
  <unicode hex="20AC"/>
  <outline>
    <contour>
      <point x="10" y="495" type="line"/>
      <point x="10" y="400" type="line"/>
      <point x="68" y="400" type="line"/>
      <point x="68" y="320" type="line"/>
      <point x="10" y="320" type="line"/>
      <point x="10" y="225" type="line"/>
      <point x="68" y="225" type="line"/>
      <point x="68" y="215" type="line" smooth="yes"/>
      <point x="68" y="80"/>
      <point x="168.4" y="-10"/>
      <point x="319" y="-10" type="curve" smooth="yes" name="ab01"/>
      <point x="469.6" y="-10"/>
      <point x="570" y="80"/>
      <point x="570" y="215" type="curve" name="sv01"/>
      <point x="420" y="215" type="line" name="ah01"/>
      <point x="420" y="158.47"/>
      <point x="382.439" y="125"/>
      <point x="319" y="125" type="curve" smooth="yes" name="sv02"/>
      <point x="255.178" y="125"/>
      <point x="218" y="158.129"/>
      <point x="218" y="215" type="curve" smooth="yes"/>
      <point x="218" y="225" type="line"/>
      <point x="365" y="225" type="line"/>
      <point x="365" y="320" type="line"/>
      <point x="218" y="320" type="line"/>
      <point x="218" y="400" type="line"/>
      <point x="365" y="400" type="line"/>
      <point x="365" y="495" type="line"/>
      <point x="218" y="495" type="line"/>
      <point x="218" y="505" type="line" smooth="yes" name="sh02"/>
      <point x="218" y="561.575"/>
      <point x="256.2" y="595"/>
      <point x="320" y="595" type="curve" smooth="yes" name="sv03"/>
      <point x="382.853" y="595"/>
      <point x="420" y="561.568"/>
      <point x="420" y="505" type="curve" name="sv04"/>
      <point x="570" y="505" type="line" name="sh03"/>
      <point x="570" y="640"/>
      <point x="470" y="730"/>
      <point x="320" y="730" type="curve" smooth="yes" name="at01"/>
      <point x="168.8" y="730"/>
      <point x="68" y="640"/>
      <point x="68" y="505" type="curve" smooth="yes" name="sh01"/>
      <point x="68" y="495" type="line"/>
    </contour>
  </outline>
</glyph>
<glyph name="uni20BD" format="2">
  <advance width="600"/>
  <unicode hex="20BD"/>
  <outline>
    <contour>
      <point x="90" y="720" type="line"/>
      <point x="315" y="720" type="line" smooth="yes"/>
      <point x="473" y="720"/>
      <point x="570" y="638"/>
      <point x="570" y="505" type="curve" smooth="yes"/>
      <point x="570" y="371"/>
      <point x="474" y="290"/>
      <point x="315" y="290" type="curve" smooth="yes"/>
      <point x="240" y="290" type="line"/>
      <point x="240" y="230" type="line"/>
      <point x="445" y="230" type="line"/>
      <point x="445" y="115" type="line"/>
      <point x="240" y="115" type="line"/>
      <point x="240" y="0" type="line"/>
      <point x="90" y="0" type="line"/>
      <point x="90" y="115" type="line"/>
      <point x="15" y="115" type="line"/>
      <point x="15" y="230" type="line"/>
      <point x="90" y="230" type="line"/>
      <point x="90" y="290" type="line"/>
      <point x="15" y="290" type="line"/>
      <point x="15" y="410" type="line"/>
      <point x="90" y="410" type="line"/>
    </contour>
    <contour>
      <point x="240" y="600" type="line"/>
      <point x="240" y="410" type="line"/>
      <point x="315" y="410" type="line" smooth="yes"/>
      <point x="381" y="410"/>
      <point x="420" y="445"/>
      <point x="420" y="505" type="curve" smooth="yes"/>
      <point x="420" y="565"/>
      <point x="381" y="600"/>
      <point x="315" y="600" type="curve" smooth="yes"/>
    </contour>
  </outline>
</glyph>
<glyph name="uni2113" format="2">
  <advance width="600" height="985"/>
  <unicode hex="2113"/>
  <outline>
    <contour>
      <point x="329" y="730" type="curve" smooth="yes"/>
      <point x="212" y="730"/>
      <point x="134" y="656"/>
      <point x="134" y="545" type="curve" smooth="yes"/>
      <point x="134" y="180" type="line" smooth="yes"/>
      <point x="134" y="62"/>
      <point x="221" y="-10"/>
      <point x="339" y="-10" type="curve" smooth="yes"/>
      <point x="467" y="-10"/>
      <point x="520" y="93"/>
      <point x="520" y="93" type="curve"/>
      <point x="408" y="170" type="line"/>
      <point x="408" y="170"/>
      <point x="383" y="125"/>
      <point x="339" y="125" type="curve" smooth="yes"/>
      <point x="305" y="125"/>
      <point x="284" y="146"/>
      <point x="284" y="180" type="curve" smooth="yes"/>
      <point x="284" y="545" type="line" smooth="yes"/>
      <point x="284" y="578"/>
      <point x="302" y="600"/>
      <point x="329" y="600" type="curve" smooth="yes"/>
      <point x="356" y="600"/>
      <point x="374" y="578"/>
      <point x="374" y="545" type="curve" smooth="yes"/>
      <point x="374" y="513" type="line" smooth="yes"/>
      <point x="374" y="459"/>
      <point x="343" y="415"/>
      <point x="291" y="395" type="curve" smooth="yes"/>
      <point x="30" y="295" type="line"/>
      <point x="72" y="181" type="line"/>
      <point x="333" y="281" type="line" smooth="yes"/>
      <point x="443" y="323"/>
      <point x="514" y="413"/>
      <point x="514" y="513" type="curve" smooth="yes"/>
      <point x="514" y="545" type="line" smooth="yes"/>
      <point x="514" y="656"/>
      <point x="440" y="730"/>
    </contour>
  </outline>
</glyph>
<glyph name="trademark" format="2">
  <advance width="600" height="985"/>
  <unicode hex="2122"/>
  <outline>
    <contour>
      <point x="310" y="730" type="line"/>
      <point x="390" y="730" type="line"/>
      <point x="424" y="628" type="line" smooth="yes"/>
      <point x="433" y="602"/>
      <point x="436" y="560"/>
      <point x="436" y="560" type="curve"/>
      <point x="442" y="560" type="line"/>
      <point x="442" y="560"/>
      <point x="446" y="602"/>
      <point x="454" y="628" type="curve" smooth="yes"/>
      <point x="487" y="730" type="line"/>
      <point x="565" y="730" type="line"/>
      <point x="565" y="370" type="line"/>
      <point x="510" y="370" type="line"/>
      <point x="510" y="621" type="line" smooth="yes"/>
      <point x="510" y="644"/>
      <point x="517" y="690"/>
      <point x="517" y="690" type="curve"/>
      <point x="508" y="690" type="line"/>
      <point x="508" y="690"/>
      <point x="500" y="643"/>
      <point x="494" y="620" type="curve" smooth="yes"/>
      <point x="464" y="510" type="line"/>
      <point x="412" y="510" type="line"/>
      <point x="380" y="621" type="line" smooth="yes"/>
      <point x="373" y="644"/>
      <point x="365" y="690"/>
      <point x="365" y="690" type="curve"/>
      <point x="357" y="690" type="line"/>
      <point x="357" y="690"/>
      <point x="365" y="644"/>
      <point x="365" y="621" type="curve" smooth="yes"/>
      <point x="365" y="370" type="line"/>
      <point x="310" y="370" type="line"/>
    </contour>
    <contour>
      <point x="275" y="730" type="line"/>
      <point x="275" y="680" type="line"/>
      <point x="175" y="680" type="line"/>
      <point x="175" y="370" type="line"/>
      <point x="115" y="370" type="line"/>
      <point x="115" y="680" type="line"/>
      <point x="15" y="680" type="line"/>
      <point x="15" y="730" type="line"/>
    </contour>
  </outline>
</glyph>
<glyph name="existential" format="2">
  <advance width="600"/>
  <unicode hex="2203"/>
  <outline>
    <contour>
      <point x="520" y="720" type="line" name="at01"/>
      <point x="65" y="720" type="line"/>
      <point x="65" y="590" type="line" name="sv01"/>
      <point x="370" y="590" type="line" name="dh01"/>
      <point x="370" y="434" type="line"/>
      <point x="100" y="434" type="line" name="dv02"/>
      <point x="100" y="304" type="line" name="dv01"/>
      <point x="370" y="304" type="line" name="sh01"/>
      <point x="370" y="130" type="line" name="sv02"/>
      <point x="65" y="130" type="line"/>
      <point x="65" y="0" type="line" name="ab01"/>
      <point x="520" y="0" type="line"/>
    </contour>
  </outline>
</glyph>
<glyph name="suchthat" format="2">
  <advance width="600"/>
  <unicode hex="220B"/>
  <outline>
    <contour>
      <point x="25" y="530" type="line" name="dh02"/>
      <point x="25" y="660" type="line" name="dh01"/>
      <point x="330" y="660" type="line" smooth="yes"/>
      <point x="481" y="660"/>
      <point x="575" y="573"/>
      <point x="575" y="432" type="curve" smooth="yes" name="dv01"/>
      <point x="575" y="288" type="line" smooth="yes" name="sv01"/>
      <point x="575" y="146"/>
      <point x="482" y="60"/>
      <point x="330" y="60" type="curve" smooth="yes"/>
      <point x="25" y="60" type="line" name="dh04"/>
      <point x="25" y="190" type="line" name="dh03"/>
      <point x="330" y="190" type="line" smooth="yes"/>
      <point x="392" y="190"/>
      <point x="430" y="228"/>
      <point x="430" y="290" type="curve" smooth="yes" name="sv03"/>
      <point x="430" y="299" type="line"/>
      <point x="25" y="299" type="line" name="dv03"/>
      <point x="25" y="420" type="line" name="sv04"/>
      <point x="430" y="420" type="line"/>
      <point x="430" y="430" type="line" smooth="yes"/>
      <point x="430" y="492"/>
      <point x="392" y="530"/>
      <point x="330" y="530" type="curve" smooth="yes"/>
    </contour>
  </outline>
</glyph>
<glyph name="uni220C" format="2">
  <advance width="600"/>
  <unicode hex="220C"/>
  <outline>
    <contour>
      <point x="359.439" y="780" type="line"/>
      <point x="449.854" y="780" type="line"/>
      <point x="170.854" y="-60" type="line"/>
      <point x="80.4388" y="-60" type="line"/>
    </contour>
    <contour>
      <point x="25" y="660" type="line" name="dh01"/>
      <point x="330" y="660" type="line" smooth="yes"/>
      <point x="481" y="660"/>
      <point x="575" y="573"/>
      <point x="575" y="432" type="curve" smooth="yes" name="dv01"/>
      <point x="575" y="288" type="line" smooth="yes" name="sv01"/>
      <point x="575" y="146"/>
      <point x="482" y="60"/>
      <point x="330" y="60" type="curve" smooth="yes"/>
      <point x="25" y="60" type="line" name="dh04"/>
      <point x="25" y="185" type="line" name="dh03"/>
      <point x="330" y="185" type="line" smooth="yes"/>
      <point x="392" y="185"/>
      <point x="435" y="228"/>
      <point x="435" y="290" type="curve" smooth="yes" name="sv03"/>
      <point x="435" y="302" type="line"/>
      <point x="25" y="302" type="line" name="dv03"/>
      <point x="25" y="417" type="line" name="sv04"/>
      <point x="435" y="417" type="line"/>
      <point x="435" y="430" type="line" smooth="yes"/>
      <point x="435" y="492"/>
      <point x="392" y="535"/>
      <point x="330" y="535" type="curve" smooth="yes"/>
      <point x="25" y="535" type="line" name="dh02"/>
    </contour>
  </outline>
</glyph>
<glyph name="product" format="2">
  <advance width="600" height="985"/>
  <unicode hex="220F"/>
  <outline>
    <contour>
      <point x="20" y="720" type="line"/>
      <point x="20" y="580" type="line"/>
      <point x="80" y="580" type="line"/>
      <point x="80" y="-170" type="line"/>
      <point x="230" y="-170" type="line"/>
      <point x="230" y="580" type="line"/>
      <point x="370" y="580" type="line"/>
      <point x="370" y="-170" type="line"/>
      <point x="520" y="-170" type="line"/>
      <point x="520" y="580" type="line"/>
      <point x="580" y="580" type="line"/>
      <point x="580" y="720" type="line"/>
    </contour>
  </outline>
</glyph>
<glyph name="uni2210" format="2">
  <advance width="600"/>
  <unicode hex="2210"/>
  <outline>
    <contour>
      <point x="20" y="-170" type="line"/>
      <point x="580" y="-170" type="line"/>
      <point x="580" y="-30" type="line"/>
      <point x="520" y="-30" type="line"/>
      <point x="520" y="720" type="line"/>
      <point x="370" y="720" type="line"/>
      <point x="370" y="-30" type="line"/>
      <point x="230" y="-30" type="line"/>
      <point x="230" y="720" type="line"/>
      <point x="80" y="720" type="line"/>
      <point x="80" y="-30" type="line"/>
      <point x="20" y="-30" type="line"/>
    </contour>
  </outline>
</glyph>
<glyph name="radical" format="2">
  <advance width="600" height="985"/>
  <unicode hex="221A"/>
  <outline>
    <contour>
      <point x="5" y="415" type="line"/>
      <point x="5" y="550" type="line"/>
      <point x="205" y="550" type="line"/>
      <point x="284" y="218" type="line" smooth="yes"/>
      <point x="296" y="169"/>
      <point x="300" y="110"/>
      <point x="300" y="110" type="curve"/>
      <point x="306" y="110" type="line"/>
      <point x="306" y="110"/>
      <point x="309" y="169"/>
      <point x="322" y="218" type="curve" smooth="yes"/>
      <point x="455" y="730" type="line"/>
      <point x="605" y="730" type="line"/>
      <point x="394" y="0" type="line"/>
      <point x="208" y="0" type="line"/>
      <point x="98" y="415" type="line"/>
    </contour>
  </outline>
</glyph>
<glyph name="uni2223" format="2">
  <advance width="600"/>
  <unicode hex="2223"/>
  <outline>
    <contour>
      <point x="375" y="720.483" type="line"/>
      <point x="375" y="-0.0352783" type="line" name="sv02"/>
      <point x="225" y="-0.0352783" type="line" name="sv04"/>
      <point x="225" y="720.483" type="line" name="sv05"/>
    </contour>
  </outline>
</glyph>
<glyph name="uni2225" format="2">
  <advance width="600"/>
  <unicode hex="2225"/>
  <outline>
    <contour>
      <point x="265" y="720.483" type="line"/>
      <point x="265" y="-0.0352783" type="line" name="sv02"/>
      <point x="115" y="-0.0352783" type="line" name="sv04"/>
      <point x="115" y="720.483" type="line" name="sv05"/>
    </contour>
    <contour>
      <point x="485" y="720.483" type="line"/>
      <point x="485" y="-0.0352783" type="line" name="sv02"/>
      <point x="335" y="-0.0352783" type="line" name="sv04"/>
      <point x="335" y="720.483" type="line" name="sv05"/>
    </contour>
  </outline>
</glyph>
<glyph name="logicaland" format="2">
  <advance width="600"/>
  <unicode hex="2227"/>
  <outline>
    <contour>
      <point x="304" y="434" type="curve"/>
      <point x="290" y="434" type="line"/>
      <point x="290" y="434"/>
      <point x="288" y="382"/>
      <point x="271" y="332" type="curve" smooth="yes"/>
      <point x="173" y="50" type="line" name="at01"/>
      <point x="20" y="50" type="line"/>
      <point x="209" y="550" type="line" name="ab01"/>
      <point x="389" y="550" type="line"/>
      <point x="580" y="50" type="line" name="at02"/>
      <point x="425" y="50" type="line"/>
      <point x="323" y="332" type="line" smooth="yes"/>
      <point x="305" y="382"/>
      <point x="304" y="434"/>
    </contour>
  </outline>
</glyph>
<glyph name="logicalor" format="2">
  <advance width="600"/>
  <unicode hex="2228"/>
  <outline>
    <contour>
      <point x="296" y="176" type="curve"/>
      <point x="310" y="176" type="line"/>
      <point x="310" y="176"/>
      <point x="311" y="228"/>
      <point x="329" y="278" type="curve" smooth="yes"/>
      <point x="427" y="550" type="line" name="at01"/>
      <point x="580" y="550" type="line"/>
      <point x="391" y="60" type="line" name="ab01"/>
      <point x="211" y="60" type="line"/>
      <point x="20" y="550" type="line" name="at02"/>
      <point x="175" y="550" type="line"/>
      <point x="277" y="278" type="line" smooth="yes"/>
      <point x="296" y="228"/>
      <point x="296" y="176"/>
    </contour>
  </outline>
</glyph>
<glyph name="uni2237" format="2">
  <advance width="600"/>
  <unicode hex="2237"/>
  <outline>
    <contour>
      <point x="150" y="-10" type="curve" smooth="yes"/>
      <point x="209" y="-10"/>
      <point x="250" y="29"/>
      <point x="250" y="85" type="curve" smooth="yes"/>
      <point x="250" y="145"/>
      <point x="209" y="186"/>
      <point x="150" y="186" type="curve" smooth="yes"/>
      <point x="91" y="186"/>
      <point x="50" y="145"/>
      <point x="50" y="85" type="curve" smooth="yes"/>
      <point x="50" y="29"/>
      <point x="91" y="-10"/>
    </contour>
    <contour>
      <point x="150" y="314" type="curve" smooth="yes"/>
      <point x="209" y="314"/>
      <point x="250" y="353"/>
      <point x="250" y="409" type="curve" smooth="yes"/>
      <point x="250" y="469"/>
      <point x="209" y="510"/>
      <point x="150" y="510" type="curve" smooth="yes"/>
      <point x="91" y="510"/>
      <point x="50" y="469"/>
      <point x="50" y="409" type="curve" smooth="yes"/>
      <point x="50" y="353"/>
      <point x="91" y="314"/>
    </contour>
    <contour>
      <point x="450" y="-10" type="curve" smooth="yes"/>
      <point x="509" y="-10"/>
      <point x="550" y="29"/>
      <point x="550" y="85" type="curve" smooth="yes"/>
      <point x="550" y="145"/>
      <point x="509" y="186"/>
      <point x="450" y="186" type="curve" smooth="yes"/>
      <point x="391" y="186"/>
      <point x="350" y="145"/>
      <point x="350" y="85" type="curve" smooth="yes"/>
      <point x="350" y="29"/>
      <point x="391" y="-10"/>
    </contour>
    <contour>
      <point x="450" y="314" type="curve" smooth="yes"/>
      <point x="509" y="314"/>
      <point x="550" y="353"/>
      <point x="550" y="409" type="curve" smooth="yes"/>
      <point x="550" y="469"/>
      <point x="509" y="510"/>
      <point x="450" y="510" type="curve" smooth="yes"/>
      <point x="391" y="510"/>
      <point x="350" y="469"/>
      <point x="350" y="409" type="curve" smooth="yes"/>
      <point x="350" y="353"/>
      <point x="391" y="314"/>
    </contour>
  </outline>
</glyph>
<glyph name="uni2249" format="2">
  <advance width="600"/>
  <unicode hex="2249"/>
  <outline>
    <component base="approxequal" yOffset="30"/>
    <contour>
      <point x="419.146" y="780" type="line"/>
      <point x="500" y="780" type="line"/>
      <point x="180.561" y="-60" type="line"/>
      <point x="100" y="-60" type="line"/>
    </contour>
  </outline>
</glyph>
<glyph name="greaterequal" format="2">
  <advance width="600" height="985"/>
  <unicode hex="2265"/>
  <outline>
    <component base="greater" yOffset="125"/>
    <contour>
      <point x="70" y="140" type="line"/>
      <point x="530" y="140" type="line"/>
      <point x="530" y="0" type="line"/>
      <point x="70" y="0" type="line"/>
    </contour>
  </outline>
</glyph>
<glyph name="propersubset" format="2">
  <advance width="600"/>
  <unicode hex="2282"/>
  <outline>
    <contour>
      <point x="575" y="615" type="line" name="dh01"/>
      <point x="575" y="475" type="line" name="dh02"/>
      <point x="279" y="475" type="line" smooth="yes"/>
      <point x="214.912" y="475"/>
      <point x="175" y="438.542"/>
      <point x="175" y="380" type="curve" smooth="yes"/>
      <point x="175" y="340" type="line" smooth="yes" name="sv03"/>
      <point x="175" y="280.747"/>
      <point x="214.134" y="245"/>
      <point x="279" y="245" type="curve" smooth="yes"/>
      <point x="575" y="245" type="line" name="dh03"/>
      <point x="575" y="105" type="line" name="dh04"/>
      <point x="275" y="105" type="line" smooth="yes"/>
      <point x="125" y="105"/>
      <point x="25" y="198.2"/>
      <point x="25" y="338" type="curve" smooth="yes" name="sv01"/>
      <point x="25" y="382" type="line" smooth="yes" name="dv01"/>
      <point x="25" y="521.8"/>
      <point x="125" y="615"/>
      <point x="275" y="615" type="curve" smooth="yes"/>
    </contour>
  </outline>
</glyph>
<glyph name="propersuperset" format="2">
  <advance width="600"/>
  <unicode hex="2283"/>
  <outline>
    <contour>
      <point x="25" y="615" type="line" name="dh01"/>
      <point x="325" y="615" type="line" smooth="yes"/>
      <point x="475" y="615"/>
      <point x="575" y="521.8"/>
      <point x="575" y="382" type="curve" smooth="yes" name="dv01"/>
      <point x="575" y="338" type="line" smooth="yes" name="sv01"/>
      <point x="575" y="198.2"/>
      <point x="475" y="105"/>
      <point x="325" y="105" type="curve" smooth="yes"/>
      <point x="25" y="105" type="line" name="dh04"/>
      <point x="25" y="245" type="line" name="dh03"/>
      <point x="321" y="245" type="line" smooth="yes"/>
      <point x="385.866" y="245"/>
      <point x="425" y="280.747"/>
      <point x="425" y="340" type="curve" smooth="yes" name="sv03"/>
      <point x="425" y="380" type="line" smooth="yes"/>
      <point x="425" y="438.542"/>
      <point x="385.088" y="475"/>
      <point x="321" y="475" type="curve" smooth="yes"/>
      <point x="25" y="475" type="line" name="dh02"/>
    </contour>
  </outline>
</glyph>
<glyph name="notsubset" format="2">
  <advance width="600"/>
  <unicode hex="2284"/>
  <outline>
    <component base="propersubset"/>
    <contour>
      <point x="429.146" y="780" type="line"/>
      <point x="519.561" y="780" type="line"/>
      <point x="240.561" y="-60" type="line"/>
      <point x="150.146" y="-60" type="line"/>
    </contour>
  </outline>
</glyph>
<glyph name="uni2285" format="2">
  <advance width="600"/>
  <unicode hex="2285"/>
  <outline>
    <component base="propersuperset"/>
    <contour>
      <point x="359.439" y="780" type="line"/>
      <point x="449.854" y="780" type="line"/>
      <point x="170.854" y="-60" type="line"/>
      <point x="80.4388" y="-60" type="line"/>
    </contour>
  </outline>
</glyph>
<glyph name="reflexsubset" format="2">
  <advance width="600"/>
  <unicode hex="2286"/>
  <outline>
    <component base="propersubset" yOffset="90"/>
    <contour>
      <point x="39.9766" y="0" type="line"/>
      <point x="575" y="0" type="line"/>
      <point x="575" y="140" type="line"/>
      <point x="39.9766" y="140" type="line"/>
    </contour>
  </outline>
</glyph>
<glyph name="reflexsuperset" format="2">
  <advance width="600"/>
  <unicode hex="2287"/>
  <outline>
    <component base="propersuperset" yOffset="90"/>
    <contour>
      <point x="24.9766" y="0" type="line"/>
      <point x="560" y="0" type="line"/>
      <point x="560" y="140" type="line"/>
      <point x="24.9766" y="140" type="line"/>
    </contour>
  </outline>
</glyph>
<glyph name="uni2374" format="2">
  <advance width="600"/>
  <unicode hex="2374"/>
  <outline>
    <contour>
      <point x="63" y="340" type="line" smooth="yes" name="sh01"/>
      <point x="63" y="472"/>
      <point x="162" y="560"/>
      <point x="310" y="560" type="curve" smooth="yes" name="at01"/>
      <point x="455" y="560"/>
      <point x="552" y="474"/>
      <point x="552" y="345" type="curve" smooth="yes"/>
      <point x="552" y="210" type="line" smooth="yes" name="sh05"/>
      <point x="552" y="75"/>
      <point x="476" y="-10"/>
      <point x="360" y="-10" type="curve" smooth="yes" name="ab02"/>
      <point x="282" y="-10"/>
      <point x="228" y="30"/>
      <point x="218" y="96" type="curve" name="sh06"/>
      <point x="208" y="96" type="line" name="sh03"/>
      <point x="209" y="85"/>
      <point x="213" y="42"/>
      <point x="213" y="0" type="curve" smooth="yes" name="sh04"/>
      <point x="213" y="-170" type="line" name="ab01"/>
      <point x="63" y="-170" type="line"/>
    </contour>
    <contour>
      <point x="213" y="340" type="curve" smooth="yes" name="sh08"/>
      <point x="213" y="210" type="line" smooth="yes" name="sh07"/>
      <point x="213" y="158"/>
      <point x="249" y="121"/>
      <point x="308" y="121" type="curve" smooth="yes" name="sv01"/>
      <point x="367" y="121"/>
      <point x="402" y="159"/>
      <point x="402" y="215" type="curve" smooth="yes" name="ah01"/>
      <point x="402" y="340" type="line" smooth="yes"/>
      <point x="402" y="395"/>
      <point x="365" y="430"/>
      <point x="308" y="430" type="curve" smooth="yes" name="sv02"/>
      <point x="251" y="430"/>
      <point x="213" y="394"/>
    </contour>
  </outline>
</glyph>
<glyph name="uni250A" format="2">
  <advance width="600"/>
  <unicode hex="250A"/>
  <outline>
    <contour>
      <point x="250" y="925" type="line"/>
      <point x="350" y="925" type="line"/>
      <point x="350" y="710" type="line"/>
      <point x="250" y="710" type="line"/>
    </contour>
    <contour>
      <point x="250" y="315" type="line"/>
      <point x="350" y="315" type="line"/>
      <point x="350" y="100" type="line"/>
      <point x="250" y="100" type="line"/>
    </contour>
    <contour>
      <point x="250" y="620" type="line"/>
      <point x="350" y="620" type="line"/>
      <point x="350" y="405" type="line"/>
      <point x="250" y="405" type="line"/>
    </contour>
    <contour>
      <point x="250" y="10" type="line"/>
      <point x="350" y="10" type="line"/>
      <point x="350" y="-205" type="line"/>
      <point x="250" y="-205" type="line"/>
    </contour>
  </outline>
  <guideline angle="90" x="299" y="0"/>
</glyph>
<glyph name="uni2519" format="2">
  <advance width="600"/>
  <unicode hex="2519"/>
  <outline>
    <contour>
      <point x="350" y="260" type="line"/>
      <point x="-20" y="260" type="line"/>
      <point x="-20" y="460" type="line"/>
      <point x="250" y="460" type="line"/>
      <point x="250" y="1010" type="line"/>
      <point x="350" y="1010" type="line"/>
    </contour>
  </outline>
</glyph>
<glyph name="uni252E" format="2">
  <advance width="600"/>
  <unicode hex="252E"/>
  <outline>
    <contour>
      <point x="620" y="460" type="line"/>
      <point x="620" y="260" type="line"/>
      <point x="350" y="260" type="line"/>
      <point x="350" y="-310" type="line"/>
      <point x="250" y="-310" type="line"/>
      <point x="250" y="310" type="line"/>
      <point x="-20" y="310" type="line"/>
      <point x="-20" y="410" type="line"/>
      <point x="250" y="410" type="line"/>
      <point x="250" y="460" type="line"/>
    </contour>
  </outline>
</glyph>
<glyph name="uni2531" format="2">
  <advance width="600"/>
  <unicode hex="2531"/>
  <outline>
    <contour>
      <point x="-20" y="460" type="line"/>
      <point x="400" y="460" type="line"/>
      <point x="400" y="410" type="line"/>
      <point x="620" y="410" type="line"/>
      <point x="620" y="310" type="line"/>
      <point x="400" y="310" type="line"/>
      <point x="400" y="-310" type="line"/>
      <point x="200" y="-310" type="line"/>
      <point x="200" y="260" type="line"/>
      <point x="-20" y="260" type="line"/>
    </contour>
  </outline>
</glyph>
<glyph name="uni253E" format="2">
  <advance width="600"/>
  <unicode hex="253E"/>
  <outline>
    <contour>
      <point x="620" y="460" type="line"/>
      <point x="620" y="260" type="line"/>
      <point x="350" y="260" type="line"/>
      <point x="350" y="-311" type="line"/>
      <point x="250" y="-311" type="line"/>
      <point x="250" y="310" type="line"/>
      <point x="-20" y="310" type="line"/>
      <point x="-20" y="410" type="line"/>
      <point x="250" y="410" type="line"/>
      <point x="250" y="1010" type="line"/>
      <point x="350" y="1010" type="line"/>
      <point x="350" y="460" type="line"/>
    </contour>
  </outline>
</glyph>
<glyph name="uni254E" format="2">
  <advance width="600"/>
  <unicode hex="254E"/>
  <outline>
    <contour>
      <point x="250" y="883" type="line"/>
      <point x="350" y="883" type="line"/>
      <point x="350" y="430" type="line"/>
      <point x="250" y="430" type="line"/>
    </contour>
    <contour>
      <point x="250" y="280" type="line"/>
      <point x="350" y="280" type="line"/>
      <point x="350" y="-175" type="line"/>
      <point x="250" y="-175" type="line"/>
    </contour>
  </outline>
  <guideline angle="90" x="299" y="0"/>
</glyph>
<glyph name="SF230000" format="2">
  <advance width="600"/>
  <unicode hex="2563"/>
  <outline>
    <contour>
      <point x="451" y="1010" type="line"/>
      <point x="451" y="-310" type="line"/>
      <point x="351" y="-310" type="line"/>
      <point x="351" y="1010" type="line"/>
    </contour>
    <contour>
      <point x="250" y="410" type="line"/>
      <point x="-20" y="410" type="line"/>
      <point x="-20" y="510" type="line"/>
      <point x="150" y="510" type="line"/>
      <point x="150" y="1010" type="line"/>
      <point x="250" y="1010" type="line"/>
    </contour>
    <contour>
      <point x="250" y="310" type="line"/>
      <point x="250" y="-310" type="line"/>
      <point x="150" y="-310" type="line"/>
      <point x="150" y="210" type="line"/>
      <point x="-20" y="210" type="line"/>
      <point x="-20" y="310" type="line"/>
    </contour>
  </outline>
</glyph>
<glyph name="uni2579" format="2">
  <advance width="600"/>
  <unicode hex="2579"/>
  <outline>
    <contour>
      <point x="200" y="310" type="line"/>
      <point x="200" y="1010" type="line"/>
      <point x="400" y="1010" type="line"/>
      <point x="400" y="310" type="line"/>
    </contour>
  </outline>
</glyph>
<glyph name="uni257A" format="2">
  <advance width="600"/>
  <unicode hex="257A"/>
  <outline>
    <contour>
      <point x="250" y="460" type="line"/>
      <point x="620" y="460" type="line"/>
      <point x="620" y="260" type="line"/>
      <point x="250" y="260" type="line"/>
    </contour>
  </outline>
</glyph>
<glyph name="uni2594" format="2">
  <advance width="600"/>
  <unicode hex="2594"/>
  <outline>
    <contour>
      <point x="-20" y="815" type="line"/>
      <point x="-20" y="1010" type="line"/>
      <point x="620" y="1010" type="line"/>
      <point x="620" y="815" type="line"/>
    </contour>
  </outline>
</glyph>
<glyph name="uni2595" format="2">
  <advance width="600"/>
  <unicode hex="2595"/>
  <outline>
    <contour>
      <point x="525" y="1010" type="line"/>
      <point x="620" y="1010" type="line"/>
      <point x="620" y="-310" type="line"/>
      <point x="525" y="-310" type="line"/>
    </contour>
  </outline>
</glyph>
<glyph name="uni2598" format="2">
  <advance width="600"/>
  <unicode hex="2598"/>
  <outline>
    <contour>
      <point x="-20" y="1010" type="line"/>
      <point x="300" y="1010" type="line"/>
      <point x="300" y="350" type="line"/>
      <point x="-20" y="350" type="line"/>
    </contour>
  </outline>
</glyph>
<glyph name="uniE0B0" format="2">
  <advance width="600"/>
  <unicode hex="E0B0"/>
  <outline>
    <contour>
      <point x="0" y="969" type="line"/>
      <point x="600" y="350" type="line"/>
      <point x="0" y="-269" type="line"/>
    </contour>
  </outline>
</glyph>
<glyph name="a.alt" format="2">
  <advance width="600" height="985"/>
  <outline>
    <contour>
      <point x="240" y="560" type="curve" smooth="yes"/>
      <point x="318" y="560"/>
      <point x="372" y="520"/>
      <point x="382" y="455" type="curve"/>
      <point x="392" y="455" type="line"/>
      <point x="392" y="550" type="line"/>
      <point x="537" y="550" type="line"/>
      <point x="537" y="0" type="line"/>
      <point x="392" y="0" type="line"/>
      <point x="392" y="96" type="line"/>
      <point x="382" y="96" type="line"/>
      <point x="372" y="30"/>
      <point x="318" y="-10"/>
      <point x="240" y="-10" type="curve" smooth="yes"/>
      <point x="124" y="-10"/>
      <point x="48" y="75"/>
      <point x="48" y="210" type="curve" smooth="yes"/>
      <point x="48" y="345" type="line" smooth="yes"/>
      <point x="48" y="476"/>
      <point x="124" y="560"/>
    </contour>
    <contour>
      <point x="292" y="430" type="curve" smooth="yes"/>
      <point x="235" y="430"/>
      <point x="198" y="395"/>
      <point x="198" y="340" type="curve" smooth="yes"/>
      <point x="198" y="215" type="line" smooth="yes"/>
      <point x="198" y="159"/>
      <point x="233" y="121"/>
      <point x="292" y="121" type="curve" smooth="yes"/>
      <point x="351" y="121"/>
      <point x="387" y="158"/>
      <point x="387" y="210" type="curve" smooth="yes"/>
      <point x="387" y="340" type="line" smooth="yes"/>
      <point x="387" y="394"/>
      <point x="349" y="430"/>
    </contour>
  </outline>
</glyph>
<glyph name="acute.case" format="2">
  <advance width="600" height="985"/>
  <outline>
    <contour>
      <point x="444.563" y="935" type="line"/>
      <point x="299.563" y="935" type="line"/>
      <point x="184.563" y="800" type="line"/>
      <point x="319.563" y="800" type="line"/>
    </contour>
  </outline>
</glyph>
<glyph name="ampersand_ampersand.liga" format="2">
  <advance width="600" height="985"/>
  <outline>
    <contour>
      <point x="70" y="551.098" type="curve" smooth="yes"/>
      <point x="70" y="658"/>
      <point x="150" y="730"/>
      <point x="270" y="730" type="curve" smooth="yes"/>
      <point x="393" y="730"/>
      <point x="475" y="654"/>
      <point x="475" y="540" type="curve"/>
      <point x="340" y="540" type="line"/>
      <point x="340" y="582"/>
      <point x="312" y="610"/>
      <point x="270" y="610" type="curve" smooth="yes"/>
      <point x="228" y="610"/>
      <point x="200" y="582"/>
      <point x="200" y="540" type="curve" smooth="yes"/>
      <point x="200" y="512"/>
      <point x="212" y="485"/>
      <point x="246" y="436" type="curve" smooth="yes"/>
      <point x="550" y="0" type="line"/>
      <point x="407" y="0" type="line"/>
      <point x="133" y="387" type="line" smooth="yes"/>
      <point x="89" y="450"/>
      <point x="70" y="499"/>
    </contour>
    <contour>
      <point x="4" y="260" type="line" smooth="yes"/>
      <point x="4" y="372"/>
      <point x="68" y="440"/>
      <point x="174" y="440" type="curve" smooth="yes"/>
      <point x="229" y="440" type="line"/>
      <point x="229" y="345" type="line"/>
      <point x="215" y="345" type="line" smooth="yes"/>
      <point x="169" y="345"/>
      <point x="144" y="315"/>
      <point x="144" y="260" type="curve" smooth="yes"/>
      <point x="144" y="195" type="line" smooth="yes"/>
      <point x="144" y="140"/>
      <point x="174" y="110"/>
      <point x="219" y="110" type="curve" smooth="yes"/>
      <point x="266" y="110"/>
      <point x="297" y="139"/>
      <point x="314" y="174" type="curve" smooth="yes"/>
      <point x="404" y="360" type="line"/>
      <point x="544" y="360" type="line"/>
      <point x="431" y="132" type="line"/>
      <point x="384" y="42"/>
      <point x="304" y="-10"/>
      <point x="204" y="-10" type="curve" smooth="yes"/>
      <point x="79" y="-10"/>
      <point x="4" y="60"/>
      <point x="4" y="195" type="curve" smooth="yes"/>
    </contour>
    <contour>
      <point x="-526" y="260" type="line" smooth="yes"/>
      <point x="-526" y="372"/>
      <point x="-462" y="440"/>
      <point x="-356" y="440" type="curve" smooth="yes"/>
      <point x="-301" y="440" type="line"/>
      <point x="-301" y="345" type="line"/>
      <point x="-315" y="345" type="line" smooth="yes"/>
      <point x="-361" y="345"/>
      <point x="-386" y="315"/>
      <point x="-386" y="260" type="curve" smooth="yes"/>
      <point x="-386" y="195" type="line" smooth="yes"/>
      <point x="-386" y="140"/>
      <point x="-356" y="110"/>
      <point x="-311" y="110" type="curve" smooth="yes"/>
      <point x="-264" y="110"/>
      <point x="-233" y="139"/>
      <point x="-216" y="174" type="curve"/>
      <point x="-99" y="132" type="line"/>
      <point x="-144" y="41"/>
      <point x="-226" y="-10"/>
      <point x="-326" y="-10" type="curve" smooth="yes"/>
      <point x="-451" y="-10"/>
      <point x="-526" y="60"/>
      <point x="-526" y="195" type="curve" smooth="yes"/>
    </contour>
    <contour>
      <point x="-460" y="551.098" type="curve" smooth="yes"/>
      <point x="-460" y="658"/>
      <point x="-380" y="730"/>
      <point x="-260" y="730" type="curve" smooth="yes"/>
      <point x="-137" y="730"/>
      <point x="-55" y="654"/>
      <point x="-55" y="540" type="curve"/>
      <point x="-190" y="540" type="line"/>
      <point x="-190" y="582"/>
      <point x="-218" y="610"/>
      <point x="-260" y="610" type="curve" smooth="yes"/>
      <point x="-302" y="610"/>
      <point x="-330" y="582"/>
      <point x="-330" y="540" type="curve" smooth="yes"/>
      <point x="-330" y="512"/>
      <point x="-318" y="485"/>
      <point x="-284" y="436" type="curve" smooth="yes"/>
      <point x="20" y="0" type="line"/>
      <point x="-123" y="0" type="line"/>
      <point x="-397" y="387" type="line" smooth="yes"/>
      <point x="-441" y="450"/>
      <point x="-460" y="499"/>
    </contour>
  </outline>
</glyph>
<glyph name="ampersand_ampersand_ampersand.liga" format="2">
  <advance width="600" height="985"/>
  <outline>
    <contour>
      <point x="30" y="551.098" type="curve" smooth="yes"/>
      <point x="30" y="658"/>
      <point x="110" y="730"/>
      <point x="230" y="730" type="curve" smooth="yes"/>
      <point x="353" y="730"/>
      <point x="435" y="654"/>
      <point x="435" y="540" type="curve"/>
      <point x="300" y="540" type="line"/>
      <point x="300" y="582"/>
      <point x="272" y="610"/>
      <point x="230" y="610" type="curve" smooth="yes"/>
      <point x="188" y="610"/>
      <point x="160" y="582"/>
      <point x="160" y="540" type="curve" smooth="yes"/>
      <point x="160" y="512"/>
      <point x="172" y="485"/>
      <point x="206" y="436" type="curve" smooth="yes"/>
      <point x="510" y="0" type="line"/>
      <point x="367" y="0" type="line"/>
      <point x="93" y="387" type="line" smooth="yes"/>
      <point x="49" y="450"/>
      <point x="30" y="499"/>
    </contour>
    <contour>
      <point x="-36" y="260" type="line" smooth="yes"/>
      <point x="-36" y="372"/>
      <point x="28" y="440"/>
      <point x="134" y="440" type="curve" smooth="yes"/>
      <point x="189" y="440" type="line"/>
      <point x="189" y="345" type="line"/>
      <point x="175" y="345" type="line" smooth="yes"/>
      <point x="129" y="345"/>
      <point x="104" y="315"/>
      <point x="104" y="260" type="curve" smooth="yes"/>
      <point x="104" y="195" type="line" smooth="yes"/>
      <point x="104" y="140"/>
      <point x="134" y="110"/>
      <point x="179" y="110" type="curve" smooth="yes"/>
      <point x="226" y="110"/>
      <point x="257" y="139"/>
      <point x="274" y="174" type="curve" smooth="yes"/>
      <point x="364" y="360" type="line"/>
      <point x="504" y="360" type="line"/>
      <point x="391" y="132" type="line"/>
      <point x="344" y="42"/>
      <point x="264" y="-10"/>
      <point x="164" y="-10" type="curve" smooth="yes"/>
      <point x="39" y="-10"/>
      <point x="-36" y="60"/>
      <point x="-36" y="195" type="curve" smooth="yes"/>
    </contour>
    <contour>
      <point x="-510" y="551.098" type="curve" smooth="yes"/>
      <point x="-510" y="658"/>
      <point x="-430" y="730"/>
      <point x="-310" y="730" type="curve" smooth="yes"/>
      <point x="-187" y="730"/>
      <point x="-105" y="654"/>
      <point x="-105" y="540" type="curve"/>
      <point x="-240" y="540" type="line"/>
      <point x="-240" y="582"/>
      <point x="-268" y="610"/>
      <point x="-310" y="610" type="curve" smooth="yes"/>
      <point x="-352" y="610"/>
      <point x="-380" y="582"/>
      <point x="-380" y="540" type="curve" smooth="yes"/>
      <point x="-380" y="512"/>
      <point x="-368" y="485"/>
      <point x="-334" y="436" type="curve" smooth="yes"/>
      <point x="-30" y="0" type="line"/>
      <point x="-173" y="0" type="line"/>
      <point x="-447" y="387" type="line" smooth="yes"/>
      <point x="-491" y="450"/>
      <point x="-510" y="499"/>
    </contour>
    <contour>
      <point x="-576" y="260" type="line" smooth="yes"/>
      <point x="-576" y="372"/>
      <point x="-512" y="440"/>
      <point x="-406" y="440" type="curve" smooth="yes"/>
      <point x="-351" y="440" type="line"/>
      <point x="-351" y="345" type="line"/>
      <point x="-365" y="345" type="line" smooth="yes"/>
      <point x="-411" y="345"/>
      <point x="-436" y="315"/>
      <point x="-436" y="260" type="curve" smooth="yes"/>
      <point x="-436" y="195" type="line" smooth="yes"/>
      <point x="-436" y="140"/>
      <point x="-406" y="110"/>
      <point x="-361" y="110" type="curve" smooth="yes"/>
      <point x="-314" y="110"/>
      <point x="-283" y="139"/>
      <point x="-266" y="174" type="curve"/>
      <point x="-149" y="132" type="line"/>
      <point x="-194" y="41"/>
      <point x="-276" y="-10"/>
      <point x="-376" y="-10" type="curve" smooth="yes"/>
      <point x="-501" y="-10"/>
      <point x="-576" y="60"/>
      <point x="-576" y="195" type="curve" smooth="yes"/>
    </contour>
    <contour>
      <point x="-1050" y="551.098" type="curve" smooth="yes"/>
      <point x="-1050" y="658"/>
      <point x="-970" y="730"/>
      <point x="-850" y="730" type="curve" smooth="yes"/>
      <point x="-727" y="730"/>
      <point x="-645" y="654"/>
      <point x="-645" y="540" type="curve"/>
      <point x="-780" y="540" type="line"/>
      <point x="-780" y="582"/>
      <point x="-808" y="610"/>
      <point x="-850" y="610" type="curve" smooth="yes"/>
      <point x="-892" y="610"/>
      <point x="-920" y="582"/>
      <point x="-920" y="540" type="curve" smooth="yes"/>
      <point x="-920" y="512"/>
      <point x="-908" y="485"/>
      <point x="-874" y="436" type="curve" smooth="yes"/>
      <point x="-570" y="0" type="line"/>
      <point x="-713" y="0" type="line"/>
      <point x="-987" y="387" type="line" smooth="yes"/>
      <point x="-1031" y="450"/>
      <point x="-1050" y="499"/>
    </contour>
    <contour>
      <point x="-1116" y="260" type="line" smooth="yes"/>
      <point x="-1116" y="372"/>
      <point x="-1052" y="440"/>
      <point x="-946" y="440" type="curve" smooth="yes"/>
      <point x="-891" y="440" type="line"/>
      <point x="-891" y="345" type="line"/>
      <point x="-905" y="345" type="line" smooth="yes"/>
      <point x="-951" y="345"/>
      <point x="-976" y="315"/>
      <point x="-976" y="260" type="curve" smooth="yes"/>
      <point x="-976" y="195" type="line" smooth="yes"/>
      <point x="-976" y="140"/>
      <point x="-946" y="110"/>
      <point x="-901" y="110" type="curve" smooth="yes"/>
      <point x="-854" y="110"/>
      <point x="-823" y="139"/>
      <point x="-806" y="174" type="curve"/>
      <point x="-689" y="132" type="line"/>
      <point x="-734" y="41"/>
      <point x="-816" y="-10"/>
      <point x="-916" y="-10" type="curve" smooth="yes"/>
      <point x="-1041" y="-10"/>
      <point x="-1116" y="60"/>
      <point x="-1116" y="195" type="curve" smooth="yes"/>
    </contour>
  </outline>
</glyph>
<glyph name="ampersand_equal.liga" format="2">
  <advance width="600" height="985"/>
  <outline>
    <contour>
      <point x="45" y="275" type="line"/>
      <point x="520" y="275" type="line"/>
      <point x="520" y="135" type="line"/>
      <point x="45" y="135" type="line"/>
    </contour>
    <contour>
      <point x="-301" y="440" type="line"/>
      <point x="-301" y="345" type="line"/>
      <point x="-315" y="345" type="line" smooth="yes"/>
      <point x="-361" y="345"/>
      <point x="-386" y="315"/>
      <point x="-386" y="260" type="curve" smooth="yes"/>
      <point x="-386" y="195" type="line" smooth="yes"/>
      <point x="-386" y="140"/>
      <point x="-358" y="110"/>
      <point x="-306" y="110" type="curve" smooth="yes"/>
      <point x="-265" y="110"/>
      <point x="-238" y="136"/>
      <point x="-216" y="174" type="curve" smooth="yes"/>
      <point x="-12" y="525" type="line"/>
      <point x="520" y="525" type="line"/>
      <point x="520" y="385" type="line"/>
      <point x="50" y="385" type="line"/>
      <point x="-96" y="132" type="line" smooth="yes"/>
      <point x="-148" y="43"/>
      <point x="-231" y="-10"/>
      <point x="-321" y="-10" type="curve" smooth="yes"/>
      <point x="-447" y="-10"/>
      <point x="-526" y="69"/>
      <point x="-526" y="195" type="curve" smooth="yes"/>
      <point x="-526" y="260" type="line" smooth="yes"/>
      <point x="-526" y="372"/>
      <point x="-462" y="440"/>
      <point x="-356" y="440" type="curve" smooth="yes"/>
    </contour>
    <contour>
      <point x="-460" y="551.098" type="curve" smooth="yes"/>
      <point x="-460" y="658"/>
      <point x="-380" y="730"/>
      <point x="-260" y="730" type="curve" smooth="yes"/>
      <point x="-137" y="730"/>
      <point x="-55" y="654"/>
      <point x="-55" y="540" type="curve"/>
      <point x="-190" y="540" type="line"/>
      <point x="-190" y="582"/>
      <point x="-218" y="610"/>
      <point x="-260" y="610" type="curve" smooth="yes"/>
      <point x="-302" y="610"/>
      <point x="-330" y="582"/>
      <point x="-330" y="540" type="curve" smooth="yes"/>
      <point x="-330" y="510"/>
      <point x="-315" y="481"/>
      <point x="-284" y="436" type="curve" smooth="yes"/>
      <point x="20" y="0" type="line"/>
      <point x="-123" y="0" type="line"/>
      <point x="-397" y="387" type="line" smooth="yes"/>
      <point x="-441" y="450"/>
      <point x="-460" y="499"/>
    </contour>
  </outline>
</glyph>
<glyph name="asciitilde_at.liga" format="2">
  <advance width="600" height="985"/>
  <outline>
    <contour>
      <point x="356" y="410" type="curve" smooth="yes"/>
      <point x="320" y="410"/>
      <point x="300" y="383"/>
      <point x="300" y="320" type="curve" smooth="yes"/>
      <point x="300" y="240" type="line" smooth="yes"/>
      <point x="300" y="182"/>
      <point x="317" y="150"/>
      <point x="356" y="150" type="curve" smooth="yes"/>
      <point x="398" y="150"/>
      <point x="420" y="181"/>
      <point x="420" y="240" type="curve"/>
      <point x="435" y="240" type="line"/>
      <point x="435" y="130"/>
      <point x="389" y="65"/>
      <point x="310" y="65" type="curve" smooth="yes"/>
      <point x="220" y="65"/>
      <point x="180" y="118"/>
      <point x="180" y="240" type="curve" smooth="yes"/>
      <point x="180" y="320" type="line" smooth="yes"/>
      <point x="180" y="442"/>
      <point x="220" y="495"/>
      <point x="310" y="495" type="curve" smooth="yes"/>
      <point x="389" y="495"/>
      <point x="435" y="430"/>
      <point x="435" y="320" type="curve"/>
      <point x="420" y="320" type="line"/>
      <point x="420" y="379"/>
      <point x="398" y="410"/>
    </contour>
    <contour>
      <point x="-550" y="255" type="line"/>
      <point x="-550" y="315" type="line" smooth="yes"/>
      <point x="-550" y="399"/>
      <point x="-488" y="455"/>
      <point x="-395" y="455" type="curve" smooth="yes"/>
      <point x="-265" y="455"/>
      <point x="-197" y="355"/>
      <point x="-127" y="355" type="curve" smooth="yes"/>
      <point x="4" y="355"/>
      <point x="-10" y="730"/>
      <point x="280" y="730" type="curve" smooth="yes"/>
      <point x="442" y="730"/>
      <point x="540" y="647"/>
      <point x="540" y="510" type="curve" smooth="yes"/>
      <point x="540" y="75" type="line"/>
      <point x="429" y="75" type="line"/>
      <point x="427" y="219" type="line"/>
      <point x="420" y="219" type="line"/>
      <point x="420" y="392" type="line"/>
      <point x="425" y="392" type="line"/>
      <point x="425" y="392"/>
      <point x="420" y="440"/>
      <point x="420" y="490" type="curve" smooth="yes"/>
      <point x="420" y="510" type="line" smooth="yes"/>
      <point x="420" y="581"/>
      <point x="367" y="625"/>
      <point x="280" y="625" type="curve" smooth="yes"/>
      <point x="58" y="625"/>
      <point x="106" y="250"/>
      <point x="-125" y="250" type="curve" smooth="yes"/>
      <point x="-249" y="250"/>
      <point x="-318" y="350"/>
      <point x="-388" y="350" type="curve" smooth="yes"/>
      <point x="-419" y="350"/>
      <point x="-440" y="332"/>
      <point x="-440" y="305" type="curve" smooth="yes"/>
      <point x="-440" y="255" type="line"/>
    </contour>
  </outline>
  <guideline angle="90" x="-600" y="0"/>
</glyph>
<glyph name="asciitilde_hyphen.liga" format="2">
  <advance width="600" height="985"/>
  <outline>
    <contour>
      <point x="-60" y="210" type="curve" smooth="yes"/>
      <point x="-200" y="210"/>
      <point x="-250" y="345"/>
      <point x="-330" y="345" type="curve" smooth="yes"/>
      <point x="-363" y="345"/>
      <point x="-385" y="323"/>
      <point x="-385" y="290" type="curve" smooth="yes"/>
      <point x="-385" y="235" type="line"/>
      <point x="-495" y="235" type="line"/>
      <point x="-495" y="305" type="line" smooth="yes"/>
      <point x="-495" y="392"/>
      <point x="-431" y="450"/>
      <point x="-335" y="450" type="curve" smooth="yes"/>
      <point x="-195" y="450"/>
      <point x="-145" y="315"/>
      <point x="-65" y="315" type="curve" smooth="yes"/>
      <point x="-32" y="315"/>
      <point x="-10" y="339"/>
      <point x="-10" y="375" type="curve"/>
      <point x="100" y="360" type="line"/>
      <point x="100" y="270"/>
      <point x="36" y="210"/>
    </contour>
    <contour>
      <point x="-10" y="400" type="line"/>
      <point x="500" y="400" type="line"/>
      <point x="500" y="260" type="line"/>
      <point x="-10" y="260" type="line"/>
    </contour>
  </outline>
  <guideline angle="90" x="-600" y="0"/>
</glyph>
<glyph name="asterisk_greater.liga" format="2">
  <advance width="600" height="985"/>
  <outline>
    <contour>
      <point x="-578" y="377" type="line"/>
      <point x="-534" y="499" type="line"/>
      <point x="-452" y="470" type="line" smooth="yes"/>
      <point x="-400" y="451"/>
      <point x="-336" y="400"/>
      <point x="-302" y="371" type="curve"/>
      <point x="-297" y="375" type="line"/>
      <point x="-312" y="416"/>
      <point x="-340" y="497"/>
      <point x="-340" y="555" type="curve" smooth="yes"/>
      <point x="-340" y="640" type="line"/>
      <point x="-210" y="640" type="line"/>
      <point x="-210" y="555" type="line" smooth="yes"/>
      <point x="-210" y="497"/>
      <point x="-238" y="416"/>
      <point x="-253" y="375" type="curve"/>
      <point x="-249" y="372" type="line"/>
      <point x="-215" y="401"/>
      <point x="-151" y="451"/>
      <point x="-99" y="470" type="curve" smooth="yes"/>
      <point x="-17" y="499" type="line"/>
      <point x="28" y="377" type="line"/>
      <point x="-54" y="348" type="line" smooth="yes"/>
      <point x="-106" y="329"/>
      <point x="-186" y="326"/>
      <point x="-231" y="326" type="curve"/>
      <point x="-233" y="322" type="line"/>
      <point x="-197" y="297"/>
      <point x="-130" y="248"/>
      <point x="-97" y="202" type="curve"/>
      <point x="-46" y="126" type="line"/>
      <point x="-152" y="52" type="line"/>
      <point x="-204" y="127" type="line" smooth="yes"/>
      <point x="-237" y="174"/>
      <point x="-261" y="257"/>
      <point x="-272" y="299" type="curve"/>
      <point x="-278" y="299" type="line"/>
      <point x="-289" y="257"/>
      <point x="-313" y="175"/>
      <point x="-346" y="127" type="curve" smooth="yes"/>
      <point x="-398" y="52" type="line"/>
      <point x="-504" y="126" type="line"/>
      <point x="-453" y="201" type="line" smooth="yes"/>
      <point x="-420" y="248"/>
      <point x="-354" y="298"/>
      <point x="-317" y="323" type="curve"/>
      <point x="-319" y="326" type="line"/>
      <point x="-364" y="326"/>
      <point x="-445" y="329"/>
      <point x="-497" y="348" type="curve" smooth="yes"/>
    </contour>
    <contour>
      <point x="452" y="322" type="curve"/>
      <point x="452" y="332" type="line"/>
      <point x="452" y="332"/>
      <point x="399" y="335"/>
      <point x="361" y="350" type="curve" smooth="yes"/>
      <point x="85" y="462" type="line"/>
      <point x="85" y="599" type="line"/>
      <point x="545" y="401" type="line"/>
      <point x="545" y="258" type="line"/>
      <point x="85" y="59" type="line"/>
      <point x="85" y="195" type="line"/>
      <point x="361" y="307" type="line" smooth="yes"/>
      <point x="400" y="323"/>
      <point x="452" y="322"/>
    </contour>
  </outline>
  <guideline angle="90" x="18" y="0"/>
</glyph>
